<?xml version="1.0" encoding="utf-8"?>
<!-- Generator: Adobe Illustrator 22.1.0, SVG Export Plug-In . SVG Version: 6.00 Build 0)  -->
<svg version="1.1" id="Capa_1" xmlns="http://www.w3.org/2000/svg" xmlns:xlink="http://www.w3.org/1999/xlink" x="0px" y="0px"
	 viewBox="0 0 37.3 37.3" style="enable-background:new 0 0 37.3 37.3;" xml:space="preserve">
<style type="text/css">
	.st0{fill:#B52728;}
	.st1{fill:#3A3B38;}
	.st2{fill:#929292;}
	.st3{fill:#6B6B6B;}
	.st4{fill:#9D9D9D;}
	.st5{fill:#FFFFFF;}
	.st6{fill:#C0C0C0;}
	.st7{opacity:0.5;}
	.st8{fill:#3A3C39;}
	.st9{fill:#C22026;}
	.st10{fill:#F2F2F2;}
	.st11{fill:#9E9E9E;}
	.st12{fill:#C1C1C1;}
	.st13{fill:#D3D3D3;}
	.st14{fill:#969696;}
	.st15{opacity:0.85;}
	.st16{fill:#4D4D4D;}
	.st17{fill:none;stroke:#4D4D4D;stroke-width:1.5;stroke-miterlimit:10;}
	.st18{fill:#22BF7C;}
	.st19{fill:#FF8400;}
	.st20{fill:#B0B0B0;}
	.st21{fill:none;stroke:#FFFFFF;stroke-width:1.5;stroke-miterlimit:10;}
	.st22{fill:#CCCCCC;}
	.st23{fill:#444444;}
</style>
<g>
	<path class="st11" d="M18.7,37.3C8.4,37.3,0,28.9,0,18.7S8.4,0,18.7,0s18.7,8.4,18.7,18.7S28.9,37.3,18.7,37.3z M18.7,2
		C9.5,2,2,9.5,2,18.7s7.5,16.7,16.7,16.7s16.7-7.5,16.7-16.7S27.8,2,18.7,2z"/>
</g>
<g>
	<g>
		<path class="st1" d="M11.3,18.8v-0.3c0-1.2,0.9-2.1,2.1-2.1h10.5c1.2,0,2.1,0.9,2.1,2.1v0.3c0,1.2-0.9,2.1-2.1,2.1H13.4
			C12.3,20.9,11.3,19.9,11.3,18.8z"/>
	</g>
	<g>
		<path class="st1" d="M18.5,11.3h0.3c1.2,0,2.1,0.9,2.1,2.1v10.5c0,1.2-0.9,2.1-2.1,2.1h-0.3c-1.2,0-2.1-0.9-2.1-2.1V13.4
			C16.4,12.3,17.4,11.3,18.5,11.3z"/>
	</g>
</g>
</svg>
