<?xml version="1.0" encoding="utf-8"?>
<!-- Generator: Adobe Illustrator 22.1.0, SVG Export Plug-In . SVG Version: 6.00 Build 0)  -->
<svg version="1.1" id="Capa_1" xmlns="http://www.w3.org/2000/svg" xmlns:xlink="http://www.w3.org/1999/xlink" x="0px" y="0px"
	 viewBox="0 0 35.3 35.3" style="enable-background:new 0 0 35.3 35.3;" xml:space="preserve">
<style type="text/css">
	.st0{fill:#B52728;}
	.st1{fill:#3A3B38;}
	.st2{fill:#929292;}
	.st3{fill:#6B6B6B;}
	.st4{fill:#9D9D9D;}
	.st5{fill:#FFFFFF;}
	.st6{fill:#C0C0C0;}
	.st7{opacity:0.5;}
	.st8{fill:#3A3C39;}
	.st9{fill:#C22026;}
	.st10{fill:#F2F2F2;}
	.st11{fill:#9E9E9E;}
	.st12{fill:#C1C1C1;}
	.st13{fill:#D3D3D3;}
	.st14{fill:#969696;}
	.st15{opacity:0.85;}
	.st16{fill:#4D4D4D;}
	.st17{fill:none;stroke:#4D4D4D;stroke-width:1.5;stroke-miterlimit:10;}
	.st18{fill:#22BF7C;}
	.st19{fill:#FF8400;}
	.st20{fill:#B0B0B0;}
	.st21{fill:none;stroke:#FFFFFF;stroke-width:1.5;stroke-miterlimit:10;}
	.st22{fill:#CCCCCC;}
	.st23{fill:#444444;}
</style>
<g>
	<circle class="st9" cx="17.7" cy="17.7" r="17.7"/>
</g>
<g>
	<g>
		<path class="st10" d="M10.3,17.8v-0.3c0-1.2,0.9-2.1,2.1-2.1h10.5c1.2,0,2.1,0.9,2.1,2.1v0.3c0,1.2-0.9,2.1-2.1,2.1H12.4
			C11.3,19.9,10.3,18.9,10.3,17.8z"/>
	</g>
	<g>
		<path class="st10" d="M17.5,10.3h0.3c1.2,0,2.1,0.9,2.1,2.1v10.5c0,1.2-0.9,2.1-2.1,2.1h-0.3c-1.2,0-2.1-0.9-2.1-2.1V12.4
			C15.4,11.3,16.4,10.3,17.5,10.3z"/>
	</g>
</g>
</svg>
