<?xml version="1.0" encoding="utf-8"?>
<!-- Generator: Adobe Illustrator 22.1.0, SVG Export Plug-In . SVG Version: 6.00 Build 0)  -->
<svg version="1.1" id="Capa_1" xmlns="http://www.w3.org/2000/svg" xmlns:xlink="http://www.w3.org/1999/xlink" x="0px" y="0px"
	 viewBox="0 0 196.9 33.1" style="enable-background:new 0 0 196.9 33.1;" xml:space="preserve">
<style type="text/css">
	.st0{fill:#B52728;}
	.st1{fill:#3A3B38;}
	.st2{fill:#929292;}
	.st3{fill:#6B6B6B;}
	.st4{fill:#9D9D9D;}
	.st5{fill:#FFFFFF;}
	.st6{fill:#C0C0C0;}
	.st7{opacity:0.5;}
	.st8{fill:#3A3C39;}
	.st9{fill:#C22026;}
	.st10{fill:#F2F2F2;}
	.st11{fill:#9E9E9E;}
	.st12{fill:#C1C1C1;}
	.st13{fill:#D3D3D3;}
	.st14{fill:#969696;}
	.st15{opacity:0.85;}
	.st16{fill:#4D4D4D;}
	.st17{fill:none;stroke:#4D4D4D;stroke-width:1.5;stroke-miterlimit:10;}
	.st18{fill:#22BF7C;}
	.st19{fill:#FF8400;}
	.st20{fill:#B0B0B0;}
	.st21{fill:none;stroke:#FFFFFF;stroke-width:1.5;stroke-miterlimit:10;}
	.st22{fill:#CCCCCC;}
	.st23{fill:#444444;}
</style>
<g>
	<path class="st8" d="M20.2,22l-0.8-2.6h-4L14.5,22H12l3.9-11.1h2.9L22.7,22H20.2z M18.8,17.4c-0.7-2.4-1.2-3.7-1.3-4.1
		c-0.1-0.3-0.2-0.6-0.2-0.7c-0.2,0.6-0.6,2.2-1.4,4.8H18.8z"/>
	<path class="st8" d="M28.8,12.7c-0.9,0-1.6,0.3-2.1,1c-0.5,0.7-0.7,1.6-0.7,2.8c0,2.5,0.9,3.7,2.8,3.7c0.8,0,1.7-0.2,2.8-0.6v2
		c-0.9,0.4-1.9,0.6-3.1,0.6c-1.6,0-2.8-0.5-3.7-1.5c-0.9-1-1.3-2.4-1.3-4.2c0-1.2,0.2-2.2,0.6-3c0.4-0.9,1-1.5,1.8-2
		s1.7-0.7,2.8-0.7c1.1,0,2.2,0.3,3.2,0.8l-0.8,1.9c-0.4-0.2-0.8-0.4-1.3-0.5C29.7,12.8,29.2,12.7,28.8,12.7z"/>
	<path class="st8" d="M38.3,22H36v-9.1h-3v-2h8.4v2h-3V22z"/>
	<path class="st8" d="M52.1,10.9v7.2c0,0.8-0.2,1.5-0.6,2.2c-0.4,0.6-0.9,1.1-1.6,1.4c-0.7,0.3-1.5,0.5-2.5,0.5
		c-1.4,0-2.5-0.4-3.3-1.1c-0.8-0.7-1.2-1.7-1.2-3v-7.2h2.3v6.8c0,0.9,0.2,1.5,0.5,1.9c0.3,0.4,0.9,0.6,1.7,0.6
		c0.8,0,1.3-0.2,1.7-0.6s0.5-1,0.5-1.9v-6.8H52.1z"/>
	<path class="st8" d="M61.6,22l-0.8-2.6h-4L55.9,22h-2.5l3.9-11.1h2.9L64.1,22H61.6z M60.2,17.4C59.5,15,59,13.6,59,13.3
		s-0.2-0.6-0.2-0.7c-0.2,0.6-0.6,2.2-1.4,4.8H60.2z"/>
	<path class="st8" d="M65.5,22V10.9h2.4V20h4.5V22H65.5z"/>
	<path class="st8" d="M74.3,22V10.9h2.4V22H74.3z"/>
	<path class="st8" d="M86.7,22h-8.3v-1.5l5.3-7.6h-5.2v-1.9h8v1.5L81.2,20h5.5V22z"/>
	<path class="st8" d="M95.2,22l-0.8-2.6h-4L89.6,22H87L91,10.8h2.9L97.8,22H95.2z M93.9,17.4c-0.7-2.4-1.2-3.7-1.3-4.1
		s-0.2-0.6-0.2-0.7c-0.2,0.6-0.6,2.2-1.4,4.8H93.9z"/>
	<path class="st8" d="M101.5,17.7V22h-2.4V10.9h3.2c1.5,0,2.6,0.3,3.3,0.8c0.7,0.5,1.1,1.4,1.1,2.5c0,0.7-0.2,1.2-0.5,1.7
		c-0.4,0.5-0.9,0.9-1.5,1.2c1.7,2.5,2.8,4.1,3.3,4.8h-2.6l-2.6-4.3H101.5z M101.5,15.8h0.8c0.7,0,1.3-0.1,1.6-0.4
		c0.4-0.2,0.5-0.6,0.5-1.2c0-0.5-0.2-0.9-0.5-1.1c-0.4-0.2-0.9-0.3-1.7-0.3h-0.7V15.8z"/>
	<path class="st8" d="M118.2,22l-2.7-8.7h-0.1c0.1,1.8,0.1,3,0.1,3.5V22h-2.1V10.9h3.2l2.6,8.5h0l2.8-8.5h3.2V22h-2.2v-5.3
		c0-0.2,0-0.5,0-0.9c0-0.3,0-1.2,0.1-2.6h-0.1l-2.9,8.7H118.2z"/>
	<path class="st8" d="M137.2,10.9v7.2c0,0.8-0.2,1.5-0.5,2.2c-0.4,0.6-0.9,1.1-1.6,1.4c-0.7,0.3-1.5,0.5-2.5,0.5
		c-1.4,0-2.5-0.4-3.3-1.1c-0.8-0.7-1.2-1.7-1.2-3v-7.2h2.3v6.8c0,0.9,0.2,1.5,0.5,1.9c0.3,0.4,0.9,0.6,1.7,0.6
		c0.8,0,1.3-0.2,1.7-0.6s0.5-1,0.5-1.9v-6.8H137.2z"/>
	<path class="st8" d="M146.3,22h-6.4V10.9h6.4v1.9h-4v2.4h3.8v1.9h-3.8V20h4V22z"/>
	<path class="st8" d="M155.1,18.9c0,1-0.4,1.8-1.1,2.4c-0.7,0.6-1.7,0.9-3,0.9c-1.2,0-2.2-0.2-3.1-0.7v-2.2c0.7,0.3,1.4,0.6,1.9,0.7
		c0.5,0.1,1,0.2,1.4,0.2c0.5,0,0.9-0.1,1.2-0.3c0.3-0.2,0.4-0.5,0.4-0.9c0-0.2-0.1-0.4-0.2-0.6c-0.1-0.2-0.3-0.3-0.5-0.5
		c-0.2-0.2-0.7-0.4-1.4-0.8c-0.7-0.3-1.2-0.6-1.5-0.9c-0.3-0.3-0.6-0.6-0.8-1c-0.2-0.4-0.3-0.8-0.3-1.4c0-1,0.3-1.8,1-2.3
		c0.7-0.6,1.6-0.8,2.8-0.8c0.6,0,1.1,0.1,1.7,0.2c0.5,0.1,1.1,0.3,1.6,0.6l-0.8,1.8c-0.6-0.2-1.1-0.4-1.5-0.5
		c-0.4-0.1-0.8-0.1-1.1-0.1c-0.4,0-0.8,0.1-1,0.3c-0.2,0.2-0.4,0.5-0.4,0.8c0,0.2,0,0.4,0.1,0.5c0.1,0.2,0.2,0.3,0.5,0.4
		c0.2,0.1,0.7,0.4,1.5,0.8c1,0.5,1.7,1,2.1,1.5S155.1,18.2,155.1,18.9z"/>
	<path class="st8" d="M161.4,22h-2.4v-9.1h-3v-2h8.4v2h-3V22z"/>
	<path class="st8" d="M168.5,17.7V22h-2.4V10.9h3.2c1.5,0,2.6,0.3,3.3,0.8c0.7,0.5,1.1,1.4,1.1,2.5c0,0.7-0.2,1.2-0.5,1.7
		c-0.4,0.5-0.9,0.9-1.5,1.2c1.7,2.5,2.8,4.1,3.3,4.8h-2.6l-2.6-4.3H168.5z M168.5,15.8h0.8c0.7,0,1.3-0.1,1.6-0.4
		c0.4-0.2,0.5-0.6,0.5-1.2c0-0.5-0.2-0.9-0.5-1.1c-0.4-0.2-0.9-0.3-1.7-0.3h-0.7V15.8z"/>
	<path class="st8" d="M183.2,22l-0.8-2.6h-4l-0.8,2.6H175l3.9-11.1h2.9l3.9,11.1H183.2z M181.8,17.4c-0.7-2.4-1.2-3.7-1.3-4.1
		s-0.2-0.6-0.2-0.7c-0.2,0.6-0.6,2.2-1.4,4.8H181.8z"/>
</g>
<g>
	<path class="st11" d="M193.4,33.1H3.5c-1.9,0-3.5-1.6-3.5-3.5v-26C0,1.6,1.6,0,3.5,0h189.9c1.9,0,3.5,1.6,3.5,3.5v26
		C196.9,31.5,195.4,33.1,193.4,33.1z M3.5,2C2.7,2,2,2.7,2,3.5v26c0,0.8,0.7,1.5,1.5,1.5h189.9c0.8,0,1.5-0.7,1.5-1.5v-26
		c0-0.8-0.7-1.5-1.5-1.5H3.5z"/>
</g>
</svg>
