<?xml version="1.0" encoding="utf-8"?>
<!-- Generator: Adobe Illustrator 22.1.0, SVG Export Plug-In . SVG Version: 6.00 Build 0)  -->
<svg version="1.1" id="Capa_1" xmlns="http://www.w3.org/2000/svg" xmlns:xlink="http://www.w3.org/1999/xlink" x="0px" y="0px"
	 viewBox="0 0 194.9 31.1" style="enable-background:new 0 0 194.9 31.1;" xml:space="preserve">
<style type="text/css">
	.st0{fill:#B52728;}
	.st1{fill:#3A3B38;}
	.st2{fill:#929292;}
	.st3{fill:#6B6B6B;}
	.st4{fill:#9D9D9D;}
	.st5{fill:#FFFFFF;}
	.st6{fill:#C0C0C0;}
	.st7{opacity:0.5;}
	.st8{fill:#3A3C39;}
	.st9{fill:#C22026;}
	.st10{fill:#F2F2F2;}
	.st11{fill:#9E9E9E;}
	.st12{fill:#C1C1C1;}
	.st13{fill:#D3D3D3;}
	.st14{fill:#969696;}
	.st15{opacity:0.85;}
	.st16{fill:#4D4D4D;}
	.st17{fill:none;stroke:#4D4D4D;stroke-width:1.5;stroke-miterlimit:10;}
	.st18{fill:#22BF7C;}
	.st19{fill:#FF8400;}
	.st20{fill:#B0B0B0;}
	.st21{fill:none;stroke:#FFFFFF;stroke-width:1.5;stroke-miterlimit:10;}
	.st22{fill:#CCCCCC;}
	.st23{fill:#444444;}
</style>
<g>
	<path class="st1" d="M2.5,31.1h189.9c1.4,0,2.5-1.1,2.5-2.5v-26c0-1.4-1.1-2.5-2.5-2.5H2.5C1.1,0,0,1.1,0,2.5v26
		C0,30,1.1,31.1,2.5,31.1z"/>
</g>
<g>
	<path class="st5" d="M19.2,21l-0.8-2.6h-4L13.5,21H11l3.9-11.1h2.9L21.7,21H19.2z M17.8,16.4c-0.7-2.4-1.2-3.7-1.3-4.1
		c-0.1-0.3-0.2-0.6-0.2-0.7c-0.2,0.6-0.6,2.2-1.4,4.8H17.8z"/>
	<path class="st5" d="M27.8,11.7c-0.9,0-1.6,0.3-2.1,1c-0.5,0.7-0.7,1.6-0.7,2.8c0,2.5,0.9,3.7,2.8,3.7c0.8,0,1.7-0.2,2.8-0.6v2
		c-0.9,0.4-1.9,0.6-3.1,0.6c-1.6,0-2.8-0.5-3.7-1.5c-0.9-1-1.3-2.4-1.3-4.2c0-1.2,0.2-2.2,0.6-3c0.4-0.9,1-1.5,1.8-2
		s1.7-0.7,2.8-0.7c1.1,0,2.2,0.3,3.2,0.8l-0.8,1.9c-0.4-0.2-0.8-0.4-1.3-0.5C28.7,11.8,28.2,11.7,27.8,11.7z"/>
	<path class="st5" d="M37.3,21H35v-9.1h-3v-2h8.4v2h-3V21z"/>
	<path class="st5" d="M51.1,9.9v7.2c0,0.8-0.2,1.5-0.6,2.2c-0.4,0.6-0.9,1.1-1.6,1.4c-0.7,0.3-1.5,0.5-2.5,0.5
		c-1.4,0-2.5-0.4-3.3-1.1c-0.8-0.7-1.2-1.7-1.2-3V9.9h2.3v6.8c0,0.9,0.2,1.5,0.5,1.9c0.3,0.4,0.9,0.6,1.7,0.6c0.8,0,1.3-0.2,1.7-0.6
		s0.5-1,0.5-1.9V9.9H51.1z"/>
	<path class="st5" d="M60.6,21l-0.8-2.6h-4L54.9,21h-2.5l3.9-11.1h2.9L63.1,21H60.6z M59.2,16.4C58.5,14,58,12.6,58,12.3
		s-0.2-0.6-0.2-0.7c-0.2,0.6-0.6,2.2-1.4,4.8H59.2z"/>
	<path class="st5" d="M64.5,21V9.9h2.4V19h4.5V21H64.5z"/>
	<path class="st5" d="M73.3,21V9.9h2.4V21H73.3z"/>
	<path class="st5" d="M85.7,21h-8.3v-1.5l5.3-7.6h-5.2V9.9h8v1.5L80.2,19h5.5V21z"/>
	<path class="st5" d="M94.2,21l-0.8-2.6h-4L88.6,21H86L90,9.8h2.9L96.8,21H94.2z M92.9,16.4c-0.7-2.4-1.2-3.7-1.3-4.1
		s-0.2-0.6-0.2-0.7c-0.2,0.6-0.6,2.2-1.4,4.8H92.9z"/>
	<path class="st5" d="M100.5,16.7V21h-2.4V9.9h3.2c1.5,0,2.6,0.3,3.3,0.8c0.7,0.5,1.1,1.4,1.1,2.5c0,0.7-0.2,1.2-0.5,1.7
		c-0.4,0.5-0.9,0.9-1.5,1.2c1.7,2.5,2.8,4.1,3.3,4.8h-2.6l-2.6-4.3H100.5z M100.5,14.8h0.8c0.7,0,1.3-0.1,1.6-0.4
		c0.4-0.2,0.5-0.6,0.5-1.2c0-0.5-0.2-0.9-0.5-1.1c-0.4-0.2-0.9-0.3-1.7-0.3h-0.7V14.8z"/>
	<path class="st5" d="M117.2,21l-2.7-8.7h-0.1c0.1,1.8,0.1,3,0.1,3.5V21h-2.1V9.9h3.2l2.6,8.5h0l2.8-8.5h3.2V21h-2.2v-5.3
		c0-0.2,0-0.5,0-0.9c0-0.3,0-1.2,0.1-2.6h-0.1l-2.9,8.7H117.2z"/>
	<path class="st5" d="M136.2,9.9v7.2c0,0.8-0.2,1.5-0.5,2.2c-0.4,0.6-0.9,1.1-1.6,1.4c-0.7,0.3-1.5,0.5-2.5,0.5
		c-1.4,0-2.5-0.4-3.3-1.1c-0.8-0.7-1.2-1.7-1.2-3V9.9h2.3v6.8c0,0.9,0.2,1.5,0.5,1.9c0.3,0.4,0.9,0.6,1.7,0.6c0.8,0,1.3-0.2,1.7-0.6
		s0.5-1,0.5-1.9V9.9H136.2z"/>
	<path class="st5" d="M145.3,21h-6.4V9.9h6.4v1.9h-4v2.4h3.8v1.9h-3.8V19h4V21z"/>
	<path class="st5" d="M154.1,17.9c0,1-0.4,1.8-1.1,2.4c-0.7,0.6-1.7,0.9-3,0.9c-1.2,0-2.2-0.2-3.1-0.7v-2.2c0.7,0.3,1.4,0.6,1.9,0.7
		c0.5,0.1,1,0.2,1.4,0.2c0.5,0,0.9-0.1,1.2-0.3c0.3-0.2,0.4-0.5,0.4-0.9c0-0.2-0.1-0.4-0.2-0.6c-0.1-0.2-0.3-0.3-0.5-0.5
		c-0.2-0.2-0.7-0.4-1.4-0.8c-0.7-0.3-1.2-0.6-1.5-0.9c-0.3-0.3-0.6-0.6-0.8-1c-0.2-0.4-0.3-0.8-0.3-1.4c0-1,0.3-1.8,1-2.3
		c0.7-0.6,1.6-0.8,2.8-0.8c0.6,0,1.1,0.1,1.7,0.2c0.5,0.1,1.1,0.3,1.6,0.6l-0.8,1.8c-0.6-0.2-1.1-0.4-1.5-0.5
		c-0.4-0.1-0.8-0.1-1.1-0.1c-0.4,0-0.8,0.1-1,0.3c-0.2,0.2-0.4,0.5-0.4,0.8c0,0.2,0,0.4,0.1,0.5c0.1,0.2,0.2,0.3,0.5,0.4
		c0.2,0.1,0.7,0.4,1.5,0.8c1,0.5,1.7,1,2.1,1.5C153.9,16.6,154.1,17.2,154.1,17.9z"/>
	<path class="st5" d="M160.4,21h-2.4v-9.1h-3v-2h8.4v2h-3V21z"/>
	<path class="st5" d="M167.5,16.7V21h-2.4V9.9h3.2c1.5,0,2.6,0.3,3.3,0.8c0.7,0.5,1.1,1.4,1.1,2.5c0,0.7-0.2,1.2-0.5,1.7
		c-0.4,0.5-0.9,0.9-1.5,1.2c1.7,2.5,2.8,4.1,3.3,4.8h-2.6l-2.6-4.3H167.5z M167.5,14.8h0.8c0.7,0,1.3-0.1,1.6-0.4
		c0.4-0.2,0.5-0.6,0.5-1.2c0-0.5-0.2-0.9-0.5-1.1c-0.4-0.2-0.9-0.3-1.7-0.3h-0.7V14.8z"/>
	<path class="st5" d="M182.2,21l-0.8-2.6h-4l-0.8,2.6H174l3.9-11.1h2.9l3.9,11.1H182.2z M180.8,16.4c-0.7-2.4-1.2-3.7-1.3-4.1
		s-0.2-0.6-0.2-0.7c-0.2,0.6-0.6,2.2-1.4,4.8H180.8z"/>
</g>
</svg>
