<?xml version="1.0" encoding="utf-8"?>
<!-- Generator: Adobe Illustrator 22.1.0, SVG Export Plug-In . SVG Version: 6.00 Build 0)  -->
<svg version="1.1" id="Capa_1" xmlns="http://www.w3.org/2000/svg" xmlns:xlink="http://www.w3.org/1999/xlink" x="0px" y="0px"
	 viewBox="0 0 119.4 37.9" style="enable-background:new 0 0 119.4 37.9;" xml:space="preserve">
<style type="text/css">
	.st0{fill:#B52728;}
	.st1{fill:#3A3B38;}
	.st2{fill:#929292;}
	.st3{fill:#6B6B6B;}
	.st4{fill:#9D9D9D;}
	.st5{fill:#FFFFFF;}
	.st6{fill:#C0C0C0;}
	.st7{opacity:0.5;}
	.st8{fill:#3A3C39;}
	.st9{fill:#C22026;}
	.st10{fill:#F2F2F2;}
	.st11{fill:#9E9E9E;}
	.st12{fill:#C1C1C1;}
	.st13{fill:#D3D3D3;}
	.st14{fill:#969696;}
	.st15{opacity:0.85;}
	.st16{fill:#4D4D4D;}
	.st17{fill:none;stroke:#4D4D4D;stroke-width:1.5;stroke-miterlimit:10;}
	.st18{fill:#22BF7C;}
	.st19{fill:#FF8400;}
	.st20{fill:#B0B0B0;}
	.st21{fill:none;stroke:#FFFFFF;stroke-width:1.5;stroke-miterlimit:10;}
	.st22{fill:#CCCCCC;}
	.st23{fill:#444444;}
</style>
<g>
	<path class="st1" d="M2.5,37.9h114.3c1.4,0,2.5-1.1,2.5-2.5V2.5c0-1.4-1.1-2.5-2.5-2.5H2.5C1.1,0,0,1.1,0,2.5v32.8
		C0,36.7,1.1,37.9,2.5,37.9z"/>
</g>
<g>
	<path class="st5" d="M26.1,25.5l-1-3.2h-4.9l-1,3.2h-3.1L20.9,12h3.5l4.8,13.6H26.1z M24.4,19.9C23.5,17,23,15.4,22.9,15
		s-0.2-0.7-0.2-0.9c-0.2,0.8-0.8,2.7-1.7,5.9H24.4z"/>
	<path class="st5" d="M36.6,14.2c-1.1,0-1.9,0.4-2.5,1.2c-0.6,0.8-0.9,1.9-0.9,3.4c0,3,1.1,4.5,3.4,4.5c0.9,0,2.1-0.2,3.4-0.7V25
		c-1.1,0.5-2.3,0.7-3.7,0.7c-2,0-3.5-0.6-4.5-1.8c-1-1.2-1.6-2.9-1.6-5.1c0-1.4,0.3-2.6,0.8-3.7c0.5-1.1,1.2-1.9,2.2-2.4
		c1-0.6,2.1-0.8,3.4-0.8c1.3,0,2.6,0.3,4,1l-0.9,2.3c-0.5-0.2-1-0.5-1.5-0.6C37.6,14.3,37.1,14.2,36.6,14.2z"/>
	<path class="st5" d="M50.7,25.5H43V12h7.8v2.3h-4.9v3h4.6v2.3h-4.6v3.5h4.9V25.5z"/>
	<path class="st5" d="M62.9,16.2c0,1.5-0.5,2.6-1.4,3.3c-0.9,0.8-2.2,1.2-3.9,1.2h-1.2v4.8h-2.9V12h4.3c1.6,0,2.9,0.4,3.7,1.1
		C62.5,13.8,62.9,14.8,62.9,16.2z M56.4,18.4h0.9c0.9,0,1.5-0.2,2-0.5c0.4-0.3,0.7-0.9,0.7-1.5c0-0.7-0.2-1.2-0.5-1.5
		c-0.4-0.3-0.9-0.5-1.7-0.5h-1.3V18.4z"/>
	<path class="st5" d="M70.7,25.5h-2.9V14.4h-3.7V12h10.2v2.4h-3.7V25.5z"/>
	<path class="st5" d="M84.7,25.5l-1-3.2h-4.9l-1,3.2h-3.1L79.5,12H83l4.8,13.6H84.7z M83,19.9c-0.9-2.9-1.4-4.6-1.5-4.9
		s-0.2-0.7-0.2-0.9c-0.2,0.8-0.8,2.7-1.7,5.9H83z"/>
	<path class="st5" d="M92.3,20.4v5.2h-2.9V12h3.9c1.8,0,3.2,0.3,4.1,1c0.9,0.7,1.3,1.7,1.3,3c0,0.8-0.2,1.5-0.7,2.1
		c-0.4,0.6-1.1,1.1-1.9,1.5c2,3,3.4,5,4,5.9h-3.2l-3.2-5.2H92.3z M92.3,18h0.9c0.9,0,1.6-0.2,2-0.5c0.4-0.3,0.6-0.8,0.6-1.4
		c0-0.6-0.2-1.1-0.7-1.4c-0.4-0.3-1.1-0.4-2-0.4h-0.9V18z"/>
</g>
</svg>
