<?xml version="1.0" encoding="utf-8"?>
<!-- Generator: Adobe Illustrator 23.0.4, SVG Export Plug-In . SVG Version: 6.00 Build 0)  -->
<svg version="1.1" id="Capa_1" xmlns="http://www.w3.org/2000/svg" xmlns:xlink="http://www.w3.org/1999/xlink" x="0px" y="0px"
	 viewBox="0 0 60 60" style="enable-background:new 0 0 60 60;" xml:space="preserve">
<style type="text/css">
	.st0{fill:#3A3B38;}
	.st1{opacity:0.5;}
	.st2{fill:#FFFFFF;}
</style>
<g>
	<rect class="st0" width="60" height="60"/>
</g>
<g>
	<g class="st1">
		<path class="st2" d="M18.5,18.8h-4.9v-4.9h4.9V18.8z M15,17.3h2v-1.9h-2V17.3z"/>
	</g>
	<g>
		<path class="st2" d="M39.8,18.8H21.2v-4.9h18.6C39.8,13.9,39.8,18.8,39.8,18.8z M22.7,17.3h15.6v-1.9H22.7V17.3z"/>
	</g>
	<g class="st1">
		<path class="st2" d="M16,28.1l-3.5-3.5l3.5-3.5l3.5,3.5L16,28.1z M14.6,24.7L16,26l1.4-1.4L16,23.3L14.6,24.7z"/>
	</g>
	<g>
		<polygon class="st2" points="39.8,27.1 21.2,27.1 21.2,22.9 22.7,22.9 22.7,25.6 38.3,25.6 38.3,22.9 39.8,22.9 		"/>
	</g>
	<g>
		<path class="st2" d="M39.8,41.3H21.2V30.5h18.6C39.8,30.5,39.8,41.3,39.8,41.3z M22.7,39.8h15.6V32H22.7V39.8z"/>
	</g>
	<g class="st1">
		<path class="st2" d="M16,36c-1.7,0-3-1.4-3-3c0-1.7,1.4-3,3-3s3,1.4,3,3C19,34.6,17.7,36,16,36z M16,31.4c-0.9,0-1.5,0.7-1.5,1.5
			s0.7,1.5,1.5,1.5c0.9,0,1.5-0.7,1.5-1.5S16.8,31.4,16,31.4z"/>
	</g>
	<g>
		<rect x="24.4" y="33.4" class="st2" width="11.9" height="1.5"/>
	</g>
	<g>
		<rect x="24.4" y="36.6" class="st2" width="4.7" height="1.5"/>
	</g>
	<g>
		<rect x="44.6" y="13.9" class="st2" width="1.5" height="31.8"/>
	</g>
	<g>
		<rect x="21.2" y="44.2" class="st2" width="18.6" height="1.5"/>
	</g>
	<g class="st1">
		<rect x="13.5" y="44.2" class="st2" width="5.5" height="1.5"/>
	</g>
</g>
</svg>
