<?xml version="1.0" encoding="utf-8"?>
<!-- Generator: Adobe Illustrator 23.0.4, SVG Export Plug-In . SVG Version: 6.00 Build 0)  -->
<svg version="1.1" id="Capa_1" xmlns="http://www.w3.org/2000/svg" xmlns:xlink="http://www.w3.org/1999/xlink" x="0px" y="0px"
	 viewBox="0 0 60 60" style="enable-background:new 0 0 60 60;" xml:space="preserve">
<style type="text/css">
	.st0{fill:#3A3B38;}
	.st1{opacity:0.5;}
	.st2{fill:#FFFFFF;}
</style>
<g>
	<rect class="st0" width="60" height="60"/>
</g>
<g>
	<g class="st1">
		<path class="st2" d="M18.1,20.2h-4.9v-4.9h4.9V20.2z M14.6,18.7h1.9v-1.9h-1.9V18.7z"/>
	</g>
	<g>
		<path class="st2" d="M39.4,20.2H20.8v-4.9h18.6V20.2z M22.3,18.7h15.6v-1.9H22.3V18.7z"/>
	</g>
	<g class="st1">
		<path class="st2" d="M18.1,28.5h-4.9v-4.9h4.9V28.5z M14.6,27h1.9v-1.9h-1.9V27z"/>
	</g>
	<g>
		<path class="st2" d="M39.4,28.5H20.8v-4.9h18.6V28.5z M22.3,27h15.6v-1.9H22.3V27z"/>
	</g>
	<g class="st1">
		<path class="st2" d="M18.1,36.8h-4.9v-4.9h4.9V36.8z M14.6,35.3h1.9v-1.9h-1.9V35.3z"/>
	</g>
	<g>
		<path class="st2" d="M39.4,36.8H20.8v-4.9h18.6V36.8z M22.3,35.3h15.6v-1.9H22.3V35.3z"/>
	</g>
	<g class="st1">
		<path class="st2" d="M18.1,44.4h-4.9v-4.9h4.9V44.4z M14.6,42.9h1.9V41h-1.9V42.9z"/>
	</g>
	<g>
		<path class="st2" d="M39.4,44.4H20.8v-4.9h18.6V44.4z M22.3,42.9h15.6V41H22.3V42.9z"/>
	</g>
	<g>
		<rect x="44.2" y="14.6" class="st2" width="1.5" height="30.3"/>
	</g>
</g>
</svg>
