<?xml version="1.0" encoding="utf-8"?>
<!-- Generator: Adobe Illustrator 23.0.4, SVG Export Plug-In . SVG Version: 6.00 Build 0)  -->
<svg version="1.1" id="Capa_1" xmlns="http://www.w3.org/2000/svg" xmlns:xlink="http://www.w3.org/1999/xlink" x="0px" y="0px"
	 viewBox="0 0 60 60" style="enable-background:new 0 0 60 60;" xml:space="preserve">
<style type="text/css">
	.st0{fill:#3A3B38;}
	.st1{fill:#FFFFFF;}
	.st2{opacity:0.5;}
</style>
<g>
	<rect class="st0" width="60" height="60"/>
</g>
<g>
	<g>
		<g>
			<path class="st1" d="M23.4,45.7h-7.6c-0.4,0-0.8-0.3-0.8-0.8V14.6c0-0.4,0.3-0.8,0.8-0.8h18.7c0.2,0,0.4,0.1,0.5,0.2l6,5.3
				c0.2,0.1,0.3,0.3,0.3,0.6v6.9c0,0.4-0.3,0.8-0.8,0.8s-0.8-0.3-0.8-0.8v-6.6l-5.6-4.9H16.6v28.8h6.8c0.4,0,0.8,0.3,0.8,0.8
				S23.8,45.7,23.4,45.7z"/>
		</g>
		<g>
			<path class="st1" d="M40.6,20.7h-6c-0.4,0-0.8-0.3-0.8-0.8v-5.3c0-0.3,0.2-0.6,0.4-0.7c0.3-0.1,0.6-0.1,0.8,0.1l6,5.3
				c0.2,0.2,0.3,0.5,0.2,0.8C41.2,20.5,40.9,20.7,40.6,20.7z M35.3,19.2h3.3l-3.3-2.9V19.2z"/>
		</g>
	</g>
	<g class="st2">
		<rect x="18.7" y="20.2" class="st1" width="6.7" height="1.5"/>
	</g>
	<g>
		<rect x="18.7" y="23.4" class="st1" width="19" height="1.5"/>
	</g>
	<g>
		<rect x="18.7" y="25.8" class="st1" width="3.1" height="1.5"/>
	</g>
	<g class="st2">
		<rect x="22.6" y="25.8" class="st1" width="3.1" height="1.5"/>
	</g>
	<g>
		<rect x="26.6" y="25.8" class="st1" width="3.1" height="1.5"/>
	</g>
	<g class="st2">
		<rect x="30.6" y="25.8" class="st1" width="3.1" height="1.5"/>
	</g>
	<g>
		<rect x="34.5" y="25.8" class="st1" width="3.1" height="1.5"/>
	</g>
	<g>
		<rect x="26.6" y="28.2" class="st1" width="3.1" height="1.5"/>
	</g>
	<g class="st2">
		<rect x="30.6" y="28.2" class="st1" width="3.1" height="1.5"/>
	</g>
	<g>
		<rect x="34.5" y="28.2" class="st1" width="3.1" height="1.5"/>
	</g>
	<g>
		<rect x="18.7" y="28.2" class="st1" width="3.1" height="1.5"/>
	</g>
	<g class="st2">
		<rect x="22.6" y="28.2" class="st1" width="3.1" height="1.5"/>
	</g>
	<g class="st2">
		<rect x="22.6" y="30.6" class="st1" width="3.1" height="1.5"/>
	</g>
	<g class="st2">
		<rect x="22.6" y="33" class="st1" width="3.1" height="1.5"/>
	</g>
	<g class="st2">
		<rect x="22.6" y="35.4" class="st1" width="3.1" height="1.5"/>
	</g>
	<g class="st2">
		<rect x="22.6" y="37.9" class="st1" width="3.1" height="1.5"/>
	</g>
	<g>
		<rect x="18.7" y="30.6" class="st1" width="3.1" height="1.5"/>
	</g>
	<g>
		<rect x="18.7" y="33" class="st1" width="3.1" height="1.5"/>
	</g>
	<g>
		<rect x="18.7" y="35.4" class="st1" width="3.1" height="1.5"/>
	</g>
	<g>
		<rect x="18.7" y="37.9" class="st1" width="3.1" height="1.5"/>
	</g>
	<g>
		<path class="st1" d="M43.3,48h-16c-0.4,0-0.8-0.3-0.8-0.8s0.3-0.8,0.8-0.8h15.3V31.2c0-0.4,0.3-0.8,0.8-0.8s0.8,0.3,0.8,0.8v16
			C44.1,47.7,43.8,48,43.3,48z"/>
	</g>
	<g class="st2">
		<polygon class="st1" points="28,48 26.5,48 26.5,30.5 44.1,30.5 44.1,32 28,32 		"/>
	</g>
	<g>
		<path class="st1" d="M34.3,44.4c-0.2,0-0.5-0.1-0.7-0.3l-3.3-3c-0.4-0.4-0.4-1-0.1-1.4c0.4-0.4,1-0.4,1.4-0.1l2.5,2.3l5.8-7.2
			c0.3-0.4,1-0.5,1.4-0.2s0.5,1,0.2,1.4L35.1,44C34.9,44.3,34.7,44.4,34.3,44.4L34.3,44.4z"/>
	</g>
</g>
</svg>
