<?xml version="1.0" encoding="utf-8"?>
<!-- Generator: Adobe Illustrator 23.0.4, SVG Export Plug-In . SVG Version: 6.00 Build 0)  -->
<svg version="1.1" id="Capa_1" xmlns="http://www.w3.org/2000/svg" xmlns:xlink="http://www.w3.org/1999/xlink" x="0px" y="0px"
	 viewBox="0 0 60 60" style="enable-background:new 0 0 60 60;" xml:space="preserve">
<style type="text/css">
	.st0{fill:#3A3B38;}
	.st1{fill:#FFFFFF;}
	.st2{fill:#969696;}
</style>
<g>
	<rect class="st0" width="60" height="60"/>
</g>
<g>
	<g>
		<g>
			<g>
				<path class="st1" d="M46.8,29.6C46.7,29.6,46.7,29.6,46.8,29.6c-0.8,0-1.3-0.6-1.3-1.3v-5.6c0-0.4-0.3-0.7-0.7-0.7
					s-0.7,0.3-0.7,0.7v5.6c0,0.8,0.3,1.5,0.9,2c-0.5,0.5-0.9,1.2-0.9,2v11c0,0.7-0.6,1.3-1.3,1.3c-0.4,0-0.7,0.3-0.7,0.7
					s0.3,0.7,0.7,0.7c1.5,0,2.7-1.2,2.7-2.7v-11c0-0.7,0.5-1.2,1.2-1.3h0.1c0.4,0,0.7-0.3,0.7-0.7S47.2,29.6,46.8,29.6z"/>
			</g>
		</g>
	</g>
	<g>
		<g>
			<g>
				<path class="st1" d="M42.8,14.6c-0.4,0-0.7,0.3-0.7,0.7s0.3,0.7,0.7,0.7c0.7,0,1.3,0.6,1.3,1.3v1.1c0,0.4,0.3,0.7,0.7,0.7
					s0.7-0.3,0.7-0.7v-1.1C45.5,15.8,44.3,14.6,42.8,14.6z"/>
			</g>
		</g>
	</g>
	<g>
		<g>
			<g>
				<path class="st1" d="M16.7,44.6c-0.7,0-1.3-0.6-1.3-1.3v-11c0-0.8-0.3-1.5-0.9-2c0.5-0.5,0.9-1.2,0.9-2v-11
					c0-0.7,0.6-1.3,1.3-1.3c0.4,0,0.7-0.3,0.7-0.7s-0.3-0.7-0.7-0.7c-1.5,0-2.7,1.2-2.7,2.7v11c0,0.7-0.5,1.2-1.2,1.3h-0.1
					c-0.4,0-0.7,0.3-0.7,0.7c0,0.4,0.3,0.7,0.7,0.7h0.1c0.7,0,1.2,0.6,1.2,1.3v11c0,1.5,1.2,2.7,2.7,2.7c0.4,0,0.7-0.3,0.7-0.7
					S17.1,44.6,16.7,44.6z"/>
			</g>
		</g>
	</g>
	<g>
		<g>
			<g>
				<path class="st1" d="M22.1,17.1c-0.3-0.1-0.6,0-0.8,0.2L19.5,19c-0.3,0.3-0.3,0.7,0,1s0.7,0.3,1,0l0.6-0.6v4.2
					c0,0.4,0.3,0.7,0.7,0.7c0.4,0,0.7-0.3,0.7-0.7v-5.9C22.5,17.4,22.3,17.2,22.1,17.1z"/>
			</g>
		</g>
	</g>
	<g>
		<g>
			<g>
				<path class="st1" d="M22.1,36.3c-0.3-0.1-0.6,0-0.8,0.2l-1.8,1.8c-0.3,0.3-0.3,0.7,0,1s0.7,0.3,1,0l0.6-0.6v4.2
					c0,0.4,0.3,0.7,0.7,0.7c0.4,0,0.7-0.3,0.7-0.7V37C22.5,36.7,22.3,36.4,22.1,36.3z"/>
			</g>
		</g>
	</g>
	<g>
		<g>
			<g>
				<path class="st1" d="M28.2,36.3c-0.3-0.1-0.6,0-0.8,0.2l-1.8,1.8c-0.3,0.3-0.3,0.7,0,1s0.7,0.3,1,0l0.6-0.6v4.2
					c0,0.4,0.3,0.7,0.7,0.7c0.4,0,0.7-0.3,0.7-0.7V37C28.6,36.7,28.5,36.4,28.2,36.3z"/>
			</g>
		</g>
	</g>
	<g>
		<g>
			<g>
				<path class="st1" d="M40.3,26.7c-0.3-0.1-0.6,0-0.8,0.2l-1.8,1.8c-0.3,0.3-0.3,0.7,0,1s0.7,0.3,1,0l0.6-0.6v4.2
					c0,0.4,0.3,0.7,0.7,0.7s0.7-0.3,0.7-0.7v-5.9C40.7,27,40.6,26.8,40.3,26.7z"/>
			</g>
		</g>
	</g>
	<g>
		<g>
			<path class="st2" d="M29,19.3c0-1.3-1-2.3-2.3-2.3s-2.3,1-2.3,2.3V22c0,1.3,1,2.3,2.3,2.3s2.3-1,2.3-2.3V19.3L29,19.3z M27.6,22
				c0,0.5-0.4,0.9-0.9,0.9s-0.9-0.4-0.9-0.9v-2.7c0-0.5,0.4-0.9,0.9-0.9s0.9,0.4,0.9,0.9V22z"/>
		</g>
	</g>
	<g>
		<g>
			<g>
				<path class="st1" d="M33.9,17.1c-0.3-0.1-0.6,0-0.8,0.2L31.3,19c-0.3,0.3-0.3,0.7,0,1s0.7,0.3,1,0l0.6-0.6v4.2
					c0,0.4,0.3,0.7,0.7,0.7s0.7-0.3,0.7-0.7v-5.9C34.3,17.4,34.1,17.2,33.9,17.1z"/>
			</g>
		</g>
	</g>
	<g>
		<g>
			<g>
				<g>
					<path class="st2" d="M38.9,17c-1.3,0-2.3,1-2.3,2.3V22c0,1.3,1,2.3,2.3,2.3s2.3-1,2.3-2.3v-2.7C41.1,18,40.1,17,38.9,17z
						 M39.7,22c0,0.5-0.4,0.9-0.9,0.9S38,22.5,38,22v-2.7c0-0.5,0.4-0.9,0.9-0.9s0.9,0.4,0.9,0.9V22H39.7z"/>
				</g>
			</g>
		</g>
	</g>
	<g>
		<g>
			<path class="st2" d="M20.6,26.6c-1.3,0-2.3,1-2.3,2.3v2.7c0,1.3,1,2.3,2.3,2.3s2.3-1,2.3-2.3v-2.7C22.9,27.7,21.9,26.6,20.6,26.6
				z M21.5,31.7c0,0.5-0.4,0.9-0.9,0.9s-0.9-0.4-0.9-0.9V29c0-0.5,0.4-0.9,0.9-0.9s0.9,0.4,0.9,0.9V31.7z"/>
		</g>
	</g>
	<g>
		<g>
			<path class="st2" d="M26.7,26.6c-1.3,0-2.3,1-2.3,2.3v2.7c0,1.3,1,2.3,2.3,2.3s2.3-1,2.3-2.3v-2.7C29,27.7,28,26.6,26.7,26.6z
				 M27.6,31.7c0,0.5-0.4,0.9-0.9,0.9s-0.9-0.4-0.9-0.9V29c0-0.5,0.4-0.9,0.9-0.9s0.9,0.4,0.9,0.9V31.7z"/>
		</g>
	</g>
	<g>
		<g>
			<path class="st2" d="M32.9,26.6c-1.3,0-2.3,1-2.3,2.3v2.7c0,1.3,1,2.3,2.3,2.3s2.3-1,2.3-2.3v-2.7C35.1,27.7,34.1,26.6,32.9,26.6
				z M33.8,31.7c0,0.5-0.4,0.9-0.9,0.9S32,32.1,32,31.7V29c0-0.5,0.4-0.9,0.9-0.9s0.9,0.4,0.9,0.9C33.8,29,33.8,31.7,33.8,31.7z"/>
		</g>
	</g>
	<g>
		<g>
			<path class="st2" d="M32.9,36.3c-1.3,0-2.3,1-2.3,2.3v2.7c0,1.3,1,2.3,2.3,2.3s2.3-1,2.3-2.3v-2.7C35.1,37.3,34.1,36.3,32.9,36.3
				z M33.8,41.3c0,0.5-0.4,0.9-0.9,0.9S32,41.8,32,41.3v-2.7c0-0.5,0.4-0.9,0.9-0.9s0.9,0.4,0.9,0.9C33.8,38.6,33.8,41.3,33.8,41.3z
				"/>
		</g>
	</g>
	<g>
		<g>
			<path class="st2" d="M38.9,36.3c-1.3,0-2.3,1-2.3,2.3v2.7c0,1.3,1,2.3,2.3,2.3s2.3-1,2.3-2.3v-2.7C41.1,37.3,40.1,36.3,38.9,36.3
				z M39.7,41.3c0,0.5-0.4,0.9-0.9,0.9S38,41.8,38,41.3v-2.7c0-0.5,0.4-0.9,0.9-0.9s0.9,0.4,0.9,0.9v2.7H39.7z"/>
		</g>
	</g>
	<g>
		<g>
			<g>
				<path class="st1" d="M44.8,19.8c-0.9,0-0.9,1.4,0,1.4C45.7,21.2,45.7,19.8,44.8,19.8z"/>
			</g>
		</g>
	</g>
</g>
</svg>
