<?xml version="1.0" encoding="utf-8"?>
<!-- Generator: Adobe Illustrator 23.0.4, SVG Export Plug-In . SVG Version: 6.00 Build 0)  -->
<svg version="1.1" id="Capa_1" xmlns="http://www.w3.org/2000/svg" xmlns:xlink="http://www.w3.org/1999/xlink" x="0px" y="0px"
	 viewBox="0 0 60 60" style="enable-background:new 0 0 60 60;" xml:space="preserve">
<style type="text/css">
	.st0{fill:#3A3B38;}
	.st1{fill:#FFFFFF;}
	.st2{opacity:0.5;}
</style>
<g>
	<rect class="st0" width="60" height="60"/>
</g>
<g>
	<g>
		<path class="st1" d="M43,45.7H18.2c-0.4,0-0.8-0.3-0.8-0.8V14.6c0-0.4,0.3-0.8,0.8-0.8h18.7c0.2,0,0.4,0.1,0.5,0.2l6,5.3
			c0.2,0.1,0.3,0.3,0.3,0.6V45C43.7,45.4,43.4,45.7,43,45.7z M19,44.2h23.3v-24l-5.6-4.9H19V44.2z"/>
	</g>
	<g class="st2">
		<path class="st1" d="M40.9,47.8H16.1c-0.4,0-0.7-0.3-0.7-0.8V16.7c0-0.4,0.3-0.8,0.7-0.8s0.8,0.3,0.8,0.8v29.6h24
			c0.4,0,0.8,0.3,0.8,0.8S41.3,47.8,40.9,47.8z"/>
	</g>
	<g>
		<path class="st1" d="M43,20.7h-6c-0.4,0-0.8-0.3-0.8-0.8v-5.3c0-0.3,0.2-0.6,0.4-0.7c0.3-0.1,0.6-0.1,0.8,0.1l6,5.3
			c0.2,0.2,0.3,0.5,0.2,0.8C43.6,20.5,43.3,20.7,43,20.7z M37.7,19.2H41l-3.3-2.9V19.2z"/>
	</g>
	<g>
		<path class="st1" d="M32.6,22.1c-0.5-0.3-1-0.6-1.5-0.7v1.8c1.8,0.5,2.6,1.2,2.6,2.6l0,0c0,1.3-1,2.2-2.5,2.4v1.2H30v-1.2
			c-1-0.1-2-0.5-2.8-1.1l0.9-1.4c0.6,0.5,1.2,0.8,2,1v-1.9c-1.7-0.5-2.6-1.1-2.6-2.5l0,0c0-1.3,1-2.2,2.5-2.4v-0.7h1.2v0.7
			c0.9,0.1,1.6,0.4,2.2,0.9L32.6,22.1z M30,22.9v-1.6c-0.6,0.1-0.8,0.4-0.8,0.7l0,0C29.2,22.4,29.3,22.7,30,22.9z M31.1,25v1.7
			c0.6-0.1,0.9-0.3,0.9-0.8l0,0C32,25.5,31.8,25.2,31.1,25z"/>
	</g>
	<g class="st2">
		<rect x="21" y="31.9" class="st1" width="6.7" height="1.5"/>
	</g>
	<g>
		<rect x="21" y="35.1" class="st1" width="19" height="1.5"/>
	</g>
	<g>
		<rect x="21" y="37.5" class="st1" width="3.1" height="1.5"/>
	</g>
	<g class="st2">
		<rect x="25" y="37.5" class="st1" width="3.1" height="1.5"/>
	</g>
	<g>
		<rect x="29" y="37.5" class="st1" width="3.1" height="1.5"/>
	</g>
	<g class="st2">
		<rect x="33" y="37.5" class="st1" width="3.1" height="1.5"/>
	</g>
	<g>
		<rect x="36.9" y="37.5" class="st1" width="3.1" height="1.5"/>
	</g>
	<g>
		<rect x="21" y="39.9" class="st1" width="3.1" height="1.5"/>
	</g>
	<g class="st2">
		<rect x="25" y="39.9" class="st1" width="3.1" height="1.5"/>
	</g>
	<g>
		<rect x="29" y="39.9" class="st1" width="3.1" height="1.5"/>
	</g>
	<g class="st2">
		<rect x="33" y="39.9" class="st1" width="3.1" height="1.5"/>
	</g>
	<g>
		<rect x="36.9" y="39.9" class="st1" width="3.1" height="1.5"/>
	</g>
</g>
</svg>
