<?xml version="1.0" encoding="utf-8"?>
<!-- Generator: Adobe Illustrator 23.0.4, SVG Export Plug-In . SVG Version: 6.00 Build 0)  -->
<svg version="1.1" id="Capa_1" xmlns="http://www.w3.org/2000/svg" xmlns:xlink="http://www.w3.org/1999/xlink" x="0px" y="0px"
	 viewBox="0 0 60 60" style="enable-background:new 0 0 60 60;" xml:space="preserve">
<style type="text/css">
	.st0{fill:#3A3B38;}
	.st1{fill:#FFFFFF;}
	.st2{opacity:0.5;}
</style>
<g>
	<rect class="st0" width="60" height="60"/>
</g>
<g>
	<g>
		<g>
			<path class="st1" d="M21.1,45.7h-7.6c-0.4,0-0.8-0.3-0.8-0.8V14.6c0-0.4,0.3-0.8,0.8-0.8h18.7c0.2,0,0.4,0.1,0.5,0.2l6,5.3
				c0.2,0.1,0.3,0.3,0.3,0.6v6.9c0,0.4-0.3,0.8-0.8,0.8s-0.8-0.3-0.8-0.8v-6.6L32,15.4H14.3v28.8h6.8c0.4,0,0.8,0.3,0.8,0.8
				S21.5,45.7,21.1,45.7z"/>
		</g>
		<g>
			<path class="st1" d="M38.3,20.7h-6c-0.4,0-0.7-0.3-0.7-0.8v-5.3c0-0.3,0.2-0.6,0.4-0.7c0.3-0.1,0.6-0.1,0.8,0.1l6,5.3
				c0.2,0.2,0.3,0.5,0.2,0.8C38.9,20.5,38.6,20.7,38.3,20.7z M33,19.2h3.3L33,16.3V19.2z"/>
		</g>
	</g>
	<g class="st2">
		<rect x="16.4" y="20.2" class="st1" width="6.7" height="1.5"/>
	</g>
	<g>
		<rect x="16.4" y="23.4" class="st1" width="19" height="1.5"/>
	</g>
	<g>
		<rect x="16.4" y="25.8" class="st1" width="3.1" height="1.5"/>
	</g>
	<g class="st2">
		<rect x="20.4" y="25.8" class="st1" width="3.1" height="1.5"/>
	</g>
	<g>
		<rect x="24.3" y="25.8" class="st1" width="3.1" height="1.5"/>
	</g>
	<g class="st2">
		<rect x="28.3" y="25.8" class="st1" width="3.1" height="1.5"/>
	</g>
	<g>
		<rect x="32.3" y="25.8" class="st1" width="3.1" height="1.5"/>
	</g>
	<g>
		<rect x="16.4" y="28.2" class="st1" width="3.1" height="1.5"/>
	</g>
	<g class="st2">
		<rect x="20.4" y="28.2" class="st1" width="3.1" height="1.5"/>
	</g>
	<g>
		<rect x="16.4" y="30.6" class="st1" width="3.1" height="1.5"/>
	</g>
	<g class="st2">
		<rect x="20.4" y="30.6" class="st1" width="2.6" height="1.5"/>
	</g>
	<g>
		<rect x="16.4" y="33" class="st1" width="3.1" height="1.5"/>
	</g>
	<g class="st2">
		<rect x="20.4" y="33" class="st1" width="1.6" height="1.5"/>
	</g>
	<g>
		<rect x="16.4" y="35.4" class="st1" width="3.1" height="1.5"/>
	</g>
	<g>
		<rect x="16.4" y="37.9" class="st1" width="3.1" height="1.5"/>
	</g>
	<g class="st2">
		<polygon class="st1" points="21.9,39.4 20.4,39.4 20.4,37.9 21.9,37.9 		"/>
	</g>
	<g>
		<g>
			<path class="st1" d="M30.3,46.5c-2.6,0-5.1-1-7.1-2.9c-3.9-3.9-3.9-10.3,0-14.2s10.3-3.9,14.2,0s3.9,10.3,0,14.2l0,0
				C35.5,45.5,32.9,46.5,30.3,46.5z M30.3,27.9c-2.2,0-4.4,0.8-6,2.5c-3.3,3.3-3.3,8.8,0,12.1s8.8,3.3,12.1,0
				c3.3-3.3,3.3-8.8,0-12.1C34.7,28.7,32.5,27.9,30.3,27.9z M36.9,43L36.9,43L36.9,43z"/>
		</g>
		<g class="st2">
			<path class="st1" d="M35,32.5c-0.2,0-0.4-0.1-0.5-0.2c-1.1-1.1-2.6-1.7-4.1-1.7c-0.4,0-0.8-0.3-0.8-0.8s0.3-0.8,0.8-0.8
				c2,0,3.8,0.8,5.2,2.1c0.3,0.3,0.3,0.8,0,1.1C35.4,32.5,35.2,32.5,35,32.5z"/>
		</g>
		<g class="st2">
			<path class="st1" d="M36.9,37.2c-0.4,0-0.8-0.3-0.8-0.8S36,35.5,35.9,35c-0.1-0.4,0.2-0.8,0.6-0.9c0.4-0.1,0.8,0.1,0.9,0.6
				c0.1,0.6,0.2,1.1,0.2,1.7C37.7,36.8,37.3,37.2,36.9,37.2z"/>
		</g>
		<g>
			
				<rect x="37.8" y="41.6" transform="matrix(0.7071 -0.7071 0.7071 0.7071 -20.2268 40.3019)" class="st1" width="1.5" height="6"/>
		</g>
		<g>
			<rect x="42" y="45" transform="matrix(0.7071 -0.7071 0.7071 0.7071 -22.3569 45.287)" class="st1" width="3" height="9.2"/>
		</g>
	</g>
	<g>
		<rect x="24.3" y="28.2" class="st1" width="0.3" height="1.5"/>
	</g>
</g>
</svg>
