<?xml version="1.0" encoding="utf-8"?>
<!-- Generator: Adobe Illustrator 23.0.4, SVG Export Plug-In . SVG Version: 6.00 Build 0)  -->
<svg version="1.1" id="Capa_1" xmlns="http://www.w3.org/2000/svg" xmlns:xlink="http://www.w3.org/1999/xlink" x="0px" y="0px"
	 viewBox="0 0 60 60" style="enable-background:new 0 0 60 60;" xml:space="preserve">
<style type="text/css">
	.st0{fill:#3A3B38;}
	.st1{fill:#FFFFFF;}
</style>
<g>
	<rect class="st0" width="60" height="60"/>
</g>
<g>
	<g>
		<g>
			<g>
				<path class="st1" d="M42.1,39.7L38,38.1L35.9,36c-0.1-0.1-0.3-0.2-0.5-0.2v-1.7c1-1.1,1.7-2.4,2-3.9c0.2,0,0.4,0,0.5,0
					c1-0.2,1.7-1.1,1.7-2.2v-0.5c0-0.6-0.3-1.2-0.7-1.6c0.7-3.6,0.1-6.6-1.6-8.5c-1.7-1.9-4.3-2.8-7.7-2.6c-3.1,0.2-5.1,1.6-5.8,2.1
					c-0.3,0-0.9,0.2-1.5,0.5c-0.8,0.5-1.8,1.6-1.8,3.7c0,1.9,0.3,3.5,0.5,4.4c-0.7,0.4-1.2,1.1-1.2,2V28c0,1.1,0.7,2,1.7,2.2
					c0.2,0,0.4,0,0.5,0c0.3,1.5,1,2.8,2,3.9v1.7c-0.2,0-0.3,0.1-0.5,0.2l-2.1,2.1l-4.1,1.6c-0.4,0.1-0.7,0.3-1,0.5s-0.4,0.7-0.2,1
					c0.1,0.2,0.4,0.3,0.6,0.3c0.1,0,0.3,0,0.4-0.1c0.2-0.1,0.5-0.3,0.7-0.4l3.8-1.5l2.9,4.4c0.4,0.5,0.9,0.9,1.6,1
					c0.1,0,0.1,0,0.2,0c0.4,0,0.7-0.1,1.1-0.3l-0.6,3.5c0,0.4,0.3,0.8,0.7,0.8l0,0c0.4,0,0.7-0.3,0.8-0.7l0.6-2.5h1.6l0.6,2.5
					c0,0.4,0.4,0.7,0.8,0.7l0,0c0.4,0,0.7-0.4,0.7-0.8L32,44.6c0.3,0.2,0.7,0.3,1.1,0.3c0.1,0,0.1,0,0.2,0c0.6-0.1,1.2-0.4,1.6-1
					l2.9-4.4l3.8,1.5C42.1,41.3,42.9,40.1,42.1,39.7z M23.5,29.9c-0.2-0.7-0.8-1.2-1.5-1.2c-0.1,0-0.1,0-0.2,0
					c-0.3-0.1-0.5-0.4-0.5-0.7v-0.5c0-0.3,0.2-0.7,0.5-0.7s0.5,0,0.6,0.2s0.3,0.3,0.5,0.4c0.3,0.1,0.6,0,0.9-0.1
					c0.5-0.3,0.9-0.7,1.2-1.2c0.2-0.3,0.2-0.8-0.2-1.1c-0.3-0.2-0.8-0.2-1.1,0.2c-0.2,0.2-0.4,0.4-0.6,0.6c-0.2-0.2-0.5-0.4-0.8-0.4
					c0-0.8-0.3-2.4-0.3-4.3c0-1.2,0.4-2,1.1-2.4c0.5-0.3,1.1-0.4,1.1-0.4c0.2,0,0.4-0.1,0.5-0.2c0,0,1.9-1.7,5-1.9
					c2.9-0.2,5.1,0.6,6.5,2.1c1.3,1.6,1.8,3.9,1.3,6.9c-0.2,0-0.4,0-0.6,0l-0.7-1.7c-0.1-0.3-0.5-0.5-0.9-0.4c-0.1,0-7,1.8-9.9-1.8
					c-0.3-0.3-0.7-0.4-1.1-0.1c-0.3,0.3-0.4,0.7-0.1,1.1c3,3.7,8.9,2.9,10.9,2.5l0.5,1.3c0.2,0.6,0.8,0.9,1.4,0.7
					c0.2-0.1,0.5-0.1,0.6,0c0.3,0.1,0.5,0.4,0.5,0.7V28c0,0.4-0.2,0.7-0.5,0.7c-0.1,0-0.1,0-0.2,0c-0.7-0.1-1.4,0.5-1.5,1.2
					c-0.7,4-5.1,6.5-9.3,4.4C24.9,33.4,23.9,31.7,23.5,29.9z M26.9,43.2c-0.2,0.2-0.4,0.2-0.5,0.2s-0.3-0.1-0.5-0.3L23,38.7l1.2-1.2
					l4.5,3.9L26.9,43.2z M29,44.2v-1l0.7-0.7l0.7,0.7v1H29z M29.7,40.5l-4.2-3.7v-1.4c1.2,0.8,2.7,1.2,4.2,1.2s3-0.4,4.2-1.2v1.4
					L29.7,40.5z M33.6,43.1c-0.1,0.2-0.4,0.3-0.5,0.3s-0.3,0-0.5-0.2l-1.7-1.7l4.5-3.9l1.2,1.2L33.6,43.1z"/>
				<path class="st1" d="M31.8,49.1c-0.5,0-0.8-0.4-0.9-0.8l-0.6-2.4H29l-0.6,2.4c0,0.4-0.4,0.8-0.8,0.8l0,0c-0.5,0-0.8-0.4-0.8-0.9
					l0.6-3.3C27,45,26.6,45.1,26.2,45c-0.7-0.1-1.3-0.4-1.7-1l-2.9-4.3l-3.7,1.4c-0.2,0.1-0.5,0.2-0.7,0.4c-0.1,0.1-0.3,0.1-0.5,0.1
					c-0.3,0-0.5-0.1-0.7-0.4c-0.3-0.4-0.2-0.9,0.2-1.2c0.3-0.2,0.7-0.4,1-0.5l4.1-1.6l2.1-2.1c0.1-0.1,0.3-0.2,0.5-0.2v-1.5
					c-1-1.1-1.7-2.4-2-3.8c-0.1,0-0.3,0-0.5,0c-1-0.2-1.8-1.2-1.8-2.3v-0.5c0-0.9,0.5-1.7,1.2-2.1c-0.2-1-0.5-2.5-0.5-4.3
					c0-2.2,1-3.3,1.9-3.8c0.6-0.4,1.2-0.5,1.6-0.5c0.7-0.6,2.7-2,5.8-2.1c3.4-0.2,6.1,0.7,7.8,2.7s2.3,4.9,1.6,8.6
					c0.4,0.4,0.7,1,0.7,1.6V28c0,1.1-0.8,2.1-1.8,2.3c-0.2,0-0.3,0-0.5,0l0,0c-0.3,1.4-1,2.7-2,3.8v1.5c0.2,0,0.3,0.1,0.5,0.2L38,38
					l4.1,1.6c0.5,0.2,0.5,0.7,0.3,1c-0.2,0.4-0.6,0.7-1,0.6l-3.7-1.4L34.9,44c-0.4,0.6-1,0.9-1.7,1c-0.4,0-0.8,0-1.2-0.2l0.6,3.3
					c0,0.2-0.1,0.5-0.2,0.6C32.3,48.9,32.1,49,31.8,49.1L31.8,49.1z M28.8,45.6h1.7v0.1l0.6,2.5c0,0.4,0.3,0.6,0.7,0.6l0,0
					c0.2,0,0.3-0.1,0.5-0.2c0.1-0.1,0.2-0.3,0.2-0.5l-0.7-3.7l0.2,0.1c0.4,0.2,0.8,0.3,1.2,0.3c0.6-0.1,1.2-0.4,1.5-0.9l3-4.4
					l3.9,1.5c0.2,0.1,0.6-0.2,0.7-0.5c0.1-0.1,0.2-0.5-0.2-0.7L38,38.2l-2.1-2.1c-0.1-0.1-0.3-0.2-0.4-0.2h-0.1v-1.8l0,0
					c1-1.1,1.7-2.4,1.9-3.8v-0.1h0.1c0.2,0,0.3,0,0.5,0c1-0.2,1.6-1.1,1.6-2.1v-0.5c0-0.6-0.2-1.1-0.6-1.5l0,0V26
					c0.7-3.6,0.1-6.5-1.6-8.5c-1.6-1.9-4.3-2.8-7.6-2.6c-3.1,0.2-5,1.5-5.7,2.1l0,0l0,0c-0.4,0-0.9,0.2-1.5,0.5
					c-0.8,0.5-1.8,1.5-1.8,3.6c0,1.8,0.3,3.4,0.5,4.4v0.1h-0.1c-0.7,0.3-1.2,1.1-1.2,1.9V28c0,1,0.7,1.9,1.7,2.1c0.2,0,0.3,0,0.5,0
					h0.1v0.1c0.3,1.4,0.9,2.8,1.9,3.8l0,0v1.8H24c-0.2,0-0.3,0.1-0.4,0.2l-2.1,2.1l-4.1,1.6c-0.3,0.1-0.7,0.3-1,0.5
					s-0.4,0.6-0.2,0.9c0.2,0.3,0.6,0.4,0.9,0.2c0.2-0.2,0.5-0.3,0.7-0.4l3.9-1.5v0.1l2.9,4.4c0.3,0.5,0.9,0.8,1.5,0.9
					c0.4,0,0.8,0,1.2-0.3l0.2-0.1l-0.7,3.7c0,0.3,0.3,0.7,0.6,0.7l0,0c0.4,0,0.6-0.3,0.7-0.6L28.8,45.6z M30.5,44.3h-1.6l0.1-1.2
					l0,0l0.7-0.7l0.8,0.8l0,0V44.3z M29.1,44.1h1.2v-0.9l-0.6-0.6l-0.6,0.6V44.1z M26.4,43.5C26.4,43.5,26.3,43.5,26.4,43.5
					c-0.2,0-0.5-0.1-0.6-0.3l-3-4.5l1.3-1.3l4.7,4.1L27,43.3C26.8,43.5,26.5,43.5,26.4,43.5z M23.1,38.8l2.9,4.3
					c0.1,0.2,0.3,0.2,0.4,0.2s0.3,0,0.4-0.2l0,0l1.7-1.7l-4.3-3.8L23.1,38.8z M33,43.5c-0.1,0-0.3,0-0.5-0.2l-1.8-1.8l0.1-0.1l4.6-4
					l1.3,1.3v0.1l-2.9,4.4C33.5,43.5,33.2,43.5,33,43.5C33.1,43.5,33,43.5,33,43.5z M31,41.5l1.7,1.7c0.2,0.2,0.3,0.2,0.4,0.2
					c0.1,0,0.3-0.1,0.4-0.2l0,0l2.9-4.3l-1.1-1.1L31,41.5z M29.7,40.6L29.7,40.6l-4.3-3.7v-1.7l0.2,0.1c1.2,0.8,2.7,1.2,4.1,1.2
					c1.5,0,2.9-0.4,4.1-1.2l0.2-0.1v1.7L29.7,40.6z M25.6,36.8l4.1,3.6l4.1-3.6v-1.2c-1.2,0.7-2.6,1.1-4.1,1.1
					c-1.4,0-2.8-0.4-4.1-1.1C25.6,35.6,25.6,36.8,25.6,36.8z M29.7,35.2c-1.1,0-2.2-0.3-3.2-0.8c-1.5-0.8-2.6-2.4-3.1-4.5l0,0
					c-0.1-0.7-0.8-1.1-1.4-1.1c-0.1,0-0.1,0-0.2,0c-0.3-0.1-0.6-0.4-0.6-0.8v-0.5c0-0.4,0.3-0.8,0.6-0.8c0.3-0.1,0.6,0.1,0.7,0.3
					c0.1,0.2,0.3,0.3,0.5,0.3c0.3,0.1,0.6,0,0.8-0.1c0.5-0.3,0.9-0.7,1.2-1.2c0.2-0.3,0.2-0.7-0.1-0.9C24.8,25,24.6,25,24.4,25
					s-0.3,0.1-0.4,0.3c-0.2,0.2-0.4,0.5-0.6,0.6L23.3,26l-0.1-0.1c-0.2-0.2-0.5-0.3-0.8-0.4h-0.1v-0.1c-0.2-0.8-0.5-2.4-0.5-4.3
					c0-1.2,0.4-2,1.1-2.5c0.6-0.4,1.2-0.4,1.2-0.4c0.2,0,0.3-0.1,0.5-0.2c0,0,1.9-1.8,5.1-1.9c2.9-0.2,5.2,0.6,6.6,2.2
					c1.4,1.6,1.8,4,1.3,7v0.1h-0.1c-0.2,0-0.4,0-0.6,0h-0.1v-0.1l-0.7-1.7c-0.1-0.3-0.5-0.5-0.8-0.4c-0.1,0-7.1,1.8-10-1.9
					c-0.1-0.1-0.3-0.2-0.4-0.2c-0.2,0-0.3,0-0.5,0.1s-0.2,0.3-0.2,0.4c0,0.2,0,0.3,0.1,0.5c3,3.7,9,2.8,10.8,2.5h0.1l0.6,1.4
					c0.2,0.5,0.8,0.8,1.3,0.7c0.2-0.1,0.5-0.1,0.6,0c0.4,0.1,0.6,0.4,0.6,0.8V28c0,0.4-0.3,0.8-0.6,0.8c-0.1,0-0.1,0-0.2,0h-0.1
					c-0.6,0-1.2,0.5-1.3,1.1c-0.4,2-1.7,3.7-3.5,4.6C31.6,35,30.7,35.2,29.7,35.2z M22.1,28.6c0.7,0,1.4,0.5,1.5,1.2
					c0.4,2,1.5,3.6,3,4.3c1.9,1,4,1,5.8,0.2c1.7-0.9,3-2.5,3.4-4.4c0.1-0.7,0.8-1.3,1.5-1.3h0.1h0.1c0.3-0.1,0.4-0.3,0.4-0.6v-0.5
					c0-0.3-0.2-0.6-0.5-0.6c-0.1,0-0.3,0-0.5,0c-0.6,0.1-1.3-0.2-1.5-0.8L35,24.8c-1.9,0.4-7.9,1.2-10.9-2.6
					c-0.1-0.2-0.2-0.4-0.2-0.6s0.1-0.4,0.3-0.6c0.2-0.1,0.4-0.2,0.6-0.2s0.4,0.1,0.6,0.3c2.9,3.6,9.8,1.8,9.8,1.8
					c0.4-0.1,0.8,0.1,1,0.5l0.7,1.6c0.2,0,0.3,0,0.5,0c0.5-2.9,0-5.3-1.3-6.8s-3.5-2.2-6.4-2.1c-3.1,0.2-5,1.9-5,1.9
					c-0.2,0.1-0.4,0.2-0.6,0.2c0,0-0.6,0-1.1,0.3c-0.7,0.4-1,1.2-1,2.3c0,1.8,0.3,3.4,0.5,4.2c0.3,0.1,0.5,0.2,0.7,0.4
					c0.2-0.2,0.4-0.4,0.5-0.6s0.3-0.3,0.6-0.3c0.2,0,0.5,0,0.6,0.2c0.4,0.3,0.5,0.8,0.2,1.2c-0.4,0.5-0.8,0.9-1.3,1.2
					c-0.3,0.2-0.7,0.3-1,0.2c-0.2-0.1-0.4-0.2-0.6-0.4c-0.1-0.2-0.3-0.2-0.5-0.2c-0.3,0-0.4,0.3-0.4,0.6V28c0,0.3,0.2,0.6,0.4,0.6
					c0.1,0,0.1,0,0.1,0C22,28.6,22.1,28.6,22.1,28.6z"/>
			</g>
		</g>
	</g>
	<g>
		<path class="st1" d="M44.7,48.8c-0.4,0-0.8-0.3-0.8-0.8v-4.1c0-1-0.6-1.9-1.5-2.3l-0.8-0.4c-0.4-0.2-0.5-0.6-0.4-1
			c0.2-0.4,0.6-0.5,1-0.4l0.8,0.4c1.4,0.7,2.3,2.1,2.3,3.7V48C45.4,48.4,45.1,48.8,44.7,48.8z"/>
	</g>
	<g>
		<path class="st1" d="M14.7,48.8c-0.4,0-0.8-0.3-0.8-0.8v-4.1c0-1.6,0.9-3,2.3-3.7l0.8-0.4c0.4-0.2,0.8,0,1,0.4s0,0.8-0.4,1
			l-0.8,0.4c-0.9,0.4-1.5,1.4-1.5,2.3V48C15.4,48.4,15.1,48.8,14.7,48.8z"/>
	</g>
</g>
</svg>
