<?xml version="1.0" encoding="UTF-8"?>
<svg width="35px" height="33px" viewBox="0 0 35 33" version="1.1" xmlns="http://www.w3.org/2000/svg" xmlns:xlink="http://www.w3.org/1999/xlink">
    <!-- Generator: Sketch 54.1 (76490) - https://sketchapp.com -->
    <title>advancedreport_icondarkbg</title>
    <desc>Created with Sketch.</desc>
    <g id="Page-1" stroke="none" stroke-width="1" fill="none" fill-rule="evenodd">
        <g id="advancedreport_icondarkbg" fill="#FFFFFF" fill-rule="nonzero">
            <g id="Group">
                <g opacity="0.5" transform="translate(1.000000, 0.000000)" id="Shape">
                    <path d="M5.5,5.8 L0.6,5.8 L0.6,0.9 L5.5,0.9 L5.5,5.8 Z M2,4.3 L4,4.3 L4,2.4 L2,2.4 L2,4.3 Z"></path>
                </g>
                <path d="M27.8,5.8 L9.2,5.8 L9.2,0.9 L27.8,0.9 C27.8,0.9 27.8,5.8 27.8,5.8 Z M10.7,4.3 L26.3,4.3 L26.3,2.4 L10.7,2.4 L10.7,4.3 Z" id="Shape"></path>
                <g opacity="0.5" transform="translate(0.000000, 8.000000)" id="Shape">
                    <path d="M4,7.1 L0.5,3.6 L4,0.1 L7.5,3.6 L4,7.1 Z M2.6,3.7 L4,5 L5.4,3.6 L4,2.3 L2.6,3.7 Z"></path>
                </g>
                <polygon id="Path" points="27.8 14.1 9.2 14.1 9.2 9.9 10.7 9.9 10.7 12.6 26.3 12.6 26.3 9.9 27.8 9.9"></polygon>
                <path d="M27.8,28.3 L9.2,28.3 L9.2,17.5 L27.8,17.5 C27.8,17.5 27.8,28.3 27.8,28.3 Z M10.7,26.8 L26.3,26.8 L26.3,19 L10.7,19 L10.7,26.8 Z" id="Shape"></path>
                <g opacity="0.5" transform="translate(1.000000, 17.000000)" id="Shape">
                    <path d="M3,6 C1.3,6 0,4.6 0,3 C0,1.3 1.4,0 3,0 C4.6,0 6,1.4 6,3 C6,4.6 4.7,6 3,6 Z M3,1.4 C2.1,1.4 1.5,2.1 1.5,2.9 C1.5,3.7 2.2,4.4 3,4.4 C3.9,4.4 4.5,3.7 4.5,2.9 C4.5,2.1 3.8,1.4 3,1.4 Z"></path>
                </g>
                <rect id="Rectangle" x="12.4" y="20.4" width="11.9" height="1.5"></rect>
                <rect id="Rectangle" x="12.4" y="23.6" width="4.7" height="1.5"></rect>
                <rect id="Rectangle" x="32.6" y="0.9" width="1.5" height="31.8"></rect>
                <rect id="Rectangle" x="9.2" y="31.2" width="18.6" height="1.5"></rect>
                <g opacity="0.5" transform="translate(1.000000, 31.000000)" id="Rectangle">
                    <rect x="0.5" y="0.2" width="5.5" height="1.5"></rect>
                </g>
            </g>
        </g>
    </g>
</svg>