<?xml version="1.0" encoding="UTF-8"?>
<svg width="33px" height="31px" viewBox="0 0 33 31" version="1.1" xmlns="http://www.w3.org/2000/svg" xmlns:xlink="http://www.w3.org/1999/xlink">
    <!-- Generator: Sketch 54.1 (76490) - https://sketchapp.com -->
    <title>_basicrespor_icondarkbg</title>
    <desc>Created with Sketch.</desc>
    <g id="Page-1" stroke="none" stroke-width="1" fill="none" fill-rule="evenodd">
        <g id="_basicrespor_icondarkbg" fill="#FFFFFF" fill-rule="nonzero">
            <g id="Group">
                <g opacity="0.5" transform="translate(0.000000, 1.000000)" id="Shape">
                    <path d="M5.1,5.2 L0.2,5.2 L0.2,0.3 L5.1,0.3 L5.1,5.2 Z M1.6,3.7 L3.5,3.7 L3.5,1.8 L1.6,1.8 L1.6,3.7 Z"></path>
                </g>
                <path d="M26.4,6.2 L7.8,6.2 L7.8,1.3 L26.4,1.3 L26.4,6.2 L26.4,6.2 Z M9.3,4.7 L24.9,4.7 L24.9,2.8 L9.3,2.8 L9.3,4.7 Z" id="Shape"></path>
                <g opacity="0.5" transform="translate(0.000000, 9.000000)" id="Shape">
                    <path d="M5.1,5.5 L0.2,5.5 L0.2,0.6 L5.1,0.6 L5.1,5.5 Z M1.6,4 L3.5,4 L3.5,2.1 L1.6,2.1 L1.6,4 Z"></path>
                </g>
                <path d="M26.4,14.5 L7.8,14.5 L7.8,9.6 L26.4,9.6 L26.4,14.5 L26.4,14.5 Z M9.3,13 L24.9,13 L24.9,11.1 L9.3,11.1 L9.3,13 Z" id="Shape"></path>
                <g opacity="0.5" transform="translate(0.000000, 17.000000)" id="Shape">
                    <path d="M5.1,5.8 L0.2,5.8 L0.2,0.9 L5.1,0.9 L5.1,5.8 Z M1.6,4.3 L3.5,4.3 L3.5,2.4 L1.6,2.4 L1.6,4.3 Z"></path>
                </g>
                <path d="M26.4,22.8 L7.8,22.8 L7.8,17.9 L26.4,17.9 L26.4,22.8 L26.4,22.8 Z M9.3,21.3 L24.9,21.3 L24.9,19.4 L9.3,19.4 L9.3,21.3 Z" id="Shape"></path>
                <g opacity="0.5" transform="translate(0.000000, 25.000000)" id="Shape">
                    <path d="M5.1,5.4 L0.2,5.4 L0.2,0.5 L5.1,0.5 L5.1,5.4 Z M1.6,3.9 L3.5,3.9 L3.5,2 L1.6,2 L1.6,3.9 Z"></path>
                </g>
                <path d="M26.4,30.4 L7.8,30.4 L7.8,25.5 L26.4,25.5 L26.4,30.4 L26.4,30.4 Z M9.3,28.9 L24.9,28.9 L24.9,27 L9.3,27 L9.3,28.9 Z" id="Shape"></path>
                <rect id="Rectangle" x="31.2" y="0.6" width="1.5" height="30.3"></rect>
            </g>
        </g>
    </g>
</svg>