<?xml version="1.0" encoding="UTF-8"?>
<svg width="30px" height="35px" viewBox="0 0 30 35" version="1.1" xmlns="http://www.w3.org/2000/svg" xmlns:xlink="http://www.w3.org/1999/xlink">
    <!-- Generator: Sketch 54.1 (76490) - https://sketchapp.com -->
    <title>_completedreports_icondarkbg</title>
    <desc>Created with Sketch.</desc>
    <g id="Page-1" stroke="none" stroke-width="1" fill="none" fill-rule="evenodd">
        <g id="_completedreports_icondarkbg" fill="#FFFFFF" fill-rule="nonzero">
            <g id="Group">
                <g>
                    <path d="M8.4,32.7 L0.8,32.7 C0.4,32.7 -1.77635684e-15,32.4 -1.77635684e-15,31.9 L-1.77635684e-15,1.6 C-1.77635684e-15,1.2 0.3,0.8 0.8,0.8 L19.5,0.8 C19.7,0.8 19.9,0.9 20,1 L26,6.3 C26.2,6.4 26.3,6.6 26.3,6.9 L26.3,13.8 C26.3,14.2 26,14.6 25.5,14.6 C25,14.6 24.7,14.3 24.7,13.8 L24.7,7.2 L19.1,2.3 L1.6,2.3 L1.6,31.1 L8.4,31.1 C8.8,31.1 9.2,31.4 9.2,31.9 C9.2,32.4 8.8,32.7 8.4,32.7 Z" id="Path"></path>
                    <path d="M25.6,7.7 L19.6,7.7 C19.2,7.7 18.8,7.4 18.8,6.9 L18.8,1.6 C18.8,1.3 19,1 19.2,0.9 C19.5,0.8 19.8,0.8 20,1 L26,6.3 C26.2,6.5 26.3,6.8 26.2,7.1 C26.2,7.5 25.9,7.7 25.6,7.7 Z M20.3,6.2 L23.6,6.2 L20.3,3.3 L20.3,6.2 Z" id="Shape"></path>
                </g>
                <g opacity="0.5" transform="translate(3.000000, 7.000000)" id="Rectangle">
                    <rect x="0.7" y="0.2" width="6.7" height="1.5"></rect>
                </g>
                <rect id="Rectangle" x="3.7" y="10.4" width="19" height="1.5"></rect>
                <rect id="Rectangle" x="3.7" y="12.8" width="3.1" height="1.5"></rect>
                <g opacity="0.5" transform="translate(7.000000, 12.000000)" id="Rectangle">
                    <rect x="0.6" y="0.8" width="3.1" height="1.5"></rect>
                </g>
                <rect id="Rectangle" x="11.6" y="12.8" width="3.1" height="1.5"></rect>
                <g opacity="0.5" transform="translate(15.000000, 12.000000)" id="Rectangle">
                    <rect x="0.6" y="0.8" width="3.1" height="1.5"></rect>
                </g>
                <rect id="Rectangle" x="19.5" y="12.8" width="3.1" height="1.5"></rect>
                <rect id="Rectangle" x="11.6" y="15.2" width="3.1" height="1.5"></rect>
                <g opacity="0.5" transform="translate(15.000000, 15.000000)" id="Rectangle">
                    <rect x="0.6" y="0.2" width="3.1" height="1.5"></rect>
                </g>
                <rect id="Rectangle" x="19.5" y="15.2" width="3.1" height="1.5"></rect>
                <rect id="Rectangle" x="3.7" y="15.2" width="3.1" height="1.5"></rect>
                <g opacity="0.5" transform="translate(7.000000, 15.000000)" id="Rectangle">
                    <rect x="0.6" y="0.2" width="3.1" height="1.5"></rect>
                </g>
                <g opacity="0.5" transform="translate(7.000000, 17.000000)" id="Rectangle">
                    <rect x="0.6" y="0.6" width="3.1" height="1.5"></rect>
                </g>
                <g opacity="0.5" transform="translate(7.000000, 20.000000)" id="Rectangle">
                    <rect x="0.6" y="0" width="3.1" height="1.5"></rect>
                </g>
                <g opacity="0.5" transform="translate(7.000000, 22.000000)" id="Rectangle">
                    <rect x="0.6" y="0.4" width="3.1" height="1.5"></rect>
                </g>
                <g opacity="0.5" transform="translate(7.000000, 24.000000)" id="Rectangle">
                    <rect x="0.6" y="0.9" width="3.1" height="1.5"></rect>
                </g>
                <rect id="Rectangle" x="3.7" y="17.6" width="3.1" height="1.5"></rect>
                <rect id="Rectangle" x="3.7" y="20" width="3.1" height="1.5"></rect>
                <rect id="Rectangle" x="3.7" y="22.4" width="3.1" height="1.5"></rect>
                <rect id="Rectangle" x="3.7" y="24.9" width="3.1" height="1.5"></rect>
                <path d="M28.3,35 L12.3,35 C11.9,35 11.5,34.7 11.5,34.2 C11.5,33.7 11.8,33.4 12.3,33.4 L27.6,33.4 L27.6,18.2 C27.6,17.8 27.9,17.4 28.4,17.4 C28.9,17.4 29.2,17.7 29.2,18.2 L29.2,34.2 C29.1,34.7 28.8,35 28.3,35 Z" id="Path"></path>
                <g opacity="0.5" transform="translate(11.000000, 17.000000)" id="Path">
                    <polygon points="2 18 0.5 18 0.5 0.5 18.1 0.5 18.1 2 2 2"></polygon>
                </g>
                <path d="M19.3,31.4 C19.1,31.4 18.8,31.3 18.6,31.1 L15.3,28.1 C14.9,27.7 14.9,27.1 15.2,26.7 C15.6,26.3 16.2,26.3 16.6,26.6 L19.1,28.9 L24.9,21.7 C25.2,21.3 25.9,21.2 26.3,21.5 C26.7,21.8 26.8,22.5 26.5,22.9 L20.1,31 C19.9,31.3 19.7,31.4 19.3,31.4 L19.3,31.4 Z" id="Path"></path>
            </g>
        </g>
    </g>
</svg>