<?xml version="1.0" encoding="UTF-8"?>
<svg width="36px" height="32px" viewBox="0 0 36 32" version="1.1" xmlns="http://www.w3.org/2000/svg" xmlns:xlink="http://www.w3.org/1999/xlink">
    <!-- Generator: Sketch 54.1 (76490) - https://sketchapp.com -->
    <title>_configuration_icondarkbg</title>
    <desc>Created with Sketch.</desc>
    <g id="Page-1" stroke="none" stroke-width="1" fill="none" fill-rule="evenodd">
        <g id="_configuration_icondarkbg" fill-rule="nonzero">
            <g id="Group">
                <path d="M34.8,15.6 C34.7,15.6 34.7,15.6 34.8,15.6 C34,15.6 33.5,15 33.5,14.3 L33.5,8.7 C33.5,8.3 33.2,8 32.8,8 C32.4,8 32.1,8.3 32.1,8.7 L32.1,14.3 C32.1,15.1 32.4,15.8 33,16.3 C32.5,16.8 32.1,17.5 32.1,18.3 L32.1,29.3 C32.1,30 31.5,30.6 30.8,30.6 C30.4,30.6 30.1,30.9 30.1,31.3 C30.1,31.7 30.4,32 30.8,32 C32.3,32 33.5,30.8 33.5,29.3 L33.5,18.3 C33.5,17.6 34,17.1 34.7,17 L34.8,17 C35.2,17 35.5,16.7 35.5,16.3 C35.5,15.9 35.2,15.6 34.8,15.6 Z" id="Path" fill="#FFFFFF"></path>
                <path d="M30.8,0.6 C30.4,0.6 30.1,0.9 30.1,1.3 C30.1,1.7 30.4,2 30.8,2 C31.5,2 32.1,2.6 32.1,3.3 L32.1,4.4 C32.1,4.8 32.4,5.1 32.8,5.1 C33.2,5.1 33.5,4.8 33.5,4.4 L33.5,3.3 C33.5,1.8 32.3,0.6 30.8,0.6 Z" id="Path" fill="#FFFFFF"></path>
                <path d="M4.7,30.6 C4,30.6 3.4,30 3.4,29.3 L3.4,18.3 C3.4,17.5 3.1,16.8 2.5,16.3 C3,15.8 3.4,15.1 3.4,14.3 L3.4,3.3 C3.4,2.6 4,2 4.7,2 C5.1,2 5.4,1.7 5.4,1.3 C5.4,0.9 5.1,0.6 4.7,0.6 C3.2,0.6 2,1.8 2,3.3 L2,14.3 C2,15 1.5,15.5 0.8,15.6 L0.7,15.6 C0.3,15.6 1.77635684e-15,15.9 1.77635684e-15,16.3 C1.77635684e-15,16.7 0.3,17 0.7,17 L0.8,17 C1.5,17 2,17.6 2,18.3 L2,29.3 C2,30.8 3.2,32 4.7,32 C5.1,32 5.4,31.7 5.4,31.3 C5.4,30.9 5.1,30.6 4.7,30.6 Z" id="Path" fill="#FFFFFF"></path>
                <path d="M10.1,3.1 C9.8,3 9.5,3.1 9.3,3.3 L7.5,5 C7.2,5.3 7.2,5.7 7.5,6 C7.8,6.3 8.2,6.3 8.5,6 L9.1,5.4 L9.1,9.6 C9.1,10 9.4,10.3 9.8,10.3 C10.2,10.3 10.5,10 10.5,9.6 L10.5,3.7 C10.5,3.4 10.3,3.2 10.1,3.1 Z" id="Path" fill="#FFFFFF"></path>
                <path d="M10.1,22.3 C9.8,22.2 9.5,22.3 9.3,22.5 L7.5,24.3 C7.2,24.6 7.2,25 7.5,25.3 C7.8,25.6 8.2,25.6 8.5,25.3 L9.1,24.7 L9.1,28.9 C9.1,29.3 9.4,29.6 9.8,29.6 C10.2,29.6 10.5,29.3 10.5,28.9 L10.5,23 C10.5,22.7 10.3,22.4 10.1,22.3 Z" id="Path" fill="#FFFFFF"></path>
                <path d="M16.2,22.3 C15.9,22.2 15.6,22.3 15.4,22.5 L13.6,24.3 C13.3,24.6 13.3,25 13.6,25.3 C13.9,25.6 14.3,25.6 14.6,25.3 L15.2,24.7 L15.2,28.9 C15.2,29.3 15.5,29.6 15.9,29.6 C16.3,29.6 16.6,29.3 16.6,28.9 L16.6,23 C16.6,22.7 16.5,22.4 16.2,22.3 Z" id="Path" fill="#FFFFFF"></path>
                <path d="M28.3,12.7 C28,12.6 27.7,12.7 27.5,12.9 L25.7,14.7 C25.4,15 25.4,15.4 25.7,15.7 C26,16 26.4,16 26.7,15.7 L27.3,15.1 L27.3,19.3 C27.3,19.7 27.6,20 28,20 C28.4,20 28.7,19.7 28.7,19.3 L28.7,13.4 C28.7,13 28.6,12.8 28.3,12.7 Z" id="Path" fill="#FFFFFF"></path>
                <path d="M17,5.3 C17,4 16,3 14.7,3 C13.4,3 12.4,4 12.4,5.3 L12.4,8 C12.4,9.3 13.4,10.3 14.7,10.3 C16,10.3 17,9.3 17,8 L17,5.3 L17,5.3 Z M15.6,8 C15.6,8.5 15.2,8.9 14.7,8.9 C14.2,8.9 13.8,8.5 13.8,8 L13.8,5.3 C13.8,4.8 14.2,4.4 14.7,4.4 C15.2,4.4 15.6,4.8 15.6,5.3 L15.6,8 Z" id="Shape" fill="#969696"></path>
                <path d="M21.9,3.1 C21.6,3 21.3,3.1 21.1,3.3 L19.3,5 C19,5.3 19,5.7 19.3,6 C19.6,6.3 20,6.3 20.3,6 L20.9,5.4 L20.9,9.6 C20.9,10 21.2,10.3 21.6,10.3 C22,10.3 22.3,10 22.3,9.6 L22.3,3.7 C22.3,3.4 22.1,3.2 21.9,3.1 Z" id="Path" fill="#FFFFFF"></path>
                <path d="M26.9,3 C25.6,3 24.6,4 24.6,5.3 L24.6,8 C24.6,9.3 25.6,10.3 26.9,10.3 C28.2,10.3 29.2,9.3 29.2,8 L29.2,5.3 C29.1,4 28.1,3 26.9,3 Z M27.7,8 C27.7,8.5 27.3,8.9 26.8,8.9 C26.3,8.9 26,8.5 26,8 L26,5.3 C26,4.8 26.4,4.4 26.9,4.4 C27.4,4.4 27.8,4.8 27.8,5.3 L27.8,8 L27.7,8 Z" id="Shape" fill="#969696"></path>
                <path d="M8.6,12.6 C7.3,12.6 6.3,13.6 6.3,14.9 L6.3,17.6 C6.3,18.9 7.3,19.9 8.6,19.9 C9.9,19.9 10.9,18.9 10.9,17.6 L10.9,14.9 C10.9,13.7 9.9,12.6 8.6,12.6 Z M9.5,17.7 C9.5,18.2 9.1,18.6 8.6,18.6 C8.1,18.6 7.7,18.2 7.7,17.7 L7.7,15 C7.7,14.5 8.1,14.1 8.6,14.1 C9.1,14.1 9.5,14.5 9.5,15 L9.5,17.7 Z" id="Shape" fill="#969696"></path>
                <path d="M14.7,12.6 C13.4,12.6 12.4,13.6 12.4,14.9 L12.4,17.6 C12.4,18.9 13.4,19.9 14.7,19.9 C16,19.9 17,18.9 17,17.6 L17,14.9 C17,13.7 16,12.6 14.7,12.6 Z M15.6,17.7 C15.6,18.2 15.2,18.6 14.7,18.6 C14.2,18.6 13.8,18.2 13.8,17.7 L13.8,15 C13.8,14.5 14.2,14.1 14.7,14.1 C15.2,14.1 15.6,14.5 15.6,15 L15.6,17.7 Z" id="Shape" fill="#969696"></path>
                <path d="M20.9,12.6 C19.6,12.6 18.6,13.6 18.6,14.9 L18.6,17.6 C18.6,18.9 19.6,19.9 20.9,19.9 C22.2,19.9 23.2,18.9 23.2,17.6 L23.2,14.9 C23.1,13.7 22.1,12.6 20.9,12.6 Z M21.8,17.7 C21.8,18.2 21.4,18.6 20.9,18.6 C20.4,18.6 20,18.1 20,17.7 L20,15 C20,14.5 20.4,14.1 20.9,14.1 C21.4,14.1 21.8,14.5 21.8,15 C21.8,15 21.8,17.7 21.8,17.7 Z" id="Shape" fill="#969696"></path>
                <path d="M20.9,22.3 C19.6,22.3 18.6,23.3 18.6,24.6 L18.6,27.3 C18.6,28.6 19.6,29.6 20.9,29.6 C22.2,29.6 23.2,28.6 23.2,27.3 L23.2,24.6 C23.1,23.3 22.1,22.3 20.9,22.3 Z M21.8,27.3 C21.8,27.8 21.4,28.2 20.9,28.2 C20.4,28.2 20,27.8 20,27.3 L20,24.6 C20,24.1 20.4,23.7 20.9,23.7 C21.4,23.7 21.8,24.1 21.8,24.6 C21.8,24.6 21.8,27.3 21.8,27.3 Z" id="Shape" fill="#969696"></path>
                <path d="M26.9,22.3 C25.6,22.3 24.6,23.3 24.6,24.6 L24.6,27.3 C24.6,28.6 25.6,29.6 26.9,29.6 C28.2,29.6 29.2,28.6 29.2,27.3 L29.2,24.6 C29.1,23.3 28.1,22.3 26.9,22.3 Z M27.7,27.3 C27.7,27.8 27.3,28.2 26.8,28.2 C26.3,28.2 26,27.8 26,27.3 L26,24.6 C26,24.1 26.4,23.7 26.9,23.7 C27.4,23.7 27.8,24.1 27.8,24.6 L27.8,27.3 L27.7,27.3 Z" id="Shape" fill="#969696"></path>
                <path d="M32.8,5.8 C31.9,5.8 31.9,7.2 32.8,7.2 C33.7,7.2 33.7,5.8 32.8,5.8 Z" id="Path" fill="#FFFFFF"></path>
            </g>
        </g>
    </g>
</svg>