<?xml version="1.0" encoding="UTF-8"?>
<svg width="29px" height="35px" viewBox="0 0 29 35" version="1.1" xmlns="http://www.w3.org/2000/svg" xmlns:xlink="http://www.w3.org/1999/xlink">
    <!-- Generator: Sketch 54.1 (76490) - https://sketchapp.com -->
    <title>_myreports_icondarkbg</title>
    <desc>Created with Sketch.</desc>
    <g id="Page-1" stroke="none" stroke-width="1" fill="none" fill-rule="evenodd">
        <g id="_myreports_icondarkbg" fill="#FFFFFF" fill-rule="nonzero">
            <g id="Group">
                <path d="M28,32.7 L3.2,32.7 C2.8,32.7 2.4,32.4 2.4,31.9 L2.4,1.6 C2.4,1.2 2.7,0.8 3.2,0.8 L21.9,0.8 C22.1,0.8 22.3,0.9 22.4,1 L28.4,6.3 C28.6,6.4 28.7,6.6 28.7,6.9 L28.7,32 C28.7,32.4 28.4,32.7 28,32.7 Z M4,31.2 L27.3,31.2 L27.3,7.2 L21.7,2.3 L4,2.3 L4,31.2 Z" id="Shape"></path>
                <g opacity="0.5" transform="translate(0.000000, 2.000000)" id="Path">
                    <path d="M25.9,32.8 L1.1,32.8 C0.7,32.8 0.4,32.5 0.4,32 L0.4,1.7 C0.4,1.3 0.7,0.9 1.1,0.9 C1.5,0.9 1.9,1.2 1.9,1.7 L1.9,31.3 L25.9,31.3 C26.3,31.3 26.7,31.6 26.7,32.1 C26.7,32.6 26.3,32.8 25.9,32.8 Z"></path>
                </g>
                <path d="M28,7.7 L22,7.7 C21.6,7.7 21.2,7.4 21.2,6.9 L21.2,1.6 C21.2,1.3 21.4,1 21.6,0.9 C21.9,0.8 22.2,0.8 22.4,1 L28.4,6.3 C28.6,6.5 28.7,6.8 28.6,7.1 C28.6,7.5 28.3,7.7 28,7.7 Z M22.7,6.2 L26,6.2 L22.7,3.3 L22.7,6.2 Z" id="Shape"></path>
                <path d="M17.6,9.1 C17.1,8.8 16.6,8.5 16.1,8.4 L16.1,10.2 C17.9,10.7 18.7,11.4 18.7,12.8 L18.7,12.8 C18.7,14.1 17.7,15 16.2,15.2 L16.2,16.4 L15,16.4 L15,15.2 C14,15.1 13,14.7 12.2,14.1 L13.1,12.7 C13.7,13.2 14.3,13.5 15.1,13.7 L15.1,11.8 C13.4,11.3 12.5,10.7 12.5,9.3 L12.5,9.3 C12.5,8 13.5,7.1 15,6.9 L15,6.2 L16.2,6.2 L16.2,6.9 C17.1,7 17.8,7.3 18.4,7.8 L17.6,9.1 Z M15,9.9 L15,8.3 C14.4,8.4 14.2,8.7 14.2,9 L14.2,9 C14.2,9.4 14.3,9.7 15,9.9 Z M16.1,12 L16.1,13.7 C16.7,13.6 17,13.4 17,12.9 L17,12.9 C17,12.5 16.8,12.2 16.1,12 Z" id="Shape"></path>
                <g opacity="0.5" transform="translate(6.000000, 18.000000)" id="Rectangle">
                    <rect x="0" y="0.9" width="6.7" height="1.5"></rect>
                </g>
                <rect id="Rectangle" x="6" y="22.1" width="19" height="1.5"></rect>
                <rect id="Rectangle" x="6" y="24.5" width="3.1" height="1.5"></rect>
                <g opacity="0.5" transform="translate(10.000000, 24.000000)" id="Rectangle">
                    <rect x="0" y="0.5" width="3.1" height="1.5"></rect>
                </g>
                <rect id="Rectangle" x="14" y="24.5" width="3.1" height="1.5"></rect>
                <g opacity="0.5" transform="translate(18.000000, 24.000000)" id="Rectangle">
                    <rect x="0" y="0.5" width="3.1" height="1.5"></rect>
                </g>
                <rect id="Rectangle" x="21.9" y="24.5" width="3.1" height="1.5"></rect>
                <rect id="Rectangle" x="6" y="26.9" width="3.1" height="1.5"></rect>
                <g opacity="0.5" transform="translate(10.000000, 26.000000)" id="Rectangle">
                    <rect x="0" y="0.9" width="3.1" height="1.5"></rect>
                </g>
                <rect id="Rectangle" x="14" y="26.9" width="3.1" height="1.5"></rect>
                <g opacity="0.5" transform="translate(18.000000, 26.000000)" id="Rectangle">
                    <rect x="0" y="0.9" width="3.1" height="1.5"></rect>
                </g>
                <rect id="Rectangle" x="21.9" y="26.9" width="3.1" height="1.5"></rect>
            </g>
        </g>
    </g>
</svg>