<?xml version="1.0" encoding="UTF-8"?>
<svg width="36px" height="41px" viewBox="0 0 36 41" version="1.1" xmlns="http://www.w3.org/2000/svg" xmlns:xlink="http://www.w3.org/1999/xlink">
    <!-- Generator: Sketch 54.1 (76490) - https://sketchapp.com -->
    <title>_searchreports_icondarkbg</title>
    <desc>Created with Sketch.</desc>
    <g id="Page-1" stroke="none" stroke-width="1" fill="none" fill-rule="evenodd">
        <g id="_searchreports_icondarkbg" fill="#FFFFFF" fill-rule="nonzero">
            <g id="Group">
                <g>
                    <path d="M9.1,32.7 L1.5,32.7 C1.1,32.7 0.7,32.4 0.7,31.9 L0.7,1.6 C0.7,1.2 1,0.8 1.5,0.8 L20.2,0.8 C20.4,0.8 20.6,0.9 20.7,1 L26.7,6.3 C26.9,6.4 27,6.6 27,6.9 L27,13.8 C27,14.2 26.7,14.6 26.2,14.6 C25.7,14.6 25.4,14.3 25.4,13.8 L25.4,7.2 L20,2.4 L2.3,2.4 L2.3,31.2 L9.1,31.2 C9.5,31.2 9.9,31.5 9.9,32 C9.9,32.5 9.5,32.7 9.1,32.7 Z" id="Path"></path>
                    <path d="M26.3,7.7 L20.3,7.7 C19.9,7.7 19.6,7.4 19.6,6.9 L19.6,1.6 C19.6,1.3 19.8,1 20,0.9 C20.3,0.8 20.6,0.8 20.8,1 L26.8,6.3 C27,6.5 27.1,6.8 27,7.1 C26.9,7.5 26.6,7.7 26.3,7.7 Z M21,6.2 L24.3,6.2 L21,3.3 L21,6.2 Z" id="Shape"></path>
                </g>
                <g opacity="0.5" transform="translate(4.000000, 7.000000)" id="Rectangle">
                    <rect x="0.4" y="0.2" width="6.7" height="1.5"></rect>
                </g>
                <rect id="Rectangle" x="4.4" y="10.4" width="19" height="1.5"></rect>
                <rect id="Rectangle" x="4.4" y="12.8" width="3.1" height="1.5"></rect>
                <g opacity="0.5" transform="translate(8.000000, 12.000000)" id="Rectangle">
                    <rect x="0.4" y="0.8" width="3.1" height="1.5"></rect>
                </g>
                <rect id="Rectangle" x="12.3" y="12.8" width="3.1" height="1.5"></rect>
                <g opacity="0.5" transform="translate(16.000000, 12.000000)" id="Rectangle">
                    <rect x="0.3" y="0.8" width="3.1" height="1.5"></rect>
                </g>
                <rect id="Rectangle" x="20.3" y="12.8" width="3.1" height="1.5"></rect>
                <rect id="Rectangle" x="4.4" y="15.2" width="3.1" height="1.5"></rect>
                <g opacity="0.5" transform="translate(8.000000, 15.000000)" id="Rectangle">
                    <rect x="0.4" y="0.2" width="3.1" height="1.5"></rect>
                </g>
                <rect id="Rectangle" x="4.4" y="17.6" width="3.1" height="1.5"></rect>
                <g opacity="0.5" transform="translate(8.000000, 17.000000)" id="Rectangle">
                    <rect x="0.4" y="0.6" width="2.6" height="1.5"></rect>
                </g>
                <rect id="Rectangle" x="4.4" y="20" width="3.1" height="1.5"></rect>
                <g opacity="0.5" transform="translate(8.000000, 20.000000)" id="Rectangle">
                    <rect x="0.4" y="0" width="1.6" height="1.5"></rect>
                </g>
                <rect id="Rectangle" x="4.4" y="22.4" width="3.1" height="1.5"></rect>
                <rect id="Rectangle" x="4.4" y="24.9" width="3.1" height="1.5"></rect>
                <g opacity="0.5" transform="translate(8.000000, 24.000000)" id="Path">
                    <polygon points="1.9 2.4 0.4 2.4 0.4 0.9 1.9 0.9"></polygon>
                </g>
                <g transform="translate(8.000000, 13.000000)">
                    <path d="M10.3,20.5 C7.7,20.5 5.2,19.5 3.2,17.6 C-0.7,13.7 -0.7,7.3 3.2,3.4 C7.1,-0.5 13.5,-0.5 17.4,3.4 C21.3,7.3 21.3,13.7 17.4,17.6 L17.4,17.6 C15.5,19.5 12.9,20.5 10.3,20.5 Z M10.3,1.9 C8.1,1.9 5.9,2.7 4.3,4.4 C1,7.7 1,13.2 4.3,16.5 C7.6,19.8 13.1,19.8 16.4,16.5 C19.7,13.2 19.7,7.7 16.4,4.4 C14.7,2.7 12.5,1.9 10.3,1.9 Z" id="Shape"></path>
                    <g opacity="0.5" transform="translate(9.000000, 3.000000)" id="Path">
                        <path d="M6,3.5 C5.8,3.5 5.6,3.4 5.5,3.3 C4.4,2.2 2.9,1.6 1.4,1.6 C1,1.6 0.6,1.3 0.6,0.8 C0.6,0.3 0.9,-3.55271368e-15 1.4,-3.55271368e-15 C3.4,-3.55271368e-15 5.2,0.8 6.6,2.1 C6.9,2.4 6.9,2.9 6.6,3.2 C6.4,3.5 6.2,3.5 6,3.5 Z"></path>
                    </g>
                    <g opacity="0.5" transform="translate(15.000000, 8.000000)" id="Path">
                        <path d="M1.9,3.2 C1.5,3.2 1.1,2.9 1.1,2.4 C1.1,1.9 1,1.5 0.9,1 C0.8,0.6 1.1,0.2 1.5,0.1 C1.9,0 2.3,0.2 2.4,0.7 C2.5,1.3 2.6,1.8 2.6,2.4 C2.7,2.8 2.3,3.2 1.9,3.2 Z"></path>
                    </g>
                    <rect id="Rectangle" transform="translate(18.568565, 18.579855) rotate(-45.000000) translate(-18.568565, -18.579855) " x="17.8185722" y="15.5798838" width="1.49998561" height="5.99994246"></rect>
                    <rect id="Rectangle" transform="translate(23.474110, 23.600310) rotate(-45.000000) translate(-23.474110, -23.600310) " x="21.9741244" y="19.0003541" width="2.99997123" height="9.19991177"></rect>
                </g>
                <rect id="Rectangle" x="12.3" y="15.2" width="1" height="1.5"></rect>
            </g>
        </g>
    </g>
</svg>