<?xml version="1.0" encoding="UTF-8"?>
<svg width="33px" height="36px" viewBox="0 0 33 36" version="1.1" xmlns="http://www.w3.org/2000/svg" xmlns:xlink="http://www.w3.org/1999/xlink">
    <!-- Generator: Sketch 54.1 (76490) - https://sketchapp.com -->
    <title>_users_icondarkbg</title>
    <desc>Created with Sketch.</desc>
    <g id="Page-1" stroke="none" stroke-width="1" fill="none" fill-rule="evenodd">
        <g id="_users_icondarkbg" fill="#FFFFFF" fill-rule="nonzero">
            <g id="Group">
                <g transform="translate(2.000000, 0.000000)" id="Shape">
                    <path d="M27.1,25.7 L23,24.1 L20.9,22 C20.8,21.9 20.6,21.8 20.4,21.8 L20.4,20.1 C21.4,19 22.1,17.7 22.4,16.2 C22.6,16.2 22.8,16.2 22.9,16.2 C23.9,16 24.6,15.1 24.6,14 L24.6,13.5 C24.6,12.9 24.3,12.3 23.9,11.9 C24.6,8.3 24,5.3 22.3,3.4 C20.6,1.5 18,0.6 14.6,0.8 C11.5,1 9.5,2.4 8.8,2.9 C8.5,2.9 7.9,3.1 7.3,3.4 C6.5,3.9 5.5,5 5.5,7.1 C5.5,9 5.8,10.6 6,11.5 C5.3,11.9 4.8,12.6 4.8,13.5 L4.8,14 C4.8,15.1 5.5,16 6.5,16.2 C6.7,16.2 6.9,16.2 7,16.2 C7.3,17.7 8,19 9,20.1 L9,21.8 C8.8,21.8 8.7,21.9 8.5,22 L6.4,24.1 L2.3,25.7 C1.9,25.8 1.6,26 1.3,26.2 C1,26.4 0.9,26.9 1.1,27.2 C1.2,27.4 1.5,27.5 1.7,27.5 C1.8,27.5 2,27.5 2.1,27.4 C2.3,27.3 2.6,27.1 2.8,27 L6.6,25.5 L9.5,29.9 C9.9,30.4 10.4,30.8 11.1,30.9 C11.2,30.9 11.2,30.9 11.3,30.9 C11.7,30.9 12,30.8 12.4,30.6 L11.8,34.1 C11.8,34.5 12.1,34.9 12.5,34.9 L12.5,34.9 C12.9,34.9 13.2,34.6 13.3,34.2 L13.9,31.7 L15.5,31.7 L16.1,34.2 C16.1,34.6 16.5,34.9 16.9,34.9 L16.9,34.9 C17.3,34.9 17.6,34.5 17.6,34.1 L17,30.6 C17.3,30.8 17.7,30.9 18.1,30.9 C18.2,30.9 18.2,30.9 18.3,30.9 C18.9,30.8 19.5,30.5 19.9,29.9 L22.8,25.5 L26.6,27 C27.1,27.3 27.9,26.1 27.1,25.7 Z M8.5,15.9 C8.3,15.2 7.7,14.7 7,14.7 C6.9,14.7 6.9,14.7 6.8,14.7 C6.5,14.6 6.3,14.3 6.3,14 L6.3,13.5 C6.3,13.2 6.5,12.8 6.8,12.8 C7.1,12.8 7.3,12.8 7.4,13 C7.5,13.2 7.7,13.3 7.9,13.4 C8.2,13.5 8.5,13.4 8.8,13.3 C9.3,13 9.7,12.6 10,12.1 C10.2,11.8 10.2,11.3 9.8,11 C9.5,10.8 9,10.8 8.7,11.2 C8.5,11.4 8.3,11.6 8.1,11.8 C7.9,11.6 7.6,11.4 7.3,11.4 C7.3,10.6 7,9 7,7.1 C7,5.9 7.4,5.1 8.1,4.7 C8.6,4.4 9.2,4.3 9.2,4.3 C9.4,4.3 9.6,4.2 9.7,4.1 C9.7,4.1 11.6,2.4 14.7,2.2 C17.6,2 19.8,2.8 21.2,4.3 C22.5,5.9 23,8.2 22.5,11.2 C22.3,11.2 22.1,11.2 21.9,11.2 L21.2,9.5 C21.1,9.2 20.7,9 20.3,9.1 C20.2,9.1 13.3,10.9 10.4,7.3 C10.1,7 9.7,6.9 9.3,7.2 C9,7.5 8.9,7.9 9.2,8.3 C12.2,12 18.1,11.2 20.1,10.8 L20.6,12.1 C20.8,12.7 21.4,13 22,12.8 C22.2,12.7 22.5,12.7 22.6,12.8 C22.9,12.9 23.1,13.2 23.1,13.5 L23.1,14 C23.1,14.4 22.9,14.7 22.6,14.7 C22.5,14.7 22.5,14.7 22.4,14.7 C21.7,14.6 21,15.2 20.9,15.9 C20.2,19.9 15.8,22.4 11.6,20.3 C9.9,19.4 8.9,17.7 8.5,15.9 Z M11.9,29.2 C11.7,29.4 11.5,29.4 11.4,29.4 C11.3,29.4 11.1,29.3 10.9,29.1 L8,24.7 L9.2,23.5 L13.7,27.4 L11.9,29.2 Z M14,30.2 L14,29.2 L14.7,28.5 L15.4,29.2 L15.4,30.2 L14,30.2 Z M14.7,26.5 L10.5,22.8 L10.5,21.4 C11.7,22.2 13.2,22.6 14.7,22.6 C16.2,22.6 17.7,22.2 18.9,21.4 L18.9,22.8 L14.7,26.5 Z M18.6,29.1 C18.5,29.3 18.2,29.4 18.1,29.4 C18,29.4 17.8,29.4 17.6,29.2 L15.9,27.5 L20.4,23.6 L21.6,24.8 L18.6,29.1 Z"></path>
                    <path d="M16.8,35.1 C16.3,35.1 16,34.7 15.9,34.3 L15.3,31.9 L14,31.9 L13.4,34.3 C13.4,34.7 13,35.1 12.6,35.1 L12.6,35.1 C12.1,35.1 11.8,34.7 11.8,34.2 L12.4,30.9 C12,31 11.6,31.1 11.2,31 C10.5,30.9 9.9,30.6 9.5,30 L6.6,25.7 L2.9,27.1 C2.7,27.2 2.4,27.3 2.2,27.5 C2.1,27.6 1.9,27.6 1.7,27.6 C1.4,27.6 1.2,27.5 1,27.2 C0.7,26.8 0.8,26.3 1.2,26 C1.5,25.8 1.9,25.6 2.2,25.5 L6.3,23.9 L8.4,21.8 C8.5,21.7 8.7,21.6 8.9,21.6 L8.9,20.1 C7.9,19 7.2,17.7 6.9,16.3 C6.8,16.3 6.6,16.3 6.4,16.3 C5.4,16.1 4.6,15.1 4.6,14 L4.6,13.5 C4.6,12.6 5.1,11.8 5.8,11.4 C5.6,10.4 5.3,8.9 5.3,7.1 C5.3,4.9 6.3,3.8 7.2,3.3 C7.8,2.9 8.4,2.8 8.8,2.8 C9.5,2.2 11.5,0.8 14.6,0.7 C18,0.5 20.7,1.4 22.4,3.4 C24.1,5.4 24.7,8.3 24,12 C24.4,12.4 24.7,13 24.7,13.6 L24.7,14 C24.7,15.1 23.9,16.1 22.9,16.3 C22.7,16.3 22.6,16.3 22.4,16.3 L22.4,16.3 C22.1,17.7 21.4,19 20.4,20.1 L20.4,21.6 C20.6,21.6 20.7,21.7 20.9,21.8 L23,24 L27.1,25.6 C27.6,25.8 27.6,26.3 27.4,26.6 C27.2,27 26.8,27.3 26.4,27.2 L22.7,25.8 L19.9,30 C19.5,30.6 18.9,30.9 18.2,31 C17.8,31 17.4,31 17,30.8 L17.6,34.1 C17.6,34.3 17.5,34.6 17.4,34.7 C17.3,34.9 17.1,35 16.8,35.1 L16.8,35.1 Z M13.8,31.6 L15.5,31.6 L15.5,31.7 L16.1,34.2 C16.1,34.6 16.4,34.8 16.8,34.8 L16.8,34.8 C17,34.8 17.1,34.7 17.3,34.6 C17.4,34.5 17.5,34.3 17.5,34.1 L16.8,30.4 L17,30.5 C17.4,30.7 17.8,30.8 18.2,30.8 C18.8,30.7 19.4,30.4 19.7,29.9 L22.7,25.5 L26.6,27 C26.8,27.1 27.2,26.8 27.3,26.5 C27.4,26.4 27.5,26 27.1,25.8 L23,24.2 L20.9,22.1 C20.8,22 20.6,21.9 20.5,21.9 L20.4,21.9 L20.4,20.1 L20.4,20.1 C21.4,19 22.1,17.7 22.3,16.3 L22.3,16.2 L22.4,16.2 C22.6,16.2 22.7,16.2 22.9,16.2 C23.9,16 24.5,15.1 24.5,14.1 L24.5,13.6 C24.5,13 24.3,12.5 23.9,12.1 L23.9,12.1 L23.9,12 C24.6,8.4 24,5.5 22.3,3.5 C20.7,1.6 18,0.7 14.7,0.9 C11.6,1.1 9.7,2.4 9,3 L9,3 L9,3 C8.6,3 8.1,3.2 7.5,3.5 C6.7,4 5.7,5 5.7,7.1 C5.7,8.9 6,10.5 6.2,11.5 L6.2,11.6 L6.1,11.6 C5.4,11.9 4.9,12.7 4.9,13.5 L4.9,14 C4.9,15 5.6,15.9 6.6,16.1 C6.8,16.1 6.9,16.1 7.1,16.1 L7.2,16.1 L7.2,16.2 C7.5,17.6 8.1,19 9.1,20 L9.1,20 L9.1,21.8 L9,21.8 C8.8,21.8 8.7,21.9 8.6,22 L6.5,24.1 L2.4,25.7 C2.1,25.8 1.7,26 1.4,26.2 C1.1,26.4 1,26.8 1.2,27.1 C1.4,27.4 1.8,27.5 2.1,27.3 C2.3,27.1 2.6,27 2.8,26.9 L6.7,25.4 L6.7,25.5 L9.6,29.9 C9.9,30.4 10.5,30.7 11.1,30.8 C11.5,30.8 11.9,30.8 12.3,30.5 L12.5,30.4 L11.8,34.1 C11.8,34.4 12.1,34.8 12.4,34.8 L12.4,34.8 C12.8,34.8 13,34.5 13.1,34.2 L13.8,31.6 Z M15.5,30.3 L13.9,30.3 L14,29.1 L14,29.1 L14.7,28.4 L15.5,29.2 L15.5,29.2 L15.5,30.3 Z M14.1,30.1 L15.3,30.1 L15.3,29.2 L14.7,28.6 L14.1,29.2 L14.1,30.1 L14.1,30.1 Z M11.4,29.5 C11.4,29.5 11.3,29.5 11.4,29.5 C11.2,29.5 10.9,29.4 10.8,29.2 L7.8,24.7 L9.1,23.4 L13.8,27.5 L12,29.3 C11.8,29.5 11.5,29.5 11.4,29.5 Z M8.1,24.8 L11,29.1 C11.1,29.3 11.3,29.3 11.4,29.3 C11.5,29.3 11.7,29.3 11.8,29.1 L11.8,29.1 L13.5,27.4 L9.2,23.6 L8.1,24.8 Z M18,29.5 C17.9,29.5 17.7,29.5 17.5,29.3 L15.7,27.5 L15.8,27.4 L20.4,23.4 L21.7,24.7 L21.7,24.8 L18.8,29.2 C18.5,29.5 18.2,29.5 18,29.5 C18.1,29.5 18,29.5 18,29.5 Z M16,27.5 L17.7,29.2 C17.9,29.4 18,29.4 18.1,29.4 C18.2,29.4 18.4,29.3 18.5,29.2 L18.5,29.2 L21.4,24.9 L20.3,23.8 L16,27.5 Z M14.7,26.6 L14.7,26.6 L10.4,22.9 L10.4,21.2 L10.6,21.3 C11.8,22.1 13.3,22.5 14.7,22.5 C16.2,22.5 17.6,22.1 18.8,21.3 L19,21.2 L19,22.9 L14.7,26.6 Z M10.6,22.8 L14.7,26.4 L18.8,22.8 L18.8,21.6 C17.6,22.3 16.2,22.7 14.7,22.7 C13.3,22.7 11.9,22.3 10.6,21.6 C10.6,21.6 10.6,22.8 10.6,22.8 Z M14.7,21.2 C13.6,21.2 12.5,20.9 11.5,20.4 C10,19.6 8.9,18 8.4,15.9 L8.4,15.9 C8.3,15.2 7.6,14.8 7,14.8 C6.9,14.8 6.9,14.8 6.8,14.8 C6.5,14.7 6.2,14.4 6.2,14 L6.2,13.5 C6.2,13.1 6.5,12.7 6.8,12.7 C7.1,12.6 7.4,12.8 7.5,13 C7.6,13.2 7.8,13.3 8,13.3 C8.3,13.4 8.6,13.3 8.8,13.2 C9.3,12.9 9.7,12.5 10,12 C10.2,11.7 10.2,11.3 9.9,11.1 C9.8,11 9.6,11 9.4,11 C9.2,11 9.1,11.1 9,11.3 C8.8,11.5 8.6,11.8 8.4,11.9 L8.3,12 L8.2,11.9 C8,11.7 7.7,11.6 7.4,11.5 L7.3,11.5 L7.3,11.4 C7.1,10.6 6.8,9 6.8,7.1 C6.8,5.9 7.2,5.1 7.9,4.6 C8.5,4.2 9.1,4.2 9.1,4.2 C9.3,4.2 9.4,4.1 9.6,4 C9.6,4 11.5,2.2 14.7,2.1 C17.6,1.9 19.9,2.7 21.3,4.3 C22.7,5.9 23.1,8.3 22.6,11.3 L22.6,11.4 L22.5,11.4 C22.3,11.4 22.1,11.4 21.9,11.4 L21.8,11.4 L21.8,11.3 L21.1,9.6 C21,9.3 20.6,9.1 20.3,9.2 C20.2,9.2 13.2,11 10.3,7.3 C10.2,7.2 10,7.1 9.9,7.1 C9.7,7.1 9.6,7.1 9.4,7.2 C9.2,7.3 9.2,7.5 9.2,7.6 C9.2,7.8 9.2,7.9 9.3,8.1 C12.3,11.8 18.3,10.9 20.1,10.6 L20.2,10.6 L20.8,12 C21,12.5 21.6,12.8 22.1,12.7 C22.3,12.6 22.6,12.6 22.7,12.7 C23.1,12.8 23.3,13.1 23.3,13.5 L23.3,14 C23.3,14.4 23,14.8 22.7,14.8 C22.6,14.8 22.6,14.8 22.5,14.8 L22.4,14.8 C21.8,14.8 21.2,15.3 21.1,15.9 C20.7,17.9 19.4,19.6 17.6,20.5 C16.6,21 15.7,21.2 14.7,21.2 Z M7.1,14.6 C7.8,14.6 8.5,15.1 8.6,15.8 C9,17.8 10.1,19.4 11.6,20.1 C13.5,21.1 15.6,21.1 17.4,20.3 C19.1,19.4 20.4,17.8 20.8,15.9 C20.9,15.2 21.6,14.6 22.3,14.6 L22.4,14.6 L22.5,14.6 C22.8,14.5 22.9,14.3 22.9,14 L22.9,13.5 C22.9,13.2 22.7,12.9 22.4,12.9 C22.3,12.9 22.1,12.9 21.9,12.9 C21.3,13 20.6,12.7 20.4,12.1 L20,10.8 C18.1,11.2 12.1,12 9.1,8.2 C9,8 8.9,7.8 8.9,7.6 C8.9,7.4 9,7.2 9.2,7 C9.4,6.9 9.6,6.8 9.8,6.8 C10,6.8 10.2,6.9 10.4,7.1 C13.3,10.7 20.2,8.9 20.2,8.9 C20.6,8.8 21,9 21.2,9.4 L21.9,11 C22.1,11 22.2,11 22.4,11 C22.9,8.1 22.4,5.7 21.1,4.2 C19.8,2.7 17.6,2 14.7,2.1 C11.6,2.3 9.7,4 9.7,4 C9.5,4.1 9.3,4.2 9.1,4.2 C9.1,4.2 8.5,4.2 8,4.5 C7.3,4.9 7,5.7 7,6.8 C7,8.6 7.3,10.2 7.5,11 C7.8,11.1 8,11.2 8.2,11.4 C8.4,11.2 8.6,11 8.7,10.8 C8.8,10.6 9,10.5 9.3,10.5 C9.5,10.5 9.8,10.5 9.9,10.7 C10.3,11 10.4,11.5 10.1,11.9 C9.7,12.4 9.3,12.8 8.8,13.1 C8.5,13.3 8.1,13.4 7.8,13.3 C7.6,13.2 7.4,13.1 7.2,12.9 C7.1,12.7 6.9,12.7 6.7,12.7 C6.4,12.7 6.3,13 6.3,13.3 L6.3,14 C6.3,14.3 6.5,14.6 6.7,14.6 C6.8,14.6 6.8,14.6 6.8,14.6 C7,14.6 7.1,14.6 7.1,14.6 Z"></path>
                </g>
                <path d="M31.7,34.8 C31.3,34.8 30.9,34.5 30.9,34 L30.9,29.9 C30.9,28.9 30.3,28 29.4,27.6 L28.6,27.2 C28.2,27 28.1,26.6 28.2,26.2 C28.4,25.8 28.8,25.7 29.2,25.8 L30,26.2 C31.4,26.9 32.3,28.3 32.3,29.9 L32.3,34 C32.4,34.4 32.1,34.8 31.7,34.8 Z" id="Path"></path>
                <path d="M1.7,34.8 C1.3,34.8 0.9,34.5 0.9,34 L0.9,29.9 C0.9,28.3 1.8,26.9 3.2,26.2 L4,25.8 C4.4,25.6 4.8,25.8 5,26.2 C5.2,26.6 5,27 4.6,27.2 L3.8,27.6 C2.9,28 2.3,29 2.3,29.9 L2.3,34 C2.4,34.4 2.1,34.8 1.7,34.8 Z" id="Path"></path>
            </g>
        </g>
    </g>
</svg>