<?xml version="1.0" encoding="utf-8"?>
<!-- Generator: Adobe Illustrator 22.1.0, SVG Export Plug-In . SVG Version: 6.00 Build 0)  -->
<svg version="1.1" id="Capa_1" xmlns="http://www.w3.org/2000/svg" xmlns:xlink="http://www.w3.org/1999/xlink" x="0px" y="0px"
	 viewBox="0 0 100 33.1" style="enable-background:new 0 0 100 33.1;" xml:space="preserve">
<style type="text/css">
	.st0{fill:#B52728;}
	.st1{fill:#3A3B38;}
	.st2{fill:#929292;}
	.st3{fill:#6B6B6B;}
	.st4{fill:#9D9D9D;}
	.st5{fill:#FFFFFF;}
	.st6{fill:#C0C0C0;}
	.st7{opacity:0.5;}
	.st8{fill:#3A3C39;}
	.st9{fill:#C22026;}
	.st10{fill:#F2F2F2;}
	.st11{fill:#9E9E9E;}
	.st12{fill:#C1C1C1;}
	.st13{fill:#D3D3D3;}
	.st14{fill:#969696;}
	.st15{opacity:0.85;}
	.st16{fill:#4D4D4D;}
	.st17{fill:none;stroke:#4D4D4D;stroke-width:1.5;stroke-miterlimit:10;}
	.st18{fill:#22BF7C;}
	.st19{fill:#FF8400;}
	.st20{fill:#B0B0B0;}
	.st21{fill:none;stroke:#FFFFFF;stroke-width:1.5;stroke-miterlimit:10;}
	.st22{fill:#CCCCCC;}
	.st23{fill:#444444;}
</style>
<g>
	<path class="st8" d="M17.4,15.7h4.4v5.8c-0.7,0.2-1.4,0.4-2,0.5s-1.3,0.1-1.9,0.1c-1.7,0-3-0.5-3.8-1.5c-0.9-1-1.3-2.4-1.3-4.2
		c0-1.8,0.5-3.2,1.5-4.2s2.4-1.5,4.3-1.5c1.1,0,2.2,0.2,3.3,0.7L21,13.3c-0.8-0.4-1.7-0.6-2.5-0.6c-1,0-1.8,0.3-2.4,1
		s-0.9,1.6-0.9,2.8c0,1.2,0.2,2.1,0.7,2.8c0.5,0.6,1.2,1,2.2,1c0.5,0,1-0.1,1.5-0.2v-2.3h-2.1V15.7z"/>
	<path class="st8" d="M33.5,10.9v7.2c0,0.8-0.2,1.5-0.6,2.2c-0.4,0.6-0.9,1.1-1.6,1.4c-0.7,0.3-1.5,0.5-2.5,0.5
		c-1.4,0-2.5-0.4-3.3-1.1c-0.8-0.7-1.2-1.7-1.2-3v-7.2h2.3v6.8c0,0.9,0.2,1.5,0.5,1.9c0.3,0.4,0.9,0.6,1.7,0.6
		c0.8,0,1.3-0.2,1.7-0.6s0.5-1,0.5-1.9v-6.8H33.5z"/>
	<path class="st8" d="M43,22l-0.8-2.6h-4L37.3,22h-2.5l3.9-11.1h2.9L45.5,22H43z M41.6,17.4c-0.7-2.4-1.2-3.7-1.3-4.1
		c-0.1-0.3-0.2-0.6-0.2-0.7c-0.2,0.6-0.6,2.2-1.4,4.8H41.6z"/>
	<path class="st8" d="M49.3,17.7V22h-2.4V10.9h3.2c1.5,0,2.6,0.3,3.3,0.8c0.7,0.5,1.1,1.4,1.1,2.5c0,0.7-0.2,1.2-0.5,1.7
		c-0.4,0.5-0.9,0.9-1.5,1.2c1.7,2.5,2.8,4.1,3.3,4.8h-2.6l-2.6-4.3H49.3z M49.3,15.8H50c0.7,0,1.3-0.1,1.6-0.4
		c0.4-0.2,0.5-0.6,0.5-1.2c0-0.5-0.2-0.9-0.5-1.1c-0.4-0.2-0.9-0.3-1.7-0.3h-0.7V15.8z"/>
	<path class="st8" d="M66.4,16.3c0,1.8-0.5,3.2-1.6,4.2S62.3,22,60.3,22h-3.1V10.9h3.5c1.8,0,3.2,0.5,4.2,1.4S66.4,14.6,66.4,16.3z
		 M63.9,16.4c0-2.4-1.1-3.6-3.2-3.6h-1.3V20h1C62.8,20,63.9,18.8,63.9,16.4z"/>
	<path class="st8" d="M75.5,22l-0.8-2.6h-4L69.8,22h-2.5l3.9-11.1h2.9L78,22H75.5z M74.1,17.4c-0.7-2.4-1.2-3.7-1.3-4.1
		c-0.1-0.3-0.2-0.6-0.2-0.7c-0.2,0.6-0.6,2.2-1.4,4.8H74.1z"/>
	<path class="st8" d="M81.8,17.7V22h-2.4V10.9h3.2c1.5,0,2.6,0.3,3.3,0.8c0.7,0.5,1.1,1.4,1.1,2.5c0,0.7-0.2,1.2-0.5,1.7
		c-0.4,0.5-0.9,0.9-1.5,1.2c1.7,2.5,2.8,4.1,3.3,4.8h-2.6L83,17.7H81.8z M81.8,15.8h0.8c0.7,0,1.3-0.1,1.6-0.4
		c0.4-0.2,0.5-0.6,0.5-1.2c0-0.5-0.2-0.9-0.5-1.1s-0.9-0.3-1.7-0.3h-0.7V15.8z"/>
</g>
<g>
	<path class="st11" d="M96.5,33.1h-93c-1.9,0-3.5-1.6-3.5-3.5v-26C0,1.6,1.6,0,3.5,0h93c1.9,0,3.5,1.6,3.5,3.5v26
		C100,31.5,98.5,33.1,96.5,33.1z M3.5,2C2.7,2,2,2.7,2,3.5v26c0,0.8,0.7,1.5,1.5,1.5h93c0.8,0,1.5-0.7,1.5-1.5v-26
		C98,2.7,97.4,2,96.5,2H3.5z"/>
</g>
</svg>
