<?xml version="1.0" encoding="utf-8"?>
<!-- Generator: Adobe Illustrator 22.1.0, SVG Export Plug-In . SVG Version: 6.00 Build 0)  -->
<svg version="1.1" id="Capa_1" xmlns="http://www.w3.org/2000/svg" xmlns:xlink="http://www.w3.org/1999/xlink" x="0px" y="0px"
	 viewBox="0 0 112.4 24.6" style="enable-background:new 0 0 112.4 24.6;" xml:space="preserve">
<style type="text/css">
	.st0{fill:#B52728;}
	.st1{fill:#3A3B38;}
	.st2{fill:#929292;}
	.st3{fill:#6B6B6B;}
	.st4{fill:#9D9D9D;}
	.st5{fill:#FFFFFF;}
	.st6{fill:#C0C0C0;}
	.st7{opacity:0.5;}
	.st8{fill:#3A3C39;}
	.st9{fill:#C22026;}
	.st10{fill:#F2F2F2;}
	.st11{fill:#9E9E9E;}
	.st12{fill:#C1C1C1;}
	.st13{fill:#D3D3D3;}
	.st14{fill:#969696;}
	.st15{opacity:0.85;}
	.st16{fill:#4D4D4D;}
	.st17{fill:none;stroke:#4D4D4D;stroke-width:1.5;stroke-miterlimit:10;}
	.st18{fill:#22BF7C;}
	.st19{fill:#FF8400;}
	.st20{fill:#B0B0B0;}
	.st21{fill:none;stroke:#FFFFFF;stroke-width:1.5;stroke-miterlimit:10;}
	.st22{fill:#CCCCCC;}
	.st23{fill:#444444;}
</style>
<g>
	<g>
		<path class="st8" d="M37.1,17.3h-5.9V7.1h5.9v1.8h-3.7v2.2h3.5v1.8h-3.5v2.6h3.7V17.3z"/>
		<path class="st8" d="M47.7,12.1c0,1.7-0.5,3-1.4,3.9c-1,0.9-2.3,1.3-4.1,1.3h-2.9V7.1h3.2c1.7,0,3,0.4,3.9,1.3
			S47.7,10.5,47.7,12.1z M45.4,12.2c0-2.2-1-3.3-2.9-3.3h-1.2v6.6h0.9C44.4,15.5,45.4,14.4,45.4,12.2z"/>
		<path class="st8" d="M49.8,17.3V7.1h2.2v10.2H49.8z"/>
		<path class="st8" d="M58.5,17.3h-2.2V8.9h-2.8V7.1h7.7v1.8h-2.8V17.3z"/>
		<path class="st8" d="M69.1,17.3l-0.7-2.4h-3.7l-0.7,2.4h-2.3l3.6-10.3h2.6l3.6,10.3H69.1z M67.8,13.1c-0.7-2.2-1.1-3.4-1.2-3.7
			s-0.1-0.5-0.2-0.7c-0.2,0.6-0.6,2.1-1.3,4.4H67.8z"/>
		<path class="st8" d="M74.8,13.4v3.9h-2.2V7.1h3c1.4,0,2.4,0.3,3.1,0.8c0.7,0.5,1,1.3,1,2.3c0,0.6-0.2,1.1-0.5,1.6
			c-0.3,0.5-0.8,0.8-1.4,1.1c1.5,2.3,2.5,3.8,3,4.4h-2.4L76,13.4H74.8z M74.8,11.6h0.7c0.7,0,1.2-0.1,1.5-0.3
			c0.3-0.2,0.5-0.6,0.5-1.1c0-0.5-0.2-0.8-0.5-1c-0.3-0.2-0.8-0.3-1.5-0.3h-0.7V11.6z"/>
	</g>
	<g>
		<path class="st11" d="M108.9,24.6H3.5C1.6,24.6,0,23,0,21V3.5C0,1.6,1.6,0,3.5,0h105.3c1.9,0,3.5,1.6,3.5,3.5V21
			C112.4,23,110.8,24.6,108.9,24.6z M3.5,2C2.7,2,2,2.7,2,3.5V21c0,0.8,0.7,1.5,1.5,1.5h105.3c0.8,0,1.5-0.7,1.5-1.5V3.5
			c0-0.8-0.7-1.5-1.5-1.5H3.5z"/>
	</g>
</g>
</svg>
