<?xml version="1.0" encoding="utf-8"?>
<!-- Generator: Adobe Illustrator 22.1.0, SVG Export Plug-In . SVG Version: 6.00 Build 0)  -->
<svg version="1.1" id="Capa_1" xmlns="http://www.w3.org/2000/svg" xmlns:xlink="http://www.w3.org/1999/xlink" x="0px" y="0px"
	 viewBox="0 0 22.6 22.6" style="enable-background:new 0 0 22.6 22.6;" xml:space="preserve">
<style type="text/css">
	.st0{fill:#B52728;}
	.st1{fill:#3A3B38;}
	.st2{fill:#929292;}
	.st3{fill:#6B6B6B;}
	.st4{fill:#9D9D9D;}
	.st5{fill:#FFFFFF;}
	.st6{fill:#C0C0C0;}
	.st7{opacity:0.5;}
	.st8{fill:#3A3C39;}
	.st9{fill:#C22026;}
	.st10{fill:#F2F2F2;}
	.st11{fill:#9E9E9E;}
	.st12{fill:#C1C1C1;}
	.st13{fill:#D3D3D3;}
	.st14{fill:#969696;}
	.st15{opacity:0.85;}
	.st16{fill:#4D4D4D;}
	.st17{fill:none;stroke:#4D4D4D;stroke-width:1.5;stroke-miterlimit:10;}
	.st18{fill:#22BF7C;}
	.st19{fill:#FF8400;}
	.st20{fill:#B0B0B0;}
	.st21{fill:none;stroke:#FFFFFF;stroke-width:1.5;stroke-miterlimit:10;}
	.st22{fill:#CCCCCC;}
	.st23{fill:#444444;}
</style>
<g>
	<g>
		<rect x="1" y="1" class="st10" width="20.6" height="20.6"/>
	</g>
	<g>
		<path class="st12" d="M1,22.6c-0.6,0-1-0.4-1-1V0h21.6c0.6,0,1,0.4,1,1s-0.4,1-1,1H2v19.6C2,22.2,1.6,22.6,1,22.6z"/>
	</g>
	<g class="st7">
		<polygon class="st5" points="22.4,22.4 1,22.4 1,20.9 20.9,20.9 20.9,1 22.4,1 		"/>
	</g>
	<g>
		<path class="st23" d="M10.3,19.4l-5.7-5.1c-0.8-0.7-0.9-2-0.2-2.8c0.7-0.8,2-0.9,2.8-0.2l2.5,2.3l6.7-8.4c0.7-0.9,1.9-1,2.8-0.3
			c0.9,0.7,1,1.9,0.3,2.8L10.3,19.4z"/>
	</g>
</g>
</svg>
