<?xml version="1.0" encoding="utf-8"?>
<!-- Generator: Adobe Illustrator 22.1.0, SVG Export Plug-In . SVG Version: 6.00 Build 0)  -->
<svg version="1.1" id="Capa_1" xmlns="http://www.w3.org/2000/svg" xmlns:xlink="http://www.w3.org/1999/xlink" x="0px" y="0px"
	 viewBox="0 0 33.6 31.8" style="enable-background:new 0 0 33.6 31.8;" xml:space="preserve">
<style type="text/css">
	.st0{fill:#B52728;}
	.st1{fill:#3A3B38;}
	.st2{fill:#929292;}
	.st3{fill:#6B6B6B;}
	.st4{fill:#9D9D9D;}
	.st5{fill:#FFFFFF;}
	.st6{fill:#C0C0C0;}
	.st7{opacity:0.5;}
	.st8{fill:#3A3C39;}
	.st9{fill:#C22026;}
	.st10{fill:#F2F2F2;}
	.st11{fill:#9E9E9E;}
	.st12{fill:#C1C1C1;}
	.st13{fill:#D3D3D3;}
	.st14{fill:#969696;}
	.st15{opacity:0.85;}
	.st16{fill:#4D4D4D;}
	.st17{fill:none;stroke:#4D4D4D;stroke-width:1.5;stroke-miterlimit:10;}
	.st18{fill:#22BF7C;}
	.st19{fill:#FF8400;}
	.st20{fill:#B0B0B0;}
	.st21{fill:none;stroke:#FFFFFF;stroke-width:1.5;stroke-miterlimit:10;}
	.st22{fill:#CCCCCC;}
	.st23{fill:#444444;}
</style>
<g>
	<g class="st7">
		<path class="st16" d="M6,4.9H1V0H6V4.9z M2.5,3.4h1.9V1.5H2.5V3.4z"/>
	</g>
	<g>
		<path class="st16" d="M27.3,4.9H8.7V0h18.6V4.9z M10.2,3.4h15.6V1.5H10.2V3.4z"/>
	</g>
	<g class="st7">
		<path class="st16" d="M3.5,14.3L0,10.8l3.5-3.5L7,10.8L3.5,14.3z M2.1,10.8l1.4,1.4l1.4-1.4L3.5,9.4L2.1,10.8z"/>
	</g>
	<g>
		<polygon class="st16" points="27.3,13.2 8.7,13.2 8.7,9.1 10.2,9.1 10.2,11.7 25.8,11.7 25.8,9.1 27.3,9.1 		"/>
	</g>
	<g>
		<path class="st16" d="M27.3,27.4H8.7V16.6h18.6V27.4z M10.2,25.9h15.6v-7.8H10.2V25.9z"/>
	</g>
	<g class="st7">
		<path class="st16" d="M3.5,22.1c-1.7,0-3-1.4-3-3s1.4-3,3-3s3,1.4,3,3S5.2,22.1,3.5,22.1z M3.5,17.5c-0.9,0-1.5,0.7-1.5,1.5
			s0.7,1.5,1.5,1.5S5,19.9,5,19.1S4.3,17.5,3.5,17.5z"/>
	</g>
	<g>
		<rect x="11.9" y="19.5" class="st16" width="11.9" height="1.5"/>
	</g>
	<g>
		<rect x="11.9" y="22.7" class="st16" width="4.7" height="1.5"/>
	</g>
	<g>
		<rect x="32.1" y="0" class="st16" width="1.5" height="31.8"/>
	</g>
	<g>
		<rect x="8.7" y="30.3" class="st16" width="18.6" height="1.5"/>
	</g>
	<g class="st7">
		<rect x="1" y="30.3" class="st16" width="5.5" height="1.5"/>
	</g>
</g>
</svg>
