<?xml version="1.0" encoding="utf-8"?>
<!-- Generator: Adobe Illustrator 22.1.0, SVG Export Plug-In . SVG Version: 6.00 Build 0)  -->
<svg version="1.1" id="Capa_1" xmlns="http://www.w3.org/2000/svg" xmlns:xlink="http://www.w3.org/1999/xlink" x="0px" y="0px"
	 viewBox="0 0 32.6 30.3" style="enable-background:new 0 0 32.6 30.3;" xml:space="preserve">
<style type="text/css">
	.st0{fill:#B52728;}
	.st1{fill:#3A3B38;}
	.st2{fill:#929292;}
	.st3{fill:#6B6B6B;}
	.st4{fill:#9D9D9D;}
	.st5{fill:#FFFFFF;}
	.st6{fill:#C0C0C0;}
	.st7{opacity:0.5;}
	.st8{fill:#3A3C39;}
	.st9{fill:#C22026;}
	.st10{fill:#F2F2F2;}
	.st11{fill:#9E9E9E;}
	.st12{fill:#C1C1C1;}
	.st13{fill:#D3D3D3;}
	.st14{fill:#969696;}
	.st15{opacity:0.85;}
	.st16{fill:#4D4D4D;}
	.st17{fill:none;stroke:#4D4D4D;stroke-width:1.5;stroke-miterlimit:10;}
	.st18{fill:#22BF7C;}
	.st19{fill:#FF8400;}
	.st20{fill:#B0B0B0;}
	.st21{fill:none;stroke:#FFFFFF;stroke-width:1.5;stroke-miterlimit:10;}
	.st22{fill:#CCCCCC;}
	.st23{fill:#444444;}
</style>
<g>
	<g class="st7">
		<path class="st16" d="M4.9,5.5H0V0.6h4.9V5.5z M1.5,4h1.9V2.1H1.5V4z"/>
	</g>
	<g>
		<path class="st16" d="M26.3,5.5H7.7V0.6h18.6V5.5z M9.2,4h15.6V2.1H9.2V4z"/>
	</g>
	<g class="st7">
		<path class="st16" d="M4.9,13.8H0V8.9h4.9V13.8z M1.5,12.3h1.9v-1.9H1.5V12.3z"/>
	</g>
	<g>
		<path class="st16" d="M26.3,13.8H7.7V8.9h18.6V13.8z M9.2,12.3h15.6v-1.9H9.2V12.3z"/>
	</g>
	<g class="st7">
		<path class="st16" d="M4.9,22.2H0v-4.9h4.9V22.2z M1.5,20.7h1.9v-1.9H1.5V20.7z"/>
	</g>
	<g>
		<path class="st16" d="M26.3,22.2H7.7v-4.9h18.6V22.2z M9.2,20.7h15.6v-1.9H9.2V20.7z"/>
	</g>
	<g class="st7">
		<path class="st16" d="M4.9,29.8H0v-4.9h4.9V29.8z M1.5,28.3h1.9v-1.9H1.5V28.3z"/>
	</g>
	<g>
		<path class="st16" d="M26.3,29.8H7.7v-4.9h18.6V29.8z M9.2,28.3h15.6v-1.9H9.2V28.3z"/>
	</g>
	<g>
		<rect x="31.1" y="0" class="st16" width="1.5" height="30.3"/>
	</g>
</g>
</svg>
