<?xml version="1.0" encoding="utf-8"?>
<!-- Generator: Adobe Illustrator 22.1.0, SVG Export Plug-In . SVG Version: 6.00 Build 0)  -->
<svg version="1.1" id="Capa_1" xmlns="http://www.w3.org/2000/svg" xmlns:xlink="http://www.w3.org/1999/xlink" x="0px" y="0px"
	 viewBox="0 0 29 34.1" style="enable-background:new 0 0 29 34.1;" xml:space="preserve">
<style type="text/css">
	.st0{fill:#B52728;}
	.st1{fill:#3A3B38;}
	.st2{fill:#929292;}
	.st3{fill:#6B6B6B;}
	.st4{fill:#9D9D9D;}
	.st5{fill:#FFFFFF;}
	.st6{fill:#C0C0C0;}
	.st7{opacity:0.5;}
	.st8{fill:#3A3C39;}
	.st9{fill:#C22026;}
	.st10{fill:#F2F2F2;}
	.st11{fill:#9E9E9E;}
	.st12{fill:#C1C1C1;}
	.st13{fill:#D3D3D3;}
	.st14{fill:#969696;}
	.st15{opacity:0.85;}
	.st16{fill:#4D4D4D;}
	.st17{fill:none;stroke:#4D4D4D;stroke-width:1.5;stroke-miterlimit:10;}
	.st18{fill:#22BF7C;}
	.st19{fill:#FF8400;}
	.st20{fill:#B0B0B0;}
	.st21{fill:none;stroke:#FFFFFF;stroke-width:1.5;stroke-miterlimit:10;}
	.st22{fill:#CCCCCC;}
	.st23{fill:#444444;}
</style>
<g>
	<g>
		<g>
			<path class="st16" d="M8.3,31.8H0.8c-0.4,0-0.8-0.3-0.8-0.8V0.8C0,0.3,0.3,0,0.8,0h18.7c0.2,0,0.4,0.1,0.5,0.2l6,5.3
				c0.2,0.1,0.3,0.3,0.3,0.6v6.9c0,0.4-0.3,0.8-0.8,0.8s-0.8-0.3-0.8-0.8V6.4l-5.6-4.9H1.5v28.8h6.8c0.4,0,0.8,0.3,0.8,0.8
				S8.7,31.8,8.3,31.8z"/>
		</g>
		<g>
			<path class="st16" d="M25.5,6.8h-6c-0.4,0-0.8-0.3-0.8-0.8V0.8c0-0.3,0.2-0.6,0.4-0.7C19.5-0.1,19.8,0,20,0.2l6,5.3
				c0.2,0.2,0.3,0.5,0.2,0.8C26.1,6.6,25.8,6.8,25.5,6.8z M20.2,5.3h3.3l-3.3-2.9V5.3z"/>
		</g>
	</g>
	<g class="st7">
		<rect x="3.6" y="6.3" class="st16" width="6.7" height="1.5"/>
	</g>
	<g>
		<rect x="3.6" y="9.5" class="st16" width="19" height="1.5"/>
	</g>
	<g>
		<rect x="3.6" y="11.9" class="st16" width="3.1" height="1.5"/>
	</g>
	<g class="st7">
		<rect x="7.6" y="11.9" class="st16" width="3.1" height="1.5"/>
	</g>
	<g>
		<rect x="11.5" y="11.9" class="st16" width="3.1" height="1.5"/>
	</g>
	<g class="st7">
		<rect x="15.5" y="11.9" class="st16" width="3.1" height="1.5"/>
	</g>
	<g>
		<rect x="19.5" y="11.9" class="st16" width="3.1" height="1.5"/>
	</g>
	<g>
		<rect x="11.5" y="14.3" class="st16" width="3.1" height="1.5"/>
	</g>
	<g class="st7">
		<rect x="15.5" y="14.3" class="st16" width="3.1" height="1.5"/>
	</g>
	<g>
		<rect x="19.5" y="14.3" class="st16" width="3.1" height="1.5"/>
	</g>
	<g>
		<rect x="3.6" y="14.3" class="st16" width="3.1" height="1.5"/>
	</g>
	<g class="st7">
		<rect x="7.6" y="14.3" class="st16" width="3.1" height="1.5"/>
	</g>
	<g class="st7">
		<rect x="7.6" y="16.7" class="st16" width="3.1" height="1.5"/>
	</g>
	<g class="st7">
		<rect x="7.6" y="19.1" class="st16" width="3.1" height="1.5"/>
	</g>
	<g class="st7">
		<rect x="7.6" y="21.5" class="st16" width="3.1" height="1.5"/>
	</g>
	<g class="st7">
		<rect x="7.6" y="24" class="st16" width="3.1" height="1.5"/>
	</g>
	<g>
		<rect x="3.6" y="16.7" class="st16" width="3.1" height="1.5"/>
	</g>
	<g>
		<rect x="3.6" y="19.1" class="st16" width="3.1" height="1.5"/>
	</g>
	<g>
		<rect x="3.6" y="21.5" class="st16" width="3.1" height="1.5"/>
	</g>
	<g>
		<rect x="3.6" y="24" class="st16" width="3.1" height="1.5"/>
	</g>
	<g>
		<path class="st16" d="M28.3,34.1h-16c-0.4,0-0.8-0.3-0.8-0.8s0.3-0.8,0.8-0.8h15.3V17.3c0-0.4,0.3-0.8,0.8-0.8s0.8,0.3,0.8,0.8v16
			C29,33.8,28.7,34.1,28.3,34.1z"/>
	</g>
	<g class="st7">
		<polygon class="st16" points="13,34.1 11.5,34.1 11.5,16.6 29,16.6 29,18.1 13,18.1 		"/>
	</g>
	<g>
		<path class="st16" d="M19.2,30.5c-0.2,0-0.5-0.1-0.7-0.3l-3.3-3c-0.4-0.4-0.4-1-0.1-1.4c0.4-0.4,1-0.4,1.4-0.1l2.5,2.3l5.8-7.2
			c0.3-0.4,1-0.5,1.4-0.2c0.4,0.3,0.5,1,0.2,1.4L20,30.2C19.8,30.4,19.6,30.5,19.2,30.5C19.3,30.5,19.3,30.5,19.2,30.5z"/>
	</g>
</g>
</svg>
