<?xml version="1.0" encoding="utf-8"?>
<!-- Generator: Adobe Illustrator 22.1.0, SVG Export Plug-In . SVG Version: 6.00 Build 0)  -->
<svg version="1.1" id="Capa_1" xmlns="http://www.w3.org/2000/svg" xmlns:xlink="http://www.w3.org/1999/xlink" x="0px" y="0px"
	 viewBox="0 0 35.5 31.3" style="enable-background:new 0 0 35.5 31.3;" xml:space="preserve">
<style type="text/css">
	.st0{fill:#B52728;}
	.st1{fill:#3A3B38;}
	.st2{fill:#929292;}
	.st3{fill:#6B6B6B;}
	.st4{fill:#9D9D9D;}
	.st5{fill:#FFFFFF;}
	.st6{fill:#C0C0C0;}
	.st7{opacity:0.5;}
	.st8{fill:#3A3C39;}
	.st9{fill:#C22026;}
	.st10{fill:#F2F2F2;}
	.st11{fill:#9E9E9E;}
	.st12{fill:#C1C1C1;}
	.st13{fill:#D3D3D3;}
	.st14{fill:#969696;}
	.st15{opacity:0.85;}
	.st16{fill:#4D4D4D;}
	.st17{fill:none;stroke:#4D4D4D;stroke-width:1.5;stroke-miterlimit:10;}
	.st18{fill:#22BF7C;}
	.st19{fill:#FF8400;}
	.st20{fill:#B0B0B0;}
	.st21{fill:none;stroke:#FFFFFF;stroke-width:1.5;stroke-miterlimit:10;}
	.st22{fill:#CCCCCC;}
	.st23{fill:#444444;}
</style>
<g>
	<g>
		<g>
			<g>
				<path class="st16" d="M34.8,15C34.7,15,34.7,15,34.8,15c-0.8,0-1.3-0.6-1.3-1.3V8c0-0.4-0.3-0.7-0.7-0.7c-0.4,0-0.7,0.3-0.7,0.7
					v5.6c0,0.8,0.3,1.5,0.9,2c-0.5,0.5-0.9,1.2-0.9,2v11c0,0.7-0.6,1.3-1.3,1.3c-0.4,0-0.7,0.3-0.7,0.7c0,0.4,0.3,0.7,0.7,0.7
					c1.5,0,2.7-1.2,2.7-2.7v-11c0-0.7,0.5-1.2,1.2-1.3c0,0,0.1,0,0.1,0c0.4,0,0.7-0.3,0.7-0.7S35.2,15,34.8,15z"/>
			</g>
		</g>
	</g>
	<g>
		<g>
			<g>
				<path class="st16" d="M30.8,0c-0.4,0-0.7,0.3-0.7,0.7c0,0.4,0.3,0.7,0.7,0.7c0.7,0,1.3,0.6,1.3,1.3v1.1c0,0.4,0.3,0.7,0.7,0.7
					s0.7-0.3,0.7-0.7V2.7C33.5,1.2,32.3,0,30.8,0z"/>
			</g>
		</g>
	</g>
	<g>
		<g>
			<g>
				<path class="st16" d="M4.7,29.9c-0.7,0-1.3-0.6-1.3-1.3v-11c0-0.8-0.3-1.5-0.9-2c0.5-0.5,0.9-1.2,0.9-2v-11C3.4,2,4,1.4,4.7,1.4
					c0.4,0,0.7-0.3,0.7-0.7C5.4,0.3,5.1,0,4.7,0C3.2,0,2,1.2,2,2.7v11c0,0.7-0.5,1.2-1.2,1.3c0,0-0.1,0-0.1,0C0.3,15,0,15.3,0,15.7
					c0,0.4,0.3,0.7,0.7,0.7c0,0,0.1,0,0.1,0C1.5,16.4,2,17,2,17.6v11c0,1.5,1.2,2.7,2.7,2.7c0.4,0,0.7-0.3,0.7-0.7
					C5.4,30.2,5.1,29.9,4.7,29.9z"/>
			</g>
		</g>
	</g>
	<g>
		<g>
			<g>
				<path class="st16" d="M10.1,2.4c-0.3-0.1-0.6,0-0.8,0.2L7.5,4.3c-0.3,0.3-0.3,0.7,0,1c0.3,0.3,0.7,0.3,1,0l0.6-0.6V9
					c0,0.4,0.3,0.7,0.7,0.7c0.4,0,0.7-0.3,0.7-0.7V3.1C10.5,2.8,10.3,2.5,10.1,2.4z"/>
			</g>
		</g>
	</g>
	<g>
		<g>
			<g>
				<path class="st16" d="M10.1,21.7c-0.3-0.1-0.6,0-0.8,0.2l-1.8,1.8c-0.3,0.3-0.3,0.7,0,1c0.3,0.3,0.7,0.3,1,0L9.1,24v4.2
					c0,0.4,0.3,0.7,0.7,0.7c0.4,0,0.7-0.3,0.7-0.7v-5.9C10.5,22,10.3,21.8,10.1,21.7z"/>
			</g>
		</g>
	</g>
	<g>
		<g>
			<g>
				<path class="st16" d="M16.2,21.7c-0.3-0.1-0.6,0-0.8,0.2l-1.8,1.8c-0.3,0.3-0.3,0.7,0,1c0.3,0.3,0.7,0.3,1,0l0.6-0.6v4.2
					c0,0.4,0.3,0.7,0.7,0.7c0.4,0,0.7-0.3,0.7-0.7v-5.9C16.6,22,16.4,21.8,16.2,21.7z"/>
			</g>
		</g>
	</g>
	<g>
		<g>
			<g>
				<path class="st16" d="M28.3,12c-0.3-0.1-0.6,0-0.8,0.2L25.8,14c-0.3,0.3-0.3,0.7,0,1c0.3,0.3,0.7,0.3,1,0l0.6-0.6v4.2
					c0,0.4,0.3,0.7,0.7,0.7s0.7-0.3,0.7-0.7v-5.9C28.7,12.4,28.6,12.1,28.3,12z"/>
			</g>
		</g>
	</g>
	<g>
		<g>
			<path class="st14" d="M17,4.6c0-1.3-1-2.3-2.3-2.3s-2.3,1-2.3,2.3v2.7c0,1.3,1,2.3,2.3,2.3s2.3-1,2.3-2.3L17,4.6L17,4.6z
				 M15.6,7.4c0,0.5-0.4,0.9-0.9,0.9c-0.5,0-0.9-0.4-0.9-0.9V4.6c0-0.5,0.4-0.9,0.9-0.9c0.5,0,0.9,0.4,0.9,0.9V7.4z"/>
		</g>
	</g>
	<g>
		<g>
			<g>
				<path class="st16" d="M21.9,2.4c-0.3-0.1-0.6,0-0.8,0.2l-1.8,1.8c-0.3,0.3-0.3,0.7,0,1c0.3,0.3,0.7,0.3,1,0l0.6-0.6V9
					c0,0.4,0.3,0.7,0.7,0.7s0.7-0.3,0.7-0.7V3.1C22.3,2.8,22.1,2.5,21.9,2.4z"/>
			</g>
		</g>
	</g>
	<g>
		<g>
			<g>
				<g>
					<path class="st14" d="M26.9,2.4c-1.3,0-2.3,1-2.3,2.3v2.7c0,1.3,1,2.3,2.3,2.3s2.3-1,2.3-2.3V4.6C29.1,3.4,28.1,2.4,26.9,2.4z
						 M27.7,7.4c0,0.5-0.4,0.9-0.9,0.9S26,7.9,26,7.4V4.6c0-0.5,0.4-0.9,0.9-0.9c0.5,0,0.9,0.4,0.9,0.9V7.4z"/>
				</g>
			</g>
		</g>
	</g>
	<g>
		<g>
			<path class="st14" d="M8.6,12c-1.3,0-2.3,1-2.3,2.3V17c0,1.3,1,2.3,2.3,2.3c1.3,0,2.3-1,2.3-2.3v-2.7C10.9,13,9.9,12,8.6,12z
				 M9.5,17c0,0.5-0.4,0.9-0.9,0.9c-0.5,0-0.9-0.4-0.9-0.9v-2.7c0-0.5,0.4-0.9,0.9-0.9s0.9,0.4,0.9,0.9V17z"/>
		</g>
	</g>
	<g>
		<g>
			<path class="st14" d="M14.7,12c-1.3,0-2.3,1-2.3,2.3V17c0,1.3,1,2.3,2.3,2.3s2.3-1,2.3-2.3v-2.7C17,13,16,12,14.7,12z M15.6,17
				c0,0.5-0.4,0.9-0.9,0.9c-0.5,0-0.9-0.4-0.9-0.9v-2.7c0-0.5,0.4-0.9,0.9-0.9c0.5,0,0.9,0.4,0.9,0.9V17z"/>
		</g>
	</g>
	<g>
		<g>
			<path class="st14" d="M20.9,12c-1.3,0-2.3,1-2.3,2.3V17c0,1.3,1,2.3,2.3,2.3c1.3,0,2.3-1,2.3-2.3v-2.7C23.1,13,22.1,12,20.9,12z
				 M21.8,17c0,0.5-0.4,0.9-0.9,0.9S20,17.5,20,17v-2.7c0-0.5,0.4-0.9,0.9-0.9s0.9,0.4,0.9,0.9V17z"/>
		</g>
	</g>
	<g>
		<g>
			<path class="st14" d="M20.9,21.6c-1.3,0-2.3,1-2.3,2.3v2.7c0,1.3,1,2.3,2.3,2.3c1.3,0,2.3-1,2.3-2.3v-2.7
				C23.1,22.7,22.1,21.6,20.9,21.6z M21.8,26.7c0,0.5-0.4,0.9-0.9,0.9S20,27.1,20,26.7v-2.7c0-0.5,0.4-0.9,0.9-0.9s0.9,0.4,0.9,0.9
				V26.7z"/>
		</g>
	</g>
	<g>
		<g>
			<path class="st14" d="M26.9,21.6c-1.3,0-2.3,1-2.3,2.3v2.7c0,1.3,1,2.3,2.3,2.3s2.3-1,2.3-2.3v-2.7
				C29.1,22.7,28.1,21.6,26.9,21.6z M27.7,26.7c0,0.5-0.4,0.9-0.9,0.9S26,27.1,26,26.7v-2.7c0-0.5,0.4-0.9,0.9-0.9
				c0.5,0,0.9,0.4,0.9,0.9V26.7z"/>
		</g>
	</g>
	<g>
		<g>
			<g>
				<path class="st16" d="M32.8,5.2c-0.9,0-0.9,1.4,0,1.4C33.7,6.6,33.7,5.2,32.8,5.2z"/>
			</g>
		</g>
	</g>
</g>
</svg>
