<?xml version="1.0" encoding="utf-8"?>
<!-- Generator: Adobe Illustrator 22.1.0, SVG Export Plug-In . SVG Version: 6.00 Build 0)  -->
<svg version="1.1" id="Capa_1" xmlns="http://www.w3.org/2000/svg" xmlns:xlink="http://www.w3.org/1999/xlink" x="0px" y="0px"
	 viewBox="0 0 28.4 33.9" style="enable-background:new 0 0 28.4 33.9;" xml:space="preserve">
<style type="text/css">
	.st0{fill:#B52728;}
	.st1{fill:#3A3B38;}
	.st2{fill:#929292;}
	.st3{fill:#6B6B6B;}
	.st4{fill:#9D9D9D;}
	.st5{fill:#FFFFFF;}
	.st6{fill:#C0C0C0;}
	.st7{opacity:0.5;}
	.st8{fill:#3A3C39;}
	.st9{fill:#C22026;}
	.st10{fill:#F2F2F2;}
	.st11{fill:#9E9E9E;}
	.st12{fill:#C1C1C1;}
	.st13{fill:#D3D3D3;}
	.st14{fill:#969696;}
	.st15{opacity:0.85;}
	.st16{fill:#4D4D4D;}
	.st17{fill:none;stroke:#4D4D4D;stroke-width:1.5;stroke-miterlimit:10;}
	.st18{fill:#22BF7C;}
	.st19{fill:#FF8400;}
	.st20{fill:#B0B0B0;}
	.st21{fill:none;stroke:#FFFFFF;stroke-width:1.5;stroke-miterlimit:10;}
	.st22{fill:#CCCCCC;}
	.st23{fill:#444444;}
</style>
<g>
	<g>
		<path class="st16" d="M27.7,31.8H2.9c-0.4,0-0.8-0.3-0.8-0.8V0.8C2.1,0.3,2.5,0,2.9,0h18.7c0.2,0,0.4,0.1,0.5,0.2l6,5.3
			c0.2,0.1,0.3,0.3,0.3,0.6v25.1C28.4,31.5,28.1,31.8,27.7,31.8z M3.6,30.3h23.3v-24l-5.6-4.9H3.6V30.3z"/>
	</g>
	<g class="st7">
		<path class="st16" d="M25.5,33.9H0.7c-0.4,0-0.8-0.3-0.8-0.8V2.8c0-0.4,0.3-0.8,0.8-0.8s0.7,0.3,0.7,0.8v29.6h24
			c0.4,0,0.8,0.3,0.8,0.8S25.9,33.9,25.5,33.9z"/>
	</g>
	<g>
		<path class="st16" d="M27.7,6.8h-6c-0.4,0-0.8-0.3-0.8-0.8V0.8c0-0.3,0.2-0.6,0.4-0.7c0.3-0.1,0.6-0.1,0.8,0.1l6,5.3
			c0.2,0.2,0.3,0.5,0.2,0.8C28.2,6.6,28,6.8,27.7,6.8z M22.4,5.3h3.3l-3.3-2.9V5.3z"/>
	</g>
	<g>
		<path class="st16" d="M17.3,8.2c-0.5-0.3-1-0.6-1.5-0.7v1.8c1.8,0.5,2.6,1.2,2.6,2.6v0c0,1.3-1,2.2-2.5,2.4v1.2h-1.2v-1.2
			c-1-0.1-2-0.5-2.8-1.1l0.9-1.4c0.6,0.5,1.2,0.8,2,1v-1.9c-1.7-0.5-2.6-1.1-2.6-2.5v0c0-1.3,1-2.2,2.5-2.4V5.2h1.2v0.7
			c0.9,0.1,1.6,0.4,2.2,0.9L17.3,8.2z M14.7,9V7.4c-0.6,0.1-0.8,0.4-0.8,0.7v0C13.8,8.5,14,8.8,14.7,9z M15.8,11.1v1.7
			c0.6-0.1,0.9-0.3,0.9-0.8v0C16.6,11.6,16.4,11.3,15.8,11.1z"/>
	</g>
	<g class="st7">
		<rect x="5.7" y="18" class="st16" width="6.7" height="1.5"/>
	</g>
	<g>
		<rect x="5.7" y="21.2" class="st16" width="19" height="1.5"/>
	</g>
	<g>
		<rect x="5.7" y="23.6" class="st16" width="3.1" height="1.5"/>
	</g>
	<g class="st7">
		<rect x="9.7" y="23.6" class="st16" width="3.1" height="1.5"/>
	</g>
	<g>
		<rect x="13.7" y="23.6" class="st16" width="3.1" height="1.5"/>
	</g>
	<g class="st7">
		<rect x="17.6" y="23.6" class="st16" width="3.1" height="1.5"/>
	</g>
	<g>
		<rect x="21.6" y="23.6" class="st16" width="3.1" height="1.5"/>
	</g>
	<g>
		<rect x="5.7" y="26" class="st16" width="3.1" height="1.5"/>
	</g>
	<g class="st7">
		<rect x="9.7" y="26" class="st16" width="3.1" height="1.5"/>
	</g>
	<g>
		<rect x="13.7" y="26" class="st16" width="3.1" height="1.5"/>
	</g>
	<g class="st7">
		<rect x="17.6" y="26" class="st16" width="3.1" height="1.5"/>
	</g>
	<g>
		<rect x="21.6" y="26" class="st16" width="3.1" height="1.5"/>
	</g>
</g>
</svg>
