<?xml version="1.0" encoding="utf-8"?>
<!-- Generator: Adobe Illustrator 22.1.0, SVG Export Plug-In . SVG Version: 6.00 Build 0)  -->
<svg version="1.1" id="Capa_1" xmlns="http://www.w3.org/2000/svg" xmlns:xlink="http://www.w3.org/1999/xlink" x="0px" y="0px"
	 viewBox="0 0 31.5 34.5" style="enable-background:new 0 0 31.5 34.5;" xml:space="preserve">
<style type="text/css">
	.st0{fill:#B52728;}
	.st1{fill:#3A3B38;}
	.st2{fill:#929292;}
	.st3{fill:#6B6B6B;}
	.st4{fill:#9D9D9D;}
	.st5{fill:#FFFFFF;}
	.st6{fill:#C0C0C0;}
	.st7{opacity:0.5;}
	.st8{fill:#3A3C39;}
	.st9{fill:#C22026;}
	.st10{fill:#F2F2F2;}
	.st11{fill:#9E9E9E;}
	.st12{fill:#C1C1C1;}
	.st13{fill:#D3D3D3;}
	.st14{fill:#969696;}
	.st15{opacity:0.85;}
	.st16{fill:#4D4D4D;}
	.st17{fill:none;stroke:#4D4D4D;stroke-width:1.5;stroke-miterlimit:10;}
	.st18{fill:#22BF7C;}
	.st19{fill:#FF8400;}
	.st20{fill:#B0B0B0;}
	.st21{fill:none;stroke:#FFFFFF;stroke-width:1.5;stroke-miterlimit:10;}
	.st22{fill:#CCCCCC;}
	.st23{fill:#444444;}
</style>
<g>
	<g>
		<g>
			<g>
				<path class="st16" d="M28.1,25.1L24,23.5l-2.1-2.1c-0.1-0.1-0.3-0.2-0.5-0.2v-1.7c1-1.1,1.7-2.4,2-3.9c0.2,0,0.4,0,0.5,0
					c1-0.2,1.7-1.1,1.7-2.2v-0.5c0-0.6-0.3-1.2-0.7-1.6c0.7-3.6,0.1-6.6-1.6-8.5c-1.7-1.9-4.3-2.8-7.7-2.6c-3.1,0.2-5.1,1.6-5.8,2.1
					C9.6,2.3,9,2.4,8.4,2.8C7.6,3.3,6.6,4.3,6.6,6.5c0,1.9,0.3,3.5,0.5,4.4c-0.7,0.4-1.2,1.1-1.2,2v0.5c0,1.1,0.7,2,1.7,2.2
					c0.2,0,0.4,0,0.5,0c0.3,1.5,1,2.8,2,3.9v1.7c-0.2,0-0.3,0.1-0.5,0.2l-2.1,2.1l-4.1,1.6c-0.4,0.1-0.7,0.3-1,0.5
					c-0.3,0.2-0.4,0.7-0.2,1C2.4,26.9,2.6,27,2.8,27c0.1,0,0.3,0,0.4-0.1c0.2-0.1,0.5-0.3,0.7-0.4l3.8-1.5l2.9,4.4
					c0.4,0.5,0.9,0.9,1.6,1c0.1,0,0.1,0,0.2,0c0.4,0,0.7-0.1,1.1-0.3l-0.6,3.5c0,0.4,0.3,0.8,0.7,0.8c0,0,0,0,0,0
					c0.4,0,0.7-0.3,0.8-0.7l0.6-2.5h1.6l0.6,2.5c0,0.4,0.4,0.7,0.8,0.7c0,0,0,0,0,0c0.4,0,0.7-0.4,0.7-0.8L18,30.1
					c0.3,0.2,0.7,0.3,1.1,0.3c0.1,0,0.1,0,0.2,0c0.6-0.1,1.2-0.4,1.6-1l2.9-4.4l3.8,1.5C28.1,26.7,29,25.6,28.1,25.1z M9.6,15.3
					c-0.2-0.7-0.8-1.2-1.5-1.2c-0.1,0-0.1,0-0.2,0c-0.3-0.1-0.5-0.4-0.5-0.7v-0.5c0-0.3,0.2-0.7,0.5-0.7c0.3,0,0.5,0,0.6,0.2
					c0.1,0.2,0.3,0.3,0.5,0.4c0.3,0.1,0.6,0,0.9-0.1c0.5-0.3,0.9-0.7,1.2-1.2c0.2-0.3,0.2-0.8-0.2-1.1c-0.3-0.2-0.8-0.2-1.1,0.2
					c-0.2,0.2-0.4,0.4-0.6,0.6c-0.2-0.2-0.5-0.4-0.8-0.4C8.4,10,8.1,8.4,8.1,6.5c0-1.2,0.4-2,1.1-2.4c0.5-0.3,1.1-0.4,1.1-0.4
					c0.2,0,0.4-0.1,0.5-0.2c0,0,1.9-1.7,5-1.9c2.9-0.2,5.1,0.6,6.5,2.1c1.3,1.6,1.8,3.9,1.3,6.9c-0.2,0-0.4,0-0.6,0L22.3,9
					c-0.1-0.3-0.5-0.5-0.9-0.4c-0.1,0-7,1.8-9.9-1.8c-0.3-0.3-0.7-0.4-1.1-0.1C10,6.9,10,7.4,10.3,7.7c3,3.7,8.9,2.9,10.9,2.5
					l0.5,1.3c0.2,0.6,0.8,0.9,1.4,0.7c0.2-0.1,0.5-0.1,0.6,0c0.3,0.1,0.5,0.4,0.5,0.7v0.5c0,0.4-0.2,0.7-0.5,0.7c-0.1,0-0.1,0-0.2,0
					c-0.7-0.1-1.4,0.5-1.5,1.2c-0.7,4-5.1,6.5-9.3,4.4C10.9,18.9,10,17.2,9.6,15.3z M12.9,28.7c-0.2,0.2-0.4,0.2-0.5,0.2
					c-0.1,0-0.3-0.1-0.5-0.3L9,24.2l1.2-1.2l4.5,3.9L12.9,28.7z M15.1,29.7l0-1l0.7-0.7l0.7,0.7l0,1H15.1z M15.8,25.9l-4.2-3.7v-1.4
					c1.2,0.8,2.7,1.2,4.2,1.2s3-0.4,4.2-1.2v1.4L15.8,25.9z M19.6,28.6c-0.1,0.2-0.4,0.3-0.5,0.3c-0.1,0-0.3,0-0.5-0.2L16.9,27
					l4.5-3.9l1.2,1.2L19.6,28.6z"/>
				<path class="st16" d="M17.9,34.5c-0.5,0-0.8-0.4-0.9-0.8l-0.6-2.4h-1.4l-0.6,2.4c0,0.4-0.4,0.8-0.8,0.8l0,0
					c-0.5,0-0.8-0.4-0.8-0.9l0.6-3.3c-0.4,0.2-0.8,0.2-1.2,0.2c-0.7-0.1-1.3-0.4-1.7-1l-2.9-4.3L4,26.6c-0.2,0.1-0.5,0.2-0.7,0.4
					c-0.1,0.1-0.3,0.1-0.5,0.1c-0.3,0-0.5-0.1-0.7-0.4c-0.3-0.4-0.2-0.9,0.2-1.2c0.3-0.2,0.7-0.4,1-0.5l4.1-1.6l2.1-2.1
					c0.1-0.1,0.3-0.2,0.5-0.2v-1.5c-1-1.1-1.7-2.4-2-3.8c-0.2,0-0.3,0-0.5,0c-1-0.2-1.8-1.2-1.8-2.3v-0.5c0-0.9,0.5-1.7,1.2-2.1
					c-0.2-1-0.5-2.5-0.5-4.3c0-2.2,1-3.3,1.9-3.8c0.6-0.4,1.2-0.5,1.6-0.5c0.7-0.6,2.7-2,5.8-2.1c3.4-0.2,6.1,0.7,7.8,2.7
					c1.7,2,2.3,4.9,1.6,8.6c0.4,0.4,0.7,1,0.7,1.6v0.5c0,1.1-0.8,2.1-1.8,2.3c-0.2,0-0.3,0-0.5,0c-0.3,1.4-1,2.7-2,3.8v1.5
					c0.2,0,0.3,0.1,0.5,0.2l2.1,2.1l4.1,1.6c0.5,0.2,0.5,0.7,0.3,1c-0.2,0.4-0.6,0.7-1,0.6l-3.7-1.4L21,29.5c-0.4,0.6-1,0.9-1.7,1
					c-0.4,0-0.8,0-1.2-0.2l0.6,3.3c0,0.2-0.1,0.5-0.2,0.6C18.4,34.4,18.2,34.5,17.9,34.5L17.9,34.5z M14.9,31.1h1.7l0,0.1l0.6,2.5
					c0,0.4,0.3,0.6,0.7,0.6l0,0c0.2,0,0.3-0.1,0.5-0.2c0.1-0.1,0.2-0.3,0.2-0.5l-0.7-3.7l0.2,0.1c0.4,0.2,0.8,0.3,1.2,0.3
					c0.6-0.1,1.2-0.4,1.5-0.9l3-4.4l3.9,1.5c0.2,0.1,0.6-0.2,0.7-0.5c0.1-0.1,0.2-0.5-0.2-0.7L24,23.6l-2.1-2.1
					c-0.1-0.1-0.3-0.2-0.4-0.2l-0.1,0v-1.8l0,0c1-1.1,1.7-2.4,1.9-3.8l0-0.1l0.1,0c0.2,0,0.3,0,0.5,0c1-0.2,1.6-1.1,1.6-2.1v-0.5
					c0-0.6-0.2-1.1-0.6-1.5l0,0l0-0.1c0.7-3.6,0.1-6.5-1.6-8.5c-1.6-1.9-4.3-2.8-7.6-2.6c-3.1,0.2-5,1.5-5.7,2.1l0,0l0,0
					c-0.3,0-0.9,0.2-1.5,0.5C7.6,3.4,6.7,4.4,6.7,6.5c0,1.8,0.3,3.4,0.5,4.3l0,0.1l-0.1,0C6.4,11.3,6,12.1,6,12.9v0.5
					c0,1,0.7,1.9,1.7,2.1c0.2,0,0.3,0,0.5,0l0.1,0l0,0.1c0.3,1.4,0.9,2.8,1.9,3.8l0,0v1.8l-0.1,0c-0.2,0-0.3,0.1-0.4,0.2l-2.1,2.1
					l-4.1,1.6c-0.3,0.1-0.7,0.3-1,0.5c-0.3,0.2-0.4,0.6-0.2,0.9c0.2,0.3,0.6,0.4,0.9,0.2c0.2-0.2,0.5-0.3,0.7-0.4l3.9-1.5l0,0.1
					l2.9,4.4c0.3,0.5,0.9,0.8,1.5,0.9c0.4,0,0.8,0,1.2-0.3l0.2-0.1L13,33.6c0,0.3,0.3,0.7,0.6,0.7l0,0c0.4,0,0.6-0.3,0.7-0.6
					L14.9,31.1z M16.6,29.8H15l0.1-1.2l0,0l0.7-0.7l0.8,0.8l0,0L16.6,29.8z M15.2,29.6h1.2l0-0.9l-0.6-0.6l-0.6,0.6L15.2,29.6z
					 M12.5,29C12.4,29,12.4,29,12.5,29c-0.2,0-0.5-0.1-0.6-0.3l-3-4.5l1.3-1.3l4.7,4.1L13,28.8C12.8,29,12.6,29,12.5,29z M9.1,24.2
					l2.9,4.3c0.1,0.2,0.3,0.2,0.4,0.2c0.1,0,0.3,0,0.4-0.2h0l1.7-1.7l-4.3-3.8L9.1,24.2z M19.1,29c-0.1,0-0.4,0-0.5-0.2L16.7,27
					l0.1-0.1l4.6-4l1.3,1.3l0,0.1l-2.9,4.4C19.5,28.9,19.3,29,19.1,29C19.1,29,19.1,29,19.1,29z M17,27l1.7,1.7
					c0.2,0.2,0.4,0.2,0.4,0.2c0.1,0,0.3-0.1,0.4-0.2v0l2.9-4.3l-1.1-1.1L17,27z M15.8,26.1L15.8,26.1l-4.3-3.7v-1.7l0.2,0.1
					c1.2,0.8,2.7,1.2,4.1,1.2c1.5,0,2.9-0.4,4.1-1.2l0.2-0.1v1.7L15.8,26.1z M11.7,22.2l4.1,3.6l4.1-3.6V21
					c-1.2,0.7-2.6,1.1-4.1,1.1c-1.4,0-2.8-0.4-4.1-1.1V22.2z M15.8,20.6c-1.1,0-2.2-0.3-3.2-0.8C11,19,9.9,17.5,9.5,15.4
					c-0.1-0.7-0.8-1.1-1.4-1.1c-0.1,0-0.1,0-0.2,0c-0.3-0.1-0.6-0.4-0.6-0.8v-0.5c0-0.4,0.3-0.8,0.6-0.8c0.3-0.1,0.6,0.1,0.7,0.3
					c0.1,0.2,0.3,0.3,0.5,0.3c0.3,0.1,0.6,0,0.8-0.1c0.5-0.3,0.9-0.7,1.2-1.2c0.2-0.3,0.2-0.7-0.1-0.9c-0.1-0.1-0.3-0.1-0.5-0.1
					s-0.3,0.1-0.4,0.3c-0.2,0.2-0.4,0.5-0.6,0.6l-0.1,0.1l-0.1-0.1c-0.2-0.2-0.5-0.3-0.8-0.4l-0.1,0l0-0.1C8.3,10,8,8.4,8,6.5
					c0-1.2,0.4-2,1.1-2.5c0.6-0.4,1.2-0.4,1.2-0.4c0.2,0,0.3-0.1,0.5-0.2c0,0,1.9-1.8,5.1-1.9c2.9-0.2,5.2,0.6,6.6,2.2
					c1.4,1.6,1.8,4,1.3,7l0,0.1l-0.1,0c-0.2,0-0.4,0-0.6,0l-0.1,0l0-0.1l-0.7-1.7c-0.1-0.3-0.5-0.5-0.8-0.4c-0.1,0-7.1,1.8-10-1.9
					c-0.1-0.1-0.3-0.2-0.4-0.2c-0.2,0-0.3,0-0.5,0.1c-0.1,0.1-0.2,0.3-0.2,0.4c0,0.2,0,0.3,0.1,0.5c3,3.7,9,2.8,10.8,2.5l0.1,0
					l0.6,1.4c0.2,0.5,0.8,0.8,1.3,0.7c0.2-0.1,0.5-0.1,0.6,0c0.4,0.1,0.6,0.4,0.6,0.8v0.5c0,0.4-0.3,0.8-0.6,0.8c-0.1,0-0.1,0-0.2,0
					c0,0-0.1,0-0.1,0c-0.6,0-1.2,0.5-1.3,1.1c-0.4,2-1.7,3.7-3.5,4.6C17.7,20.4,16.8,20.6,15.8,20.6z M8.2,14.1
					c0.7,0,1.4,0.5,1.5,1.2c0.4,2,1.5,3.6,3,4.3c1.9,1,4,1,5.8,0.2c1.8-0.9,3-2.5,3.4-4.4c0.1-0.7,0.8-1.3,1.5-1.3c0,0,0.1,0,0.1,0
					c0.1,0,0.1,0,0.1,0c0.3-0.1,0.4-0.3,0.4-0.6v-0.5c0-0.3-0.2-0.6-0.5-0.6c-0.1,0-0.3,0-0.5,0c-0.6,0.1-1.3-0.2-1.5-0.8L21,10.3
					c-1.9,0.4-7.9,1.2-10.9-2.6C10,7.6,10,7.3,10,7.1c0-0.2,0.1-0.4,0.3-0.6c0.2-0.1,0.4-0.2,0.6-0.2c0.2,0,0.4,0.1,0.6,0.3
					c2.9,3.6,9.8,1.8,9.8,1.8c0.4-0.1,0.8,0.1,1,0.5l0.7,1.6c0.2,0,0.3,0,0.5,0c0.5-2.9,0-5.3-1.3-6.8c-1.3-1.5-3.5-2.2-6.4-2.1
					c-3.1,0.2-5,1.9-5,1.9c-0.2,0.1-0.4,0.2-0.6,0.2c0,0-0.6,0-1.1,0.3c-0.7,0.4-1,1.2-1,2.3c0,1.8,0.3,3.4,0.5,4.2
					c0.3,0.1,0.5,0.2,0.7,0.4c0.2-0.2,0.4-0.4,0.5-0.6c0.1-0.2,0.3-0.3,0.6-0.3c0.2,0,0.5,0,0.6,0.2c0.4,0.3,0.5,0.8,0.2,1.2
					c-0.4,0.5-0.8,0.9-1.3,1.2c-0.3,0.2-0.7,0.3-1,0.2c-0.2-0.1-0.4-0.2-0.6-0.4c-0.1-0.2-0.3-0.2-0.5-0.2c-0.3,0-0.4,0.3-0.4,0.6
					v0.5c0,0.3,0.2,0.6,0.4,0.6c0,0,0.1,0,0.1,0C8.1,14.1,8.1,14.1,8.2,14.1z"/>
			</g>
		</g>
	</g>
	<g>
		<path class="st16" d="M30.7,34.2c-0.4,0-0.8-0.3-0.8-0.8v-4.1c0-1-0.6-1.9-1.5-2.3l-0.8-0.4c-0.4-0.2-0.5-0.6-0.4-1
			c0.2-0.4,0.6-0.5,1-0.4l0.8,0.4c1.4,0.7,2.3,2.1,2.3,3.7v4.1C31.5,33.9,31.2,34.2,30.7,34.2z"/>
	</g>
	<g>
		<path class="st16" d="M0.7,34.2c-0.4,0-0.8-0.3-0.8-0.8v-4.1c0-1.6,0.9-3,2.3-3.7l0.8-0.4c0.4-0.2,0.8,0,1,0.4
			c0.2,0.4,0,0.8-0.4,1L3,27c-0.9,0.4-1.5,1.4-1.5,2.3v4.1C1.5,33.9,1.2,34.2,0.7,34.2z"/>
	</g>
</g>
</svg>
