<?xml version="1.0" encoding="UTF-8"?>
<svg width="34px" height="32px" viewBox="0 0 34 32" version="1.1" xmlns="http://www.w3.org/2000/svg" xmlns:xlink="http://www.w3.org/1999/xlink">
    <!-- Generator: Sketch 54.1 (76490) - https://sketchapp.com -->
    <title>advancedreport_iconwhitebg</title>
    <desc>Created with Sketch.</desc>
    <g id="Page-1" stroke="none" stroke-width="1" fill="none" fill-rule="evenodd">
        <g id="advancedreport_iconwhitebg" fill="#4D4D4D" fill-rule="nonzero">
            <g id="Group" opacity="0.5" transform="translate(1.000000, 0.000000)">
                <path d="M5,4.9 L0,4.9 L0,0 L5,0 L5,4.9 Z M1.5,3.4 L3.4,3.4 L3.4,1.5 L1.5,1.5 L1.5,3.4 Z" id="Shape"></path>
            </g>
            <path d="M27.3,4.9 L8.7,4.9 L8.7,0 L27.3,0 L27.3,4.9 Z M10.2,3.4 L25.8,3.4 L25.8,1.5 L10.2,1.5 L10.2,3.4 Z" id="Shape"></path>
            <g id="Group" opacity="0.5" transform="translate(0.000000, 7.000000)">
                <path d="M3.5,7.3 L0,3.8 L3.5,0.3 L7,3.8 L3.5,7.3 Z M2.1,3.8 L3.5,5.2 L4.9,3.8 L3.5,2.4 L2.1,3.8 Z" id="Shape"></path>
            </g>
            <polygon id="Path" points="27.3 13.2 8.7 13.2 8.7 9.1 10.2 9.1 10.2 11.7 25.8 11.7 25.8 9.1 27.3 9.1"></polygon>
            <path d="M27.3,27.4 L8.7,27.4 L8.7,16.6 L27.3,16.6 L27.3,27.4 Z M10.2,25.9 L25.8,25.9 L25.8,18.1 L10.2,18.1 L10.2,25.9 Z" id="Shape"></path>
            <g id="Group" opacity="0.5" transform="translate(0.000000, 16.000000)">
                <path d="M3.5,6.1 C1.8,6.1 0.5,4.7 0.5,3.1 C0.5,1.5 1.9,0.1 3.5,0.1 C5.1,0.1 6.5,1.5 6.5,3.1 C6.5,4.7 5.2,6.1 3.5,6.1 Z M3.5,1.5 C2.6,1.5 2,2.2 2,3 C2,3.8 2.7,4.5 3.5,4.5 C4.3,4.5 5,3.9 5,3.1 C5,2.3 4.3,1.5 3.5,1.5 Z" id="Shape"></path>
            </g>
            <rect id="Rectangle" x="11.9" y="19.5" width="11.9" height="1.5"></rect>
            <rect id="Rectangle" x="11.9" y="22.7" width="4.7" height="1.5"></rect>
            <rect id="Rectangle" x="32.1" y="0" width="1.5" height="31.8"></rect>
            <rect id="Rectangle" x="8.7" y="30.3" width="18.6" height="1.5"></rect>
            <g id="Group" opacity="0.5" transform="translate(1.000000, 30.000000)">
                <rect id="Rectangle" x="0" y="0.3" width="5.5" height="1.5"></rect>
            </g>
        </g>
    </g>
</svg>