<?xml version="1.0" encoding="UTF-8"?>
<svg width="33px" height="31px" viewBox="0 0 33 31" version="1.1" xmlns="http://www.w3.org/2000/svg" xmlns:xlink="http://www.w3.org/1999/xlink">
    <!-- Generator: Sketch 54.1 (76490) - https://sketchapp.com -->
    <title>basicreport_iconwhitebg</title>
    <desc>Created with Sketch.</desc>
    <g id="Page-1" stroke="none" stroke-width="1" fill="none" fill-rule="evenodd">
        <g id="basicreport_iconwhitebg" fill="#4D4D4D" fill-rule="nonzero">
            <g id="Group" opacity="0.5">
                <path d="M4.9,5.5 L0,5.5 L0,0.6 L4.9,0.6 L4.9,5.5 Z M1.5,4 L3.4,4 L3.4,2.1 L1.5,2.1 L1.5,4 Z" id="Shape"></path>
            </g>
            <path d="M26.3,5.5 L7.7,5.5 L7.7,0.6 L26.3,0.6 L26.3,5.5 Z M9.2,4 L24.8,4 L24.8,2.1 L9.2,2.1 L9.2,4 Z" id="Shape"></path>
            <g id="Group" opacity="0.5" transform="translate(0.000000, 8.000000)">
                <path d="M4.9,5.8 L0,5.8 L0,0.9 L4.9,0.9 L4.9,5.8 Z M1.5,4.3 L3.4,4.3 L3.4,2.4 L1.5,2.4 L1.5,4.3 Z" id="Shape"></path>
            </g>
            <path d="M26.3,13.8 L7.7,13.8 L7.7,8.9 L26.3,8.9 L26.3,13.8 Z M9.2,12.3 L24.8,12.3 L24.8,10.4 L9.2,10.4 L9.2,12.3 Z" id="Shape"></path>
            <g id="Group" opacity="0.5" transform="translate(0.000000, 17.000000)">
                <path d="M4.9,5.2 L0,5.2 L0,0.3 L4.9,0.3 L4.9,5.2 Z M1.5,3.7 L3.4,3.7 L3.4,1.8 L1.5,1.8 L1.5,3.7 Z" id="Shape"></path>
            </g>
            <path d="M26.3,22.2 L7.7,22.2 L7.7,17.3 L26.3,17.3 L26.3,22.2 Z M9.2,20.7 L24.8,20.7 L24.8,18.8 L9.2,18.8 L9.2,20.7 Z" id="Shape"></path>
            <g id="Group" opacity="0.5" transform="translate(0.000000, 24.000000)">
                <path d="M4.9,5.8 L0,5.8 L0,0.9 L4.9,0.9 L4.9,5.8 Z M1.5,4.3 L3.4,4.3 L3.4,2.4 L1.5,2.4 L1.5,4.3 Z" id="Shape"></path>
            </g>
            <path d="M26.3,29.8 L7.7,29.8 L7.7,24.9 L26.3,24.9 L26.3,29.8 Z M9.2,28.3 L24.8,28.3 L24.8,26.4 L9.2,26.4 L9.2,28.3 Z" id="Shape"></path>
            <rect id="Rectangle" x="31.1" y="0" width="1.5" height="30.3"></rect>
        </g>
    </g>
</svg>