<?xml version="1.0" encoding="UTF-8"?>
<svg width="30px" height="35px" viewBox="0 0 30 35" version="1.1" xmlns="http://www.w3.org/2000/svg" xmlns:xlink="http://www.w3.org/1999/xlink">
    <!-- Generator: Sketch 54.1 (76490) - https://sketchapp.com -->
    <title>completedreports_iconwhitebg</title>
    <desc>Created with Sketch.</desc>
    <g id="Page-1" stroke="none" stroke-width="1" fill="none" fill-rule="evenodd">
        <g id="completedreports_iconwhitebg" transform="translate(0.000000, -1.000000)" fill="#4D4D4D" fill-rule="nonzero">
            <g id="Group">
                <path d="M8.3,32.8 L0.8,32.8 C0.4,32.8 0,32.5 0,32 L0,1.8 C0,1.3 0.3,1 0.8,1 L19.5,1 C19.7,1 19.9,1.1 20,1.2 L26,6.5 C26.2,6.6 26.3,6.8 26.3,7.1 L26.3,14 C26.3,14.4 26,14.8 25.5,14.8 C25,14.8 24.7,14.5 24.7,14 L24.7,7.4 L19.1,2.5 L1.5,2.5 L1.5,31.3 L8.3,31.3 C8.7,31.3 9.1,31.6 9.1,32.1 C9.1,32.6 8.7,32.8 8.3,32.8 Z" id="Path"></path>
                <path d="M25.5,7.8 L19.5,7.8 C19.1,7.8 18.7,7.5 18.7,7 L18.7,1.8 C18.7,1.5 18.9,1.2 19.1,1.1 C19.5,0.9 19.8,1 20,1.2 L26,6.5 C26.2,6.7 26.3,7 26.2,7.3 C26.1,7.6 25.8,7.8 25.5,7.8 Z M20.2,6.3 L23.5,6.3 L20.2,3.4 L20.2,6.3 Z" id="Shape"></path>
            </g>
            <g id="Group" opacity="0.5" transform="translate(3.000000, 7.000000)">
                <rect id="Rectangle" x="0.6" y="0.3" width="6.7" height="1.5"></rect>
            </g>
            <rect id="Rectangle" x="3.6" y="10.5" width="19" height="1.5"></rect>
            <rect id="Rectangle" x="3.6" y="12.9" width="3.1" height="1.5"></rect>
            <g id="Group" opacity="0.5" transform="translate(7.000000, 12.000000)">
                <rect id="Rectangle" x="0.6" y="0.9" width="3.1" height="1.5"></rect>
            </g>
            <rect id="Rectangle" x="11.5" y="12.9" width="3.1" height="1.5"></rect>
            <g id="Group" opacity="0.5" transform="translate(15.000000, 12.000000)">
                <rect id="Rectangle" x="0.5" y="0.9" width="3.1" height="1.5"></rect>
            </g>
            <rect id="Rectangle" x="19.5" y="12.9" width="3.1" height="1.5"></rect>
            <rect id="Rectangle" x="11.5" y="15.3" width="3.1" height="1.5"></rect>
            <g id="Group" opacity="0.5" transform="translate(15.000000, 15.000000)">
                <rect id="Rectangle" x="0.5" y="0.3" width="3.1" height="1.5"></rect>
            </g>
            <rect id="Rectangle" x="19.5" y="15.3" width="3.1" height="1.5"></rect>
            <rect id="Rectangle" x="3.6" y="15.3" width="3.1" height="1.5"></rect>
            <g id="Group" opacity="0.5" transform="translate(7.000000, 15.000000)">
                <rect id="Rectangle" x="0.6" y="0.3" width="3.1" height="1.5"></rect>
            </g>
            <g id="Group" opacity="0.5" transform="translate(7.000000, 17.000000)">
                <rect id="Rectangle" x="0.6" y="0.7" width="3.1" height="1.5"></rect>
            </g>
            <g id="Group" opacity="0.5" transform="translate(7.000000, 20.000000)">
                <rect id="Rectangle" x="0.6" y="0.1" width="3.1" height="1.5"></rect>
            </g>
            <g id="Group" opacity="0.5" transform="translate(7.000000, 22.000000)">
                <rect id="Rectangle" x="0.6" y="0.5" width="3.1" height="1.5"></rect>
            </g>
            <g id="Group" opacity="0.5" transform="translate(7.000000, 25.000000)">
                <rect id="Rectangle" x="0.6" y="0" width="3.1" height="1.5"></rect>
            </g>
            <rect id="Rectangle" x="3.6" y="17.7" width="3.1" height="1.5"></rect>
            <rect id="Rectangle" x="3.6" y="20.1" width="3.1" height="1.5"></rect>
            <rect id="Rectangle" x="3.6" y="22.5" width="3.1" height="1.5"></rect>
            <rect id="Rectangle" x="3.6" y="25" width="3.1" height="1.5"></rect>
            <path d="M28.3,35.1 L12.3,35.1 C11.9,35.1 11.5,34.8 11.5,34.3 C11.5,33.8 11.8,33.5 12.3,33.5 L27.6,33.5 L27.6,18.3 C27.6,17.9 27.9,17.5 28.4,17.5 C28.9,17.5 29.2,17.8 29.2,18.3 L29.2,34.3 C29,34.8 28.7,35.1 28.3,35.1 Z" id="Path"></path>
            <g id="Group" opacity="0.5" transform="translate(11.000000, 17.000000)">
                <polygon id="Path" points="2 18.1 0.5 18.1 0.5 0.6 18 0.6 18 2.1 2 2.1"></polygon>
            </g>
            <path d="M19.2,31.5 C19,31.5 18.7,31.4 18.5,31.2 L15.2,28.2 C14.8,27.8 14.8,27.2 15.1,26.8 C15.5,26.4 16.1,26.4 16.5,26.7 L19,29 L24.8,21.8 C25.1,21.4 25.8,21.3 26.2,21.6 C26.6,21.9 26.7,22.6 26.4,23 L20,31.2 C19.8,31.4 19.6,31.5 19.2,31.5 C19.3,31.5 19.3,31.5 19.2,31.5 Z" id="Path"></path>
        </g>
    </g>
</svg>