<?xml version="1.0" encoding="UTF-8"?>
<svg width="36px" height="32px" viewBox="0 0 36 32" version="1.1" xmlns="http://www.w3.org/2000/svg" xmlns:xlink="http://www.w3.org/1999/xlink">
    <!-- Generator: Sketch 54.1 (76490) - https://sketchapp.com -->
    <title>configuration_iconwhitebg</title>
    <desc>Created with Sketch.</desc>
    <g id="Page-1" stroke="none" stroke-width="1" fill="none" fill-rule="evenodd">
        <g id="configuration_iconwhitebg" fill-rule="nonzero">
            <path d="M34.8,15 C34.7,15 34.7,15 34.8,15 C34,15 33.5,14.4 33.5,13.7 L33.5,8 C33.5,7.6 33.2,7.3 32.8,7.3 C32.4,7.3 32.1,7.6 32.1,8 L32.1,13.6 C32.1,14.4 32.4,15.1 33,15.6 C32.5,16.1 32.1,16.8 32.1,17.6 L32.1,28.6 C32.1,29.3 31.5,29.9 30.8,29.9 C30.4,29.9 30.1,30.2 30.1,30.6 C30.1,31 30.4,31.3 30.8,31.3 C32.3,31.3 33.5,30.1 33.5,28.6 L33.5,17.6 C33.5,16.9 34,16.4 34.7,16.3 C34.7,16.3 34.8,16.3 34.8,16.3 C35.2,16.3 35.5,16 35.5,15.6 C35.5,15.2 35.2,15 34.8,15 Z" id="Path" fill="#4D4D4D"></path>
            <path d="M30.8,0 C30.4,0 30.1,0.3 30.1,0.7 C30.1,1.1 30.4,1.4 30.8,1.4 C31.5,1.4 32.1,2 32.1,2.7 L32.1,3.8 C32.1,4.2 32.4,4.5 32.8,4.5 C33.2,4.5 33.5,4.2 33.5,3.8 L33.5,2.7 C33.5,1.2 32.3,0 30.8,0 Z" id="Path" fill="#4D4D4D"></path>
            <path d="M4.7,29.9 C4,29.9 3.4,29.3 3.4,28.6 L3.4,17.6 C3.4,16.8 3.1,16.1 2.5,15.6 C3,15.1 3.4,14.4 3.4,13.6 L3.4,2.6 C3.4,2 4,1.4 4.7,1.4 C5.1,1.4 5.4,1.1 5.4,0.7 C5.4,0.3 5.1,0 4.7,0 C3.2,0 2,1.2 2,2.7 L2,13.7 C2,14.4 1.5,14.9 0.8,15 C0.8,15 0.7,15 0.7,15 C0.3,15 0,15.3 0,15.7 C0,16.1 0.3,16.4 0.7,16.4 C0.7,16.4 0.8,16.4 0.8,16.4 C1.5,16.4 2,17 2,17.6 L2,28.6 C2,30.1 3.2,31.3 4.7,31.3 C5.1,31.3 5.4,31 5.4,30.6 C5.4,30.2 5.1,29.9 4.7,29.9 Z" id="Path" fill="#4D4D4D"></path>
            <path d="M10.1,2.4 C9.8,2.3 9.5,2.4 9.3,2.6 L7.5,4.3 C7.2,4.6 7.2,5 7.5,5.3 C7.8,5.6 8.2,5.6 8.5,5.3 L9.1,4.7 L9.1,9 C9.1,9.4 9.4,9.7 9.8,9.7 C10.2,9.7 10.5,9.4 10.5,9 L10.5,3.1 C10.5,2.8 10.3,2.5 10.1,2.4 Z" id="Path" fill="#4D4D4D"></path>
            <path d="M10.1,21.7 C9.8,21.6 9.5,21.7 9.3,21.9 L7.5,23.7 C7.2,24 7.2,24.4 7.5,24.7 C7.8,25 8.2,25 8.5,24.7 L9.1,24 L9.1,28.2 C9.1,28.6 9.4,28.9 9.8,28.9 C10.2,28.9 10.5,28.6 10.5,28.2 L10.5,22.3 C10.5,22 10.3,21.8 10.1,21.7 Z" id="Path" fill="#4D4D4D"></path>
            <path d="M16.2,21.7 C15.9,21.6 15.6,21.7 15.4,21.9 L13.6,23.7 C13.3,24 13.3,24.4 13.6,24.7 C13.9,25 14.3,25 14.6,24.7 L15.2,24.1 L15.2,28.3 C15.2,28.7 15.5,29 15.9,29 C16.3,29 16.6,28.7 16.6,28.3 L16.6,22.4 C16.6,22 16.4,21.8 16.2,21.7 Z" id="Path" fill="#4D4D4D"></path>
            <path d="M28.3,12 C28,11.9 27.7,12 27.5,12.2 L25.8,14 C25.5,14.3 25.5,14.7 25.8,15 C26.1,15.3 26.5,15.3 26.8,15 L27.4,14.4 L27.4,18.6 C27.4,19 27.7,19.3 28.1,19.3 C28.5,19.3 28.8,19 28.8,18.6 L28.8,12.7 C28.7,12.4 28.6,12.1 28.3,12 Z" id="Path" fill="#4D4D4D"></path>
            <path d="M17,4.6 C17,3.3 16,2.3 14.7,2.3 C13.4,2.3 12.4,3.3 12.4,4.6 L12.4,7.3 C12.4,8.6 13.4,9.6 14.7,9.6 C16,9.6 17,8.6 17,7.3 L17,4.6 L17,4.6 Z M15.6,7.4 C15.6,7.9 15.2,8.3 14.7,8.3 C14.2,8.3 13.8,7.9 13.8,7.4 L13.8,4.6 C13.8,4.1 14.2,3.7 14.7,3.7 C15.2,3.7 15.6,4.1 15.6,4.6 L15.6,7.4 Z" id="Shape" fill="#969696"></path>
            <path d="M21.9,2.4 C21.6,2.3 21.3,2.4 21.1,2.6 L19.3,4.4 C19,4.7 19,5.1 19.3,5.4 C19.6,5.7 20,5.7 20.3,5.4 L20.9,4.8 L20.9,9 C20.9,9.4 21.2,9.7 21.6,9.7 C22,9.7 22.3,9.4 22.3,9 L22.3,3.1 C22.3,2.8 22.1,2.5 21.9,2.4 Z" id="Path" fill="#4D4D4D"></path>
            <path d="M26.9,2.4 C25.6,2.4 24.6,3.4 24.6,4.7 L24.6,7.4 C24.6,8.7 25.6,9.7 26.9,9.7 C28.2,9.7 29.2,8.7 29.2,7.4 L29.2,4.6 C29.1,3.4 28.1,2.4 26.9,2.4 Z M27.7,7.4 C27.7,7.9 27.3,8.3 26.8,8.3 C26.3,8.3 26,7.9 26,7.4 L26,4.6 C26,4.1 26.4,3.7 26.9,3.7 C27.4,3.7 27.8,4.1 27.8,4.6 L27.8,7.4 L27.7,7.4 Z" id="Shape" fill="#969696"></path>
            <path d="M8.6,12 C7.3,12 6.3,13 6.3,14.3 L6.3,17 C6.3,18.3 7.3,19.3 8.6,19.3 C9.9,19.3 10.9,18.3 10.9,17 L10.9,14.3 C10.9,13 9.9,12 8.6,12 Z M9.5,17 C9.5,17.5 9.1,17.9 8.6,17.9 C8.1,17.9 7.7,17.5 7.7,17 L7.7,14.3 C7.7,13.8 8.1,13.4 8.6,13.4 C9.1,13.4 9.5,13.8 9.5,14.3 L9.5,17 Z" id="Shape" fill="#969696"></path>
            <path d="M14.7,12 C13.4,12 12.4,13 12.4,14.3 L12.4,17 C12.4,18.3 13.4,19.3 14.7,19.3 C16,19.3 17,18.3 17,17 L17,14.3 C17,13 16,12 14.7,12 Z M15.6,17 C15.6,17.5 15.2,17.9 14.7,17.9 C14.2,17.9 13.8,17.5 13.8,17 L13.8,14.3 C13.8,13.8 14.2,13.4 14.7,13.4 C15.2,13.4 15.6,13.8 15.6,14.3 L15.6,17 Z" id="Shape" fill="#969696"></path>
            <path d="M20.9,12 C19.6,12 18.6,13 18.6,14.3 L18.6,17 C18.6,18.3 19.6,19.3 20.9,19.3 C22.2,19.3 23.2,18.3 23.2,17 L23.2,14.3 C23.1,13 22.1,12 20.9,12 Z M21.8,17 C21.8,17.5 21.4,17.9 20.9,17.9 C20.4,17.9 20,17.5 20,17 L20,14.3 C20,13.8 20.4,13.4 20.9,13.4 C21.4,13.4 21.8,13.8 21.8,14.3 L21.8,17 L21.8,17 Z" id="Shape" fill="#969696"></path>
            <path d="M20.9,21.6 C19.6,21.6 18.6,22.6 18.6,23.9 L18.6,26.6 C18.6,27.9 19.6,28.9 20.9,28.9 C22.2,28.9 23.2,27.9 23.2,26.6 L23.2,23.9 C23.1,22.7 22.1,21.6 20.9,21.6 Z M21.8,26.7 C21.8,27.2 21.4,27.6 20.9,27.6 C20.4,27.6 20,27.1 20,26.7 L20,24 C20,23.5 20.4,23.1 20.9,23.1 C21.4,23.1 21.8,23.5 21.8,24 L21.8,26.7 L21.8,26.7 Z" id="Shape" fill="#969696"></path>
            <path d="M26.9,21.6 C25.6,21.6 24.6,22.6 24.6,23.9 L24.6,26.6 C24.6,27.9 25.6,28.9 26.9,28.9 C28.2,28.9 29.2,27.9 29.2,26.6 L29.2,23.9 C29.1,22.7 28.1,21.6 26.9,21.6 Z M27.7,26.7 C27.7,27.2 27.3,27.6 26.8,27.6 C26.3,27.6 26,27.1 26,26.7 L26,24 C26,23.5 26.4,23.1 26.9,23.1 C27.4,23.1 27.8,23.5 27.8,24 L27.8,26.7 L27.7,26.7 Z" id="Shape" fill="#969696"></path>
            <path d="M32.8,5.2 C31.9,5.2 31.9,6.6 32.8,6.6 C33.7,6.6 33.7,5.2 32.8,5.2 Z" id="Path" fill="#4D4D4D"></path>
        </g>
    </g>
</svg>