<?xml version="1.0" encoding="UTF-8"?>
<svg width="36px" height="40px" viewBox="0 0 36 40" version="1.1" xmlns="http://www.w3.org/2000/svg" xmlns:xlink="http://www.w3.org/1999/xlink">
    <!-- Generator: Sketch 54.1 (76490) - https://sketchapp.com -->
    <title>searchreports_iconwhitebg</title>
    <desc>Created with Sketch.</desc>
    <g id="Page-1" stroke="none" stroke-width="1" fill="none" fill-rule="evenodd">
        <g id="searchreports_iconwhitebg" transform="translate(0.000000, -1.000000)" fill="#4D4D4D" fill-rule="nonzero">
            <g id="Group">
                <path d="M9.3,32.8 L1.7,32.8 C1.3,32.8 0.9,32.5 0.9,32 L0.9,1.8 C1,1.3 1.3,1 1.7,1 L20.4,1 C20.6,1 20.8,1.1 20.9,1.2 L26.9,6.5 C27.1,6.6 27.2,6.8 27.2,7.1 L27.2,14 C27.2,14.4 26.9,14.8 26.4,14.8 C25.9,14.8 25.6,14.5 25.6,14 L25.6,7.4 L20,2.5 L2.5,2.5 L2.5,31.3 L9.3,31.3 C9.7,31.3 10.1,31.6 10.1,32.1 C10.1,32.6 9.7,32.8 9.3,32.8 Z" id="Path"></path>
                <path d="M26.5,7.8 L20.5,7.8 C20.1,7.8 19.7,7.5 19.7,7 L19.7,1.8 C19.7,1.5 19.9,1.2 20.1,1.1 C20.4,0.9 20.8,1 21,1.2 L27,6.5 C27.2,6.7 27.3,7 27.2,7.3 C27.1,7.6 26.8,7.8 26.5,7.8 Z M21.2,6.3 L24.5,6.3 L21.2,3.4 L21.2,6.3 Z" id="Shape"></path>
            </g>
            <g id="Group" opacity="0.5" transform="translate(4.000000, 7.000000)">
                <rect id="Rectangle" x="0.6" y="0.3" width="6.7" height="1.5"></rect>
            </g>
            <rect id="Rectangle" x="4.6" y="10.5" width="19" height="1.5"></rect>
            <rect id="Rectangle" x="4.6" y="12.9" width="3.1" height="1.5"></rect>
            <g id="Group" opacity="0.5" transform="translate(8.000000, 12.000000)">
                <rect id="Rectangle" x="0.6" y="0.9" width="3.1" height="1.5"></rect>
            </g>
            <rect id="Rectangle" x="12.5" y="12.9" width="3.1" height="1.5"></rect>
            <g id="Group" opacity="0.5" transform="translate(16.000000, 12.000000)">
                <rect id="Rectangle" x="0.5" y="0.9" width="3.1" height="1.5"></rect>
            </g>
            <rect id="Rectangle" x="20.5" y="12.9" width="3.1" height="1.5"></rect>
            <rect id="Rectangle" x="4.6" y="15.3" width="3.1" height="1.5"></rect>
            <g id="Group" opacity="0.5" transform="translate(8.000000, 15.000000)">
                <rect id="Rectangle" x="0.6" y="0.3" width="3.1" height="1.5"></rect>
            </g>
            <rect id="Rectangle" x="4.6" y="17.7" width="3.1" height="1.5"></rect>
            <g id="Group" opacity="0.5" transform="translate(8.000000, 17.000000)">
                <rect id="Rectangle" x="0.6" y="0.7" width="2.6" height="1.5"></rect>
            </g>
            <rect id="Rectangle" x="4.6" y="20.1" width="3.1" height="1.5"></rect>
            <g id="Group" opacity="0.5" transform="translate(8.000000, 20.000000)">
                <rect id="Rectangle" x="0.6" y="0.1" width="1.6" height="1.5"></rect>
            </g>
            <rect id="Rectangle" x="4.6" y="22.5" width="3.1" height="1.5"></rect>
            <rect id="Rectangle" x="4.6" y="25" width="3.1" height="1.5"></rect>
            <g id="Group" opacity="0.5" transform="translate(8.000000, 25.000000)">
                <polygon id="Path" points="2.1 1.5 0.6 1.5 0.6 0 2.1 0"></polygon>
            </g>
            <g id="Group" transform="translate(8.000000, 13.000000)">
                <path d="M10.5,20.6 C7.9,20.6 5.4,19.6 3.4,17.7 C-0.5,13.8 -0.5,7.4 3.4,3.5 C7.3,-0.4 13.7,-0.4 17.6,3.5 C21.5,7.4 21.5,13.8 17.6,17.7 L17.6,17.7 C15.7,19.6 13.1,20.6 10.5,20.6 Z M10.5,2 C8.3,2 6.1,2.8 4.5,4.5 C1.2,7.8 1.2,13.3 4.5,16.6 C7.8,19.9 13.3,19.9 16.6,16.6 C19.9,13.3 19.9,7.8 16.6,4.5 C14.9,2.8 12.7,2 10.5,2 Z" id="Shape"></path>
                <g opacity="0.5" transform="translate(9.000000, 3.000000)" id="Path">
                    <path d="M6.2,3.6 C6,3.6 5.8,3.5 5.7,3.4 C4.6,2.3 3.1,1.7 1.6,1.7 C1.2,1.7 0.8,1.4 0.8,1 C0.8,0.6 1.1,0.2 1.6,0.2 C3.6,0.2 5.4,1 6.8,2.3 C7.1,2.6 7.1,3.1 6.8,3.4 C6.6,3.6 6.4,3.6 6.2,3.6 Z"></path>
                </g>
                <g opacity="0.5" transform="translate(16.000000, 8.000000)" id="Path">
                    <path d="M1.1,3.3 C0.7,3.3 0.3,3 0.3,2.5 C0.3,2 0.2,1.6 0.1,1.1 C0,0.7 0.3,0.3 0.7,0.2 C1.1,0.1 1.5,0.3 1.6,0.8 C1.7,1.4 1.8,1.9 1.8,2.5 C1.9,3 1.5,3.3 1.1,3.3 Z"></path>
                </g>
                <rect id="Rectangle" transform="translate(18.729995, 18.670645) rotate(-45.000000) translate(-18.729995, -18.670645) " x="17.9800022" y="15.6706738" width="1.49998561" height="5.99994246"></rect>
                <rect id="Rectangle" transform="translate(23.682440, 23.736100) rotate(-45.000000) translate(-23.682440, -23.736100) " x="22.1824544" y="19.1361441" width="2.99997123" height="9.19991177"></rect>
            </g>
            <rect id="Rectangle" x="12.5" y="15.3" width="1" height="1.5"></rect>
        </g>
    </g>
</svg>