<?xml version="1.0" encoding="UTF-8"?>
<svg width="33px" height="35px" viewBox="0 0 33 35" version="1.1" xmlns="http://www.w3.org/2000/svg" xmlns:xlink="http://www.w3.org/1999/xlink">
    <!-- Generator: Sketch 54.1 (76490) - https://sketchapp.com -->
    <title>users_iconwhitebg</title>
    <desc>Created with Sketch.</desc>
    <g id="Page-1" stroke="none" stroke-width="1" fill="none" fill-rule="evenodd">
        <g id="users_iconwhitebg" fill="#4D4D4D" fill-rule="nonzero">
            <g id="Group" transform="translate(2.000000, 0.000000)">
                <path d="M27.1,25.1 L23,23.5 L20.9,21.4 C20.8,21.3 20.6,21.2 20.4,21.2 L20.4,19.5 C21.4,18.4 22.1,17.1 22.4,15.6 C22.6,15.6 22.8,15.6 22.9,15.6 C23.9,15.4 24.6,14.5 24.6,13.4 L24.6,12.9 C24.6,12.3 24.3,11.7 23.9,11.3 C24.6,7.7 24,4.7 22.3,2.8 C20.6,0.9 18,-8.8817842e-16 14.6,0.2 C11.5,0.4 9.5,1.8 8.8,2.3 C8.6,2.3 8,2.4 7.4,2.8 C6.6,3.3 5.6,4.3 5.6,6.5 C5.6,8.4 5.9,10 6.1,10.9 C5.4,11.3 4.9,12 4.9,12.9 L4.9,13.4 C4.9,14.5 5.6,15.4 6.6,15.6 C6.8,15.6 7,15.6 7.1,15.6 C7.4,17.1 8.1,18.4 9.1,19.5 L9.1,21.2 C8.9,21.2 8.8,21.3 8.6,21.4 L6.5,23.5 L2.4,25.1 C2,25.2 1.7,25.4 1.4,25.6 C1.1,25.8 1,26.3 1.2,26.6 C1.4,26.9 1.6,27 1.8,27 C1.9,27 2.1,27 2.2,26.9 C2.4,26.8 2.7,26.6 2.9,26.5 L6.7,25 L9.6,29.4 C10,29.9 10.5,30.3 11.2,30.4 C11.3,30.4 11.3,30.4 11.4,30.4 C11.8,30.4 12.1,30.3 12.5,30.1 L11.9,33.6 C11.9,34 12.2,34.4 12.6,34.4 C12.6,34.4 12.6,34.4 12.6,34.4 C13,34.4 13.3,34.1 13.4,33.7 L14,31.2 L15.6,31.2 L16.2,33.7 C16.2,34.1 16.6,34.4 17,34.4 C17,34.4 17,34.4 17,34.4 C17.4,34.4 17.7,34 17.7,33.6 L17,30.1 C17.3,30.3 17.7,30.4 18.1,30.4 C18.2,30.4 18.2,30.4 18.3,30.4 C18.9,30.3 19.5,30 19.9,29.4 L22.8,25 L26.6,26.5 C27.1,26.7 28,25.6 27.1,25.1 Z M8.6,15.3 C8.4,14.6 7.8,14.1 7.1,14.1 C7,14.1 7,14.1 6.9,14.1 C6.6,14 6.4,13.7 6.4,13.4 L6.4,12.9 C6.4,12.6 6.6,12.2 6.9,12.2 C7.2,12.2 7.4,12.2 7.5,12.4 C7.6,12.6 7.8,12.7 8,12.8 C8.3,12.9 8.6,12.8 8.9,12.7 C9.4,12.4 9.8,12 10.1,11.5 C10.3,11.2 10.3,10.7 9.9,10.4 C9.6,10.2 9.1,10.2 8.8,10.6 C8.6,10.8 8.4,11 8.2,11.2 C8,11 7.7,10.8 7.4,10.8 C7.4,10 7.1,8.4 7.1,6.5 C7.1,5.3 7.5,4.5 8.2,4.1 C8.7,3.8 9.3,3.7 9.3,3.7 C9.5,3.7 9.7,3.6 9.8,3.5 C9.8,3.5 11.7,1.8 14.8,1.6 C17.7,1.4 19.9,2.2 21.3,3.7 C22.6,5.3 23.1,7.6 22.6,10.6 C22.4,10.6 22.2,10.6 22,10.6 L21.3,9 C21.2,8.7 20.8,8.5 20.4,8.6 C20.3,8.6 13.4,10.4 10.5,6.8 C10.2,6.5 9.8,6.4 9.4,6.7 C9,6.9 9,7.4 9.3,7.7 C12.3,11.4 18.2,10.6 20.2,10.2 L20.7,11.5 C20.9,12.1 21.5,12.4 22.1,12.2 C22.3,12.1 22.6,12.1 22.7,12.2 C23,12.3 23.2,12.6 23.2,12.9 L23.2,13.4 C23.2,13.8 23,14.1 22.7,14.1 C22.6,14.1 22.6,14.1 22.5,14.1 C21.8,14 21.1,14.6 21,15.3 C20.3,19.3 15.9,21.8 11.7,19.7 C9.9,18.9 9,17.2 8.6,15.3 Z M11.9,28.7 C11.7,28.9 11.5,28.9 11.4,28.9 C11.3,28.9 11.1,28.8 10.9,28.6 L8,24.2 L9.2,23 L13.7,26.9 L11.9,28.7 Z M14.1,29.7 L14.1,28.7 L14.8,28 L15.5,28.7 L15.5,29.7 L14.1,29.7 Z M14.8,25.9 L10.6,22.2 L10.6,20.8 C11.8,21.6 13.3,22 14.8,22 C16.3,22 17.8,21.6 19,20.8 L19,22.2 L14.8,25.9 Z M18.6,28.6 C18.5,28.8 18.2,28.9 18.1,28.9 C18,28.9 17.8,28.9 17.6,28.7 L15.9,27 L20.4,23.1 L21.6,24.3 L18.6,28.6 Z" id="Shape"></path>
                <path d="M16.9,34.5 C16.4,34.5 16.1,34.1 16,33.7 L15.4,31.3 L14,31.3 L13.4,33.7 C13.4,34.1 13,34.5 12.6,34.5 L12.6,34.5 C12.1,34.5 11.8,34.1 11.8,33.6 L12.4,30.3 C12,30.5 11.6,30.5 11.2,30.5 C10.5,30.4 9.9,30.1 9.5,29.5 L6.6,25.2 L3,26.6 C2.8,26.7 2.5,26.8 2.3,27 C2.2,27.1 2,27.1 1.8,27.1 C1.5,27.1 1.3,27 1.1,26.7 C0.8,26.3 0.9,25.8 1.3,25.5 C1.6,25.3 2,25.1 2.3,25 L6.4,23.4 L8.5,21.3 C8.6,21.2 8.8,21.1 9,21.1 L9,19.6 C8,18.5 7.3,17.2 7,15.8 C6.8,15.8 6.7,15.8 6.5,15.8 C5.5,15.6 4.7,14.6 4.7,13.5 L4.7,13 C4.7,12.1 5.2,11.3 5.9,10.9 C5.7,9.9 5.4,8.4 5.4,6.6 C5.4,4.4 6.4,3.3 7.3,2.8 C7.9,2.4 8.5,2.3 8.9,2.3 C9.6,1.7 11.6,0.3 14.7,0.2 C18.1,6.10622664e-16 20.8,0.9 22.5,2.9 C24.2,4.9 24.8,7.8 24.1,11.5 C24.5,11.9 24.8,12.5 24.8,13.1 L24.8,13.6 C24.8,14.7 24,15.7 23,15.9 C22.8,15.9 22.7,15.9 22.5,15.9 C22.2,17.3 21.5,18.6 20.5,19.7 L20.5,21.2 C20.7,21.2 20.8,21.3 21,21.4 L23.1,23.5 L27.2,25.1 C27.7,25.3 27.7,25.8 27.5,26.1 C27.3,26.5 26.9,26.8 26.5,26.7 L22.8,25.3 L20,29.5 C19.6,30.1 19,30.4 18.3,30.5 C17.9,30.5 17.5,30.5 17.1,30.3 L17.7,33.6 C17.7,33.8 17.6,34.1 17.5,34.2 C17.4,34.4 17.2,34.5 16.9,34.5 L16.9,34.5 Z M13.9,31.1 L15.6,31.1 L15.6,31.2 L16.2,33.7 C16.2,34.1 16.5,34.3 16.9,34.3 L16.9,34.3 C17.1,34.3 17.2,34.2 17.4,34.1 C17.5,34 17.6,33.8 17.6,33.6 L16.9,29.9 L17.1,30 C17.5,30.2 17.9,30.3 18.3,30.3 C18.9,30.2 19.5,29.9 19.8,29.4 L22.8,25 L26.7,26.5 C26.9,26.6 27.3,26.3 27.4,26 C27.5,25.9 27.6,25.5 27.2,25.3 L23,23.6 L20.9,21.5 C20.8,21.4 20.6,21.3 20.5,21.3 L20.4,21.3 L20.4,19.5 L20.4,19.5 C21.4,18.4 22.1,17.1 22.3,15.7 L22.3,15.6 L22.4,15.6 C22.6,15.6 22.7,15.6 22.9,15.6 C23.9,15.4 24.5,14.5 24.5,13.5 L24.5,13 C24.5,12.4 24.3,11.9 23.9,11.5 L23.9,11.5 L23.9,11.4 C24.6,7.8 24,4.9 22.3,2.9 C20.7,1 18,0.1 14.7,0.3 C11.6,0.5 9.7,1.8 9,2.4 L9,2.4 L9,2.4 C8.7,2.4 8.1,2.6 7.5,2.9 C6.6,3.4 5.7,4.4 5.7,6.5 C5.7,8.3 6,9.9 6.2,10.8 L6.2,10.9 L6.1,10.9 C5.4,11.3 5,12.1 5,12.9 L5,13.4 C5,14.4 5.7,15.3 6.7,15.5 C6.9,15.5 7,15.5 7.2,15.5 L7.3,15.5 L7.3,15.6 C7.6,17 8.2,18.4 9.2,19.4 L9.2,19.4 L9.2,21.2 L9.1,21.2 C8.9,21.2 8.8,21.3 8.7,21.4 L6.6,23.5 L2.5,25.1 C2.2,25.2 1.8,25.4 1.5,25.6 C1.2,25.8 1.1,26.2 1.3,26.5 C1.5,26.8 1.9,26.9 2.2,26.7 C2.4,26.5 2.7,26.4 2.9,26.3 L6.8,24.8 L6.8,24.9 L9.7,29.3 C10,29.8 10.6,30.1 11.2,30.2 C11.6,30.2 12,30.2 12.4,29.9 L12.6,29.8 L12,33.6 C12,33.9 12.3,34.3 12.6,34.3 L12.6,34.3 C13,34.3 13.2,34 13.3,33.7 L13.9,31.1 Z M15.6,29.8 L14,29.8 L14.1,28.6 L14.1,28.6 L14.8,27.9 L15.6,28.7 L15.6,28.7 L15.6,29.8 Z M14.2,29.6 L15.4,29.6 L15.4,28.7 L14.8,28.1 L14.2,28.7 L14.2,29.6 Z M11.5,29 C11.4,29 11.4,29 11.5,29 C11.3,29 11,28.9 10.9,28.7 L7.9,24.2 L9.2,22.9 L13.9,27 L12,28.8 C11.8,29 11.6,29 11.5,29 Z M8.1,24.2 L11,28.5 C11.1,28.7 11.3,28.7 11.4,28.7 C11.5,28.7 11.7,28.7 11.8,28.5 L11.8,28.5 L13.5,26.8 L9.2,23 L8.1,24.2 Z M18.1,29 C18,29 17.7,29 17.6,28.8 L15.7,27 L15.8,26.9 L20.4,22.9 L21.7,24.2 L21.7,24.3 L18.8,28.7 C18.5,28.9 18.3,29 18.1,29 C18.1,29 18.1,29 18.1,29 Z M16,27 L17.7,28.7 C17.9,28.9 18.1,28.9 18.1,28.9 C18.2,28.9 18.4,28.8 18.5,28.7 L18.5,28.7 L21.4,24.4 L20.3,23.3 L16,27 Z M14.8,26.1 L14.8,26.1 L10.5,22.4 L10.5,20.7 L10.7,20.8 C11.9,21.6 13.4,22 14.8,22 C16.3,22 17.7,21.6 18.9,20.8 L19.1,20.7 L19.1,22.4 L14.8,26.1 Z M10.7,22.2 L14.8,25.8 L18.9,22.2 L18.9,21 C17.7,21.7 16.3,22.1 14.8,22.1 C13.4,22.1 12,21.7 10.7,21 L10.7,22.2 Z M14.8,20.6 C13.7,20.6 12.6,20.3 11.6,19.8 C10,19 8.9,17.5 8.5,15.4 C8.4,14.7 7.7,14.3 7.1,14.3 C7,14.3 7,14.3 6.9,14.3 C6.6,14.2 6.3,13.9 6.3,13.5 L6.3,13 C6.3,12.6 6.6,12.2 6.9,12.2 C7.2,12.1 7.5,12.3 7.6,12.5 C7.7,12.7 7.9,12.8 8.1,12.8 C8.4,12.9 8.7,12.8 8.9,12.7 C9.4,12.4 9.8,12 10.1,11.5 C10.3,11.2 10.3,10.8 10,10.6 C9.9,10.5 9.7,10.5 9.5,10.5 C9.3,10.5 9.2,10.6 9.1,10.8 C8.9,11 8.7,11.3 8.5,11.4 L8.4,11.5 L8.3,11.4 C8.1,11.2 7.8,11.1 7.5,11 L7.4,11 L7.4,10.9 C7.3,10 7,8.4 7,6.5 C7,5.3 7.4,4.5 8.1,4 C8.7,3.6 9.3,3.6 9.3,3.6 C9.5,3.6 9.6,3.5 9.8,3.4 C9.8,3.4 11.7,1.6 14.9,1.5 C17.8,1.3 20.1,2.1 21.5,3.7 C22.9,5.3 23.3,7.7 22.8,10.7 L22.8,10.8 L22.7,10.8 C22.5,10.8 22.3,10.8 22.1,10.8 L22,10.8 L22,10.7 L21.3,9 C21.2,8.7 20.8,8.5 20.5,8.6 C20.4,8.6 13.4,10.4 10.5,6.7 C10.4,6.6 10.2,6.5 10.1,6.5 C9.9,6.5 9.8,6.5 9.6,6.6 C9.5,6.7 9.4,6.9 9.4,7 C9.4,7.2 9.4,7.3 9.5,7.5 C12.5,11.2 18.5,10.3 20.3,10 L20.4,10 L21,11.4 C21.2,11.9 21.8,12.2 22.3,12.1 C22.5,12 22.8,12 22.9,12.1 C23.3,12.2 23.5,12.5 23.5,12.9 L23.5,13.4 C23.5,13.8 23.2,14.2 22.9,14.2 C22.8,14.2 22.8,14.2 22.7,14.2 C22.7,14.2 22.6,14.2 22.6,14.2 C22,14.2 21.4,14.7 21.3,15.3 C20.9,17.3 19.6,19 17.8,19.9 C16.7,20.4 15.8,20.6 14.8,20.6 Z M7.2,14.1 C7.9,14.1 8.6,14.6 8.7,15.3 C9.1,17.3 10.2,18.9 11.7,19.6 C13.6,20.6 15.7,20.6 17.5,19.8 C19.3,18.9 20.5,17.3 20.9,15.4 C21,14.7 21.7,14.1 22.4,14.1 C22.4,14.1 22.5,14.1 22.5,14.1 C22.6,14.1 22.6,14.1 22.6,14.1 C22.9,14 23,13.8 23,13.5 L23,13 C23,12.7 22.8,12.4 22.5,12.4 C22.4,12.4 22.2,12.4 22,12.4 C21.4,12.5 20.7,12.2 20.5,11.6 L20,10.3 C18.1,10.7 12.1,11.5 9.1,7.7 C9,7.6 9,7.3 9,7.1 C9,6.9 9.1,6.7 9.3,6.5 C9.5,6.4 9.7,6.3 9.9,6.3 C10.1,6.3 10.3,6.4 10.5,6.6 C13.4,10.2 20.3,8.4 20.3,8.4 C20.7,8.3 21.1,8.5 21.3,8.9 L22,10.5 C22.2,10.5 22.3,10.5 22.5,10.5 C23,7.6 22.5,5.2 21.2,3.7 C19.9,2.2 17.7,1.5 14.8,1.6 C11.7,1.8 9.8,3.5 9.8,3.5 C9.6,3.6 9.4,3.7 9.2,3.7 C9.2,3.7 8.6,3.7 8.1,4 C7.4,4.4 7.1,5.2 7.1,6.3 C7.1,8.1 7.4,9.7 7.6,10.5 C7.9,10.6 8.1,10.7 8.3,10.9 C8.5,10.7 8.7,10.5 8.8,10.3 C8.9,10.1 9.1,10 9.4,10 C9.6,10 9.9,10 10,10.2 C10.4,10.5 10.5,11 10.2,11.4 C9.8,11.9 9.4,12.3 8.9,12.6 C8.6,12.8 8.2,12.9 7.9,12.8 C7.7,12.7 7.5,12.6 7.3,12.4 C7.2,12.2 7,12.2 6.8,12.2 C6.5,12.2 6.4,12.5 6.4,12.8 L6.4,13.3 C6.4,13.6 6.6,13.9 6.8,13.9 C6.8,13.9 6.9,13.9 6.9,13.9 C7.1,14.1 7.1,14.1 7.2,14.1 Z" id="Shape"></path>
            </g>
            <path d="M31.7,34.2 C31.3,34.2 30.9,33.9 30.9,33.4 L30.9,29.3 C30.9,28.3 30.3,27.4 29.4,27 L28.6,26.6 C28.2,26.4 28.1,26 28.2,25.6 C28.4,25.2 28.8,25.1 29.2,25.2 L30,25.6 C31.4,26.3 32.3,27.7 32.3,29.3 L32.3,33.4 C32.5,33.9 32.2,34.2 31.7,34.2 Z" id="Path"></path>
            <path d="M1.7,34.2 C1.3,34.2 0.9,33.9 0.9,33.4 L0.9,29.3 C0.9,27.7 1.8,26.3 3.2,25.6 L4,25.2 C4.4,25 4.8,25.2 5,25.6 C5.2,26 5,26.4 4.6,26.6 L4,27 C3.1,27.4 2.5,28.4 2.5,29.3 L2.5,33.4 C2.5,33.9 2.2,34.2 1.7,34.2 Z" id="Path"></path>
        </g>
    </g>
</svg>