<?xml version="1.0" encoding="utf-8"?>
<!-- Generator: Adobe Illustrator 22.1.0, SVG Export Plug-In . SVG Version: 6.00 Build 0)  -->
<svg version="1.1" id="Capa_1" xmlns="http://www.w3.org/2000/svg" xmlns:xlink="http://www.w3.org/1999/xlink" x="0px" y="0px"
	 viewBox="0 0 131.4 39.9" style="enable-background:new 0 0 131.4 39.9;" xml:space="preserve">
<style type="text/css">
	.st0{fill:#B52728;}
	.st1{fill:#3A3B38;}
	.st2{fill:#929292;}
	.st3{fill:#6B6B6B;}
	.st4{fill:#9D9D9D;}
	.st5{fill:#FFFFFF;}
	.st6{fill:#C0C0C0;}
	.st7{opacity:0.5;}
	.st8{fill:#3A3C39;}
	.st9{fill:#C22026;}
	.st10{fill:#F2F2F2;}
	.st11{fill:#9E9E9E;}
	.st12{fill:#C1C1C1;}
	.st13{fill:#D3D3D3;}
	.st14{fill:#969696;}
	.st15{opacity:0.85;}
	.st16{fill:#4D4D4D;}
	.st17{fill:none;stroke:#4D4D4D;stroke-width:1.5;stroke-miterlimit:10;}
	.st18{fill:#22BF7C;}
	.st19{fill:#FF8400;}
	.st20{fill:#B0B0B0;}
	.st21{fill:none;stroke:#FFFFFF;stroke-width:1.5;stroke-miterlimit:10;}
	.st22{fill:#CCCCCC;}
	.st23{fill:#444444;}
</style>
<g>
	<path class="st8" d="M24.6,15.2c-1.1,0-1.9,0.4-2.5,1.2c-0.6,0.8-0.9,1.9-0.9,3.4c0,3,1.1,4.5,3.4,4.5c0.9,0,2.1-0.2,3.4-0.7V26
		c-1.1,0.5-2.3,0.7-3.7,0.7c-2,0-3.5-0.6-4.5-1.8s-1.6-2.9-1.6-5.1c0-1.4,0.3-2.6,0.8-3.7c0.5-1.1,1.2-1.9,2.2-2.4
		c1-0.6,2.1-0.8,3.4-0.8c1.3,0,2.6,0.3,4,1l-0.9,2.3c-0.5-0.2-1-0.5-1.5-0.6C25.6,15.3,25.1,15.2,24.6,15.2z"/>
	<path class="st8" d="M39.2,26.5l-1-3.2h-4.9l-1,3.2h-3.1L34,13h3.5l4.8,13.6H39.2z M37.5,20.9C36.6,18,36.1,16.4,36,16
		s-0.2-0.7-0.2-0.9c-0.2,0.8-0.8,2.7-1.7,5.9H37.5z"/>
	<path class="st8" d="M55.9,26.5h-3.6l-5.9-10.2h-0.1c0.1,1.8,0.2,3.1,0.2,3.9v6.4H44V13h3.6l5.9,10.1h0.1c-0.1-1.8-0.1-3-0.1-3.7
		V13h2.6V26.5z"/>
	<path class="st8" d="M65.1,15.2c-1.1,0-1.9,0.4-2.5,1.2c-0.6,0.8-0.9,1.9-0.9,3.4c0,3,1.1,4.5,3.4,4.5c0.9,0,2.1-0.2,3.4-0.7V26
		c-1.1,0.5-2.3,0.7-3.7,0.7c-2,0-3.5-0.6-4.5-1.8s-1.6-2.9-1.6-5.1c0-1.4,0.3-2.6,0.8-3.7c0.5-1.1,1.2-1.9,2.2-2.4
		c1-0.6,2.1-0.8,3.4-0.8c1.3,0,2.6,0.3,4,1l-0.9,2.3c-0.5-0.2-1-0.5-1.5-0.6C66.1,15.3,65.6,15.2,65.1,15.2z"/>
	<path class="st8" d="M79.2,26.5h-7.8V13h7.8v2.3h-4.9v3h4.6v2.3h-4.6v3.5h4.9V26.5z"/>
	<path class="st8" d="M82,26.5V13h2.9v11.1h5.5v2.4H82z"/>
	<path class="st8" d="M101,26.5l-1-3.2h-4.9l-1,3.2H91L95.8,13h3.5l4.8,13.6H101z M99.3,20.9c-0.9-2.9-1.4-4.6-1.5-4.9
		s-0.2-0.7-0.2-0.9c-0.2,0.8-0.8,2.7-1.7,5.9H99.3z"/>
	<path class="st8" d="M108.6,21.4v5.2h-2.9V13h3.9c1.8,0,3.2,0.3,4.1,1c0.9,0.7,1.3,1.7,1.3,3c0,0.8-0.2,1.5-0.7,2.1
		c-0.4,0.6-1.1,1.1-1.9,1.5c2,3,3.4,5,4,5.9h-3.2l-3.2-5.2H108.6z M108.6,19h0.9c0.9,0,1.6-0.2,2-0.5c0.4-0.3,0.6-0.8,0.6-1.4
		c0-0.6-0.2-1.1-0.7-1.4c-0.4-0.3-1.1-0.4-2-0.4h-0.9V19z"/>
</g>
<g>
	<path class="st11" d="M127.9,39.9H3.5c-1.9,0-3.5-1.6-3.5-3.5V3.5C0,1.6,1.6,0,3.5,0h124.3c1.9,0,3.5,1.6,3.5,3.5v32.8
		C131.4,38.3,129.8,39.9,127.9,39.9z M3.5,2C2.7,2,2,2.7,2,3.5v32.8c0,0.8,0.7,1.5,1.5,1.5h124.3c0.8,0,1.5-0.7,1.5-1.5V3.5
		c0-0.8-0.7-1.5-1.5-1.5H3.5z"/>
</g>
</svg>
