<?xml version="1.0" encoding="utf-8"?>
<!-- Generator: Adobe Illustrator 22.1.0, SVG Export Plug-In . SVG Version: 6.00 Build 0)  -->
<svg version="1.1" id="Capa_1" xmlns="http://www.w3.org/2000/svg" xmlns:xlink="http://www.w3.org/1999/xlink" x="0px" y="0px"
	 viewBox="0 0 101 31.1" style="enable-background:new 0 0 101 31.1;" xml:space="preserve">
<style type="text/css">
	.st0{fill:#B52728;}
	.st1{fill:#3A3B38;}
	.st2{fill:#929292;}
	.st3{fill:#6B6B6B;}
	.st4{fill:#9D9D9D;}
	.st5{fill:#FFFFFF;}
	.st6{fill:#C0C0C0;}
	.st7{opacity:0.5;}
	.st8{fill:#3A3C39;}
	.st9{fill:#C22026;}
	.st10{fill:#F2F2F2;}
	.st11{fill:#9E9E9E;}
	.st12{fill:#C1C1C1;}
	.st13{fill:#D3D3D3;}
	.st14{fill:#969696;}
	.st15{opacity:0.85;}
	.st16{fill:#4D4D4D;}
	.st17{fill:none;stroke:#4D4D4D;stroke-width:1.5;stroke-miterlimit:10;}
	.st18{fill:#22BF7C;}
	.st19{fill:#FF8400;}
	.st20{fill:#B0B0B0;}
	.st21{fill:none;stroke:#FFFFFF;stroke-width:1.5;stroke-miterlimit:10;}
	.st22{fill:#CCCCCC;}
	.st23{fill:#444444;}
</style>
<g>
	<path class="st0" d="M2.5,31.1h96c1.4,0,2.5-1.1,2.5-2.5v-26c0-1.4-1.1-2.5-2.5-2.5h-96C1.1,0,0,1.1,0,2.5v26
		C0,30,1.1,31.1,2.5,31.1z"/>
</g>
<g>
	<path class="st5" d="M19,21l-0.8-2.6h-4L13.3,21h-2.5l3.9-11.1h2.9L21.5,21H19z M17.6,16.4c-0.7-2.4-1.2-3.7-1.3-4.1
		s-0.2-0.6-0.2-0.7c-0.2,0.6-0.6,2.2-1.4,4.8H17.6z"/>
	<path class="st5" d="M25.3,16.7V21h-2.4V9.9h3.2c1.5,0,2.6,0.3,3.3,0.8c0.7,0.5,1.1,1.4,1.1,2.5c0,0.7-0.2,1.2-0.5,1.7
		c-0.4,0.5-0.9,0.9-1.5,1.2c1.7,2.5,2.8,4.1,3.3,4.8h-2.6l-2.6-4.3H25.3z M25.3,14.8H26c0.7,0,1.3-0.1,1.6-0.4
		c0.4-0.2,0.5-0.6,0.5-1.2c0-0.5-0.2-0.9-0.5-1.1c-0.4-0.2-0.9-0.3-1.7-0.3h-0.7V14.8z"/>
	<path class="st5" d="M37.9,11.7c-0.9,0-1.6,0.3-2.1,1c-0.5,0.7-0.7,1.6-0.7,2.8c0,2.5,0.9,3.7,2.8,3.7c0.8,0,1.7-0.2,2.8-0.6v2
		c-0.9,0.4-1.9,0.6-3.1,0.6c-1.6,0-2.8-0.5-3.7-1.5c-0.9-1-1.3-2.4-1.3-4.2c0-1.2,0.2-2.2,0.6-3c0.4-0.9,1-1.5,1.8-2
		s1.7-0.7,2.8-0.7c1.1,0,2.2,0.3,3.2,0.8l-0.8,1.9c-0.4-0.2-0.8-0.4-1.3-0.5C38.7,11.8,38.3,11.7,37.9,11.7z"/>
	<path class="st5" d="M52.2,21h-2.3v-4.8h-4.4V21h-2.4V9.9h2.4v4.3h4.4V9.9h2.3V21z"/>
	<path class="st5" d="M55,21V9.9h2.4V21H55z"/>
	<path class="st5" d="M66.4,9.9h2.4L65,21h-2.6L58.7,9.9h2.4l2.1,6.6c0.1,0.4,0.2,0.8,0.4,1.4c0.1,0.5,0.2,0.9,0.2,1.1
		c0.1-0.5,0.2-1.3,0.6-2.4L66.4,9.9z"/>
	<path class="st5" d="M77,21l-0.8-2.6h-4L71.4,21h-2.5l3.9-11.1h2.9L79.5,21H77z M75.6,16.4c-0.7-2.4-1.2-3.7-1.3-4.1
		c-0.1-0.3-0.2-0.6-0.2-0.7c-0.2,0.6-0.6,2.2-1.4,4.8H75.6z"/>
	<path class="st5" d="M83.3,16.7V21h-2.4V9.9h3.2c1.5,0,2.6,0.3,3.3,0.8c0.7,0.5,1.1,1.4,1.1,2.5c0,0.7-0.2,1.2-0.5,1.7
		c-0.4,0.5-0.9,0.9-1.5,1.2c1.7,2.5,2.8,4.1,3.3,4.8h-2.6l-2.6-4.3H83.3z M83.3,14.8h0.8c0.7,0,1.3-0.1,1.6-0.4
		c0.4-0.2,0.5-0.6,0.5-1.2c0-0.5-0.2-0.9-0.5-1.1c-0.4-0.2-0.9-0.3-1.7-0.3h-0.7V14.8z"/>
</g>
</svg>
