<?xml version="1.0" encoding="utf-8"?>
<!-- Generator: Adobe Illustrator 22.1.0, SVG Export Plug-In . SVG Version: 6.00 Build 0)  -->
<svg version="1.1" id="Capa_1" xmlns="http://www.w3.org/2000/svg" xmlns:xlink="http://www.w3.org/1999/xlink" x="0px" y="0px"
	 viewBox="0 0 113 22.6" style="enable-background:new 0 0 113 22.6;" xml:space="preserve">
<style type="text/css">
	.st0{fill:#B52728;}
	.st1{fill:#3A3B38;}
	.st2{fill:#929292;}
	.st3{fill:#6B6B6B;}
	.st4{fill:#9D9D9D;}
	.st5{fill:#FFFFFF;}
	.st6{fill:#C0C0C0;}
	.st7{opacity:0.5;}
	.st8{fill:#3A3C39;}
	.st9{fill:#C22026;}
	.st10{fill:#F2F2F2;}
	.st11{fill:#9E9E9E;}
	.st12{fill:#C1C1C1;}
	.st13{fill:#D3D3D3;}
	.st14{fill:#969696;}
	.st15{opacity:0.85;}
	.st16{fill:#4D4D4D;}
	.st17{fill:none;stroke:#4D4D4D;stroke-width:1.5;stroke-miterlimit:10;}
	.st18{fill:#22BF7C;}
	.st19{fill:#FF8400;}
	.st20{fill:#B0B0B0;}
	.st21{fill:none;stroke:#FFFFFF;stroke-width:1.5;stroke-miterlimit:10;}
	.st22{fill:#CCCCCC;}
	.st23{fill:#444444;}
</style>
<g>
	<path class="st1" d="M2.5,22.6h107.9c1.4,0,2.5-1.1,2.5-2.5V2.5c0-1.4-1.1-2.5-2.5-2.5H2.5C1.1,0,0,1.1,0,2.5V20
		C0,21.4,1.1,22.6,2.5,22.6z"/>
</g>
<g>
	<path class="st5" d="M28.7,16.3h-5.9V6.1h5.9v1.8h-3.7v2.2h3.5v1.8h-3.5v2.6h3.7V16.3z"/>
	<path class="st5" d="M30.8,16.3V6.1H33v8.4h4.1v1.8H30.8z"/>
	<path class="st5" d="M38.9,16.3V6.1H41v10.2H38.9z"/>
	<path class="st5" d="M47.9,16.3l-2.5-8h-0.1c0.1,1.6,0.1,2.7,0.1,3.3v4.7h-1.9V6.1h2.9l2.4,7.8h0l2.6-7.8h2.9v10.2h-2v-4.8
		c0-0.2,0-0.5,0-0.8c0-0.3,0-1.1,0.1-2.4h-0.1l-2.6,8H47.9z"/>
	<path class="st5" d="M57.1,16.3V6.1h2.2v10.2H57.1z"/>
	<path class="st5" d="M70.9,16.3h-2.8l-4.4-7.7h-0.1c0.1,1.4,0.1,2.3,0.1,2.9v4.8h-1.9V6.1h2.7l4.4,7.6h0c-0.1-1.3-0.1-2.3-0.1-2.8
		V6.1h1.9V16.3z"/>
	<path class="st5" d="M79.7,16.3L79,13.9h-3.7l-0.7,2.4h-2.3l3.6-10.3h2.6L82,16.3H79.7z M78.4,12.1c-0.7-2.2-1.1-3.4-1.2-3.7
		c-0.1-0.3-0.1-0.5-0.2-0.7c-0.2,0.6-0.6,2.1-1.3,4.4H78.4z"/>
	<path class="st5" d="M85.5,12.4v3.9h-2.2V6.1h3c1.4,0,2.4,0.3,3.1,0.8c0.7,0.5,1,1.3,1,2.3c0,0.6-0.2,1.1-0.5,1.6s-0.8,0.8-1.4,1.1
		c1.5,2.3,2.5,3.8,3,4.4h-2.4l-2.4-3.9H85.5z M85.5,10.6h0.7c0.7,0,1.2-0.1,1.5-0.3c0.3-0.2,0.5-0.6,0.5-1.1c0-0.5-0.2-0.8-0.5-1
		c-0.3-0.2-0.8-0.3-1.5-0.3h-0.7V10.6z"/>
</g>
</svg>
