<?xml version="1.0" encoding="utf-8"?>
<!-- Generator: Adobe Illustrator 22.1.0, SVG Export Plug-In . SVG Version: 6.00 Build 0)  -->
<svg version="1.1" id="Capa_1" xmlns="http://www.w3.org/2000/svg" xmlns:xlink="http://www.w3.org/1999/xlink" x="0px" y="0px"
	 viewBox="0 0 98 31.1" style="enable-background:new 0 0 98 31.1;" xml:space="preserve">
<style type="text/css">
	.st0{fill:#B52728;}
	.st1{fill:#3A3B38;}
	.st2{fill:#929292;}
	.st3{fill:#6B6B6B;}
	.st4{fill:#9D9D9D;}
	.st5{fill:#FFFFFF;}
	.st6{fill:#C0C0C0;}
	.st7{opacity:0.5;}
	.st8{fill:#3A3C39;}
	.st9{fill:#C22026;}
	.st10{fill:#F2F2F2;}
	.st11{fill:#9E9E9E;}
	.st12{fill:#C1C1C1;}
	.st13{fill:#D3D3D3;}
	.st14{fill:#969696;}
	.st15{opacity:0.85;}
	.st16{fill:#4D4D4D;}
	.st17{fill:none;stroke:#4D4D4D;stroke-width:1.5;stroke-miterlimit:10;}
	.st18{fill:#22BF7C;}
	.st19{fill:#FF8400;}
	.st20{fill:#B0B0B0;}
	.st21{fill:none;stroke:#FFFFFF;stroke-width:1.5;stroke-miterlimit:10;}
	.st22{fill:#CCCCCC;}
	.st23{fill:#444444;}
</style>
<g>
	<path class="st0" d="M2.5,31.1h93c1.4,0,2.5-1.1,2.5-2.5v-26C98,1.1,96.9,0,95.5,0h-93C1.1,0,0,1.1,0,2.5v26
		C0,30,1.1,31.1,2.5,31.1z"/>
</g>
<g>
	<path class="st5" d="M12.2,21V9.9h2.4V21H12.2z"/>
	<path class="st5" d="M22,21l-2.7-8.7h-0.1c0.1,1.8,0.1,3,0.1,3.5V21h-2.1V9.9h3.2l2.6,8.5h0L26,9.9h3.2V21H27v-5.3
		c0-0.2,0-0.5,0-0.9c0-0.3,0-1.2,0.1-2.6H27L24.2,21H22z"/>
	<path class="st5" d="M39.6,13.3c0,1.2-0.4,2.1-1.1,2.7c-0.7,0.6-1.8,0.9-3.2,0.9h-1V21H32V9.9h3.5c1.3,0,2.4,0.3,3.1,0.9
		C39.3,11.3,39.6,12.2,39.6,13.3z M34.3,15.1h0.8c0.7,0,1.3-0.1,1.6-0.4c0.4-0.3,0.5-0.7,0.5-1.2c0-0.6-0.2-1-0.5-1.2
		c-0.3-0.3-0.8-0.4-1.4-0.4h-1.1V15.1z"/>
	<path class="st5" d="M44.1,16.7V21h-2.4V9.9H45c1.5,0,2.6,0.3,3.3,0.8c0.7,0.5,1.1,1.4,1.1,2.5c0,0.7-0.2,1.2-0.5,1.7
		c-0.4,0.5-0.9,0.9-1.5,1.2c1.7,2.5,2.8,4.1,3.3,4.8H48l-2.6-4.3H44.1z M44.1,14.8h0.8c0.7,0,1.3-0.1,1.6-0.4
		c0.4-0.2,0.5-0.6,0.5-1.2c0-0.5-0.2-0.9-0.5-1.1c-0.4-0.2-0.9-0.3-1.7-0.3h-0.7V14.8z"/>
	<path class="st5" d="M52,21V9.9h2.4V21H52z"/>
	<path class="st5" d="M61.8,21l-2.7-8.7h-0.1c0.1,1.8,0.1,3,0.1,3.5V21h-2.1V9.9h3.2l2.6,8.5h0l2.8-8.5H69V21h-2.2v-5.3
		c0-0.2,0-0.5,0-0.9c0-0.3,0-1.2,0.1-2.6h-0.1L64,21H61.8z"/>
	<path class="st5" d="M71.8,21V9.9h2.4V21H71.8z"/>
	<path class="st5" d="M79.3,16.7V21H77V9.9h3.2c1.5,0,2.6,0.3,3.3,0.8c0.7,0.5,1.1,1.4,1.1,2.5c0,0.7-0.2,1.2-0.5,1.7
		c-0.4,0.5-0.9,0.9-1.5,1.2c1.7,2.5,2.8,4.1,3.3,4.8h-2.6l-2.6-4.3H79.3z M79.3,14.8h0.8c0.7,0,1.3-0.1,1.6-0.4
		c0.4-0.2,0.5-0.6,0.5-1.2c0-0.5-0.2-0.9-0.5-1.1c-0.4-0.2-0.9-0.3-1.7-0.3h-0.7V14.8z"/>
</g>
</svg>
