<?xml version="1.0" encoding="utf-8"?>
<!-- Generator: Adobe Illustrator 22.1.0, SVG Export Plug-In . SVG Version: 6.00 Build 0)  -->
<svg version="1.1" id="Capa_1" xmlns="http://www.w3.org/2000/svg" xmlns:xlink="http://www.w3.org/1999/xlink" x="0px" y="0px"
	 viewBox="0 0 100 33.1" style="enable-background:new 0 0 100 33.1;" xml:space="preserve">
<style type="text/css">
	.st0{fill:#B52728;}
	.st1{fill:#3A3B38;}
	.st2{fill:#929292;}
	.st3{fill:#6B6B6B;}
	.st4{fill:#9D9D9D;}
	.st5{fill:#FFFFFF;}
	.st6{fill:#C0C0C0;}
	.st7{opacity:0.5;}
	.st8{fill:#3A3C39;}
	.st9{fill:#C22026;}
	.st10{fill:#F2F2F2;}
	.st11{fill:#9E9E9E;}
	.st12{fill:#C1C1C1;}
	.st13{fill:#D3D3D3;}
	.st14{fill:#969696;}
	.st15{opacity:0.85;}
	.st16{fill:#4D4D4D;}
	.st17{fill:none;stroke:#4D4D4D;stroke-width:1.5;stroke-miterlimit:10;}
	.st18{fill:#22BF7C;}
	.st19{fill:#FF8400;}
	.st20{fill:#B0B0B0;}
	.st21{fill:none;stroke:#FFFFFF;stroke-width:1.5;stroke-miterlimit:10;}
	.st22{fill:#CCCCCC;}
	.st23{fill:#444444;}
</style>
<g>
	<path class="st8" d="M13.2,22V10.9h2.4V22H13.2z"/>
	<path class="st8" d="M23,22l-2.7-8.7h-0.1c0.1,1.8,0.1,3,0.1,3.5V22h-2.1V10.9h3.2l2.6,8.5h0l2.8-8.5h3.2V22H28v-5.3
		c0-0.2,0-0.5,0-0.9c0-0.3,0-1.2,0.1-2.6H28L25.2,22H23z"/>
	<path class="st8" d="M40.6,14.3c0,1.2-0.4,2.1-1.1,2.7c-0.7,0.6-1.8,0.9-3.2,0.9h-1V22H33V10.9h3.5c1.3,0,2.4,0.3,3.1,0.9
		C40.3,12.3,40.6,13.2,40.6,14.3z M35.3,16.1h0.8c0.7,0,1.3-0.1,1.6-0.4c0.4-0.3,0.5-0.7,0.5-1.2c0-0.6-0.2-1-0.5-1.2
		c-0.3-0.3-0.8-0.4-1.4-0.4h-1.1V16.1z"/>
	<path class="st8" d="M45.1,17.7V22h-2.4V10.9H46c1.5,0,2.6,0.3,3.3,0.8c0.7,0.5,1.1,1.4,1.1,2.5c0,0.7-0.2,1.2-0.5,1.7
		c-0.4,0.5-0.9,0.9-1.5,1.2c1.7,2.5,2.8,4.1,3.3,4.8H49l-2.6-4.3H45.1z M45.1,15.8h0.8c0.7,0,1.3-0.1,1.6-0.4
		c0.4-0.2,0.5-0.6,0.5-1.2c0-0.5-0.2-0.9-0.5-1.1c-0.4-0.2-0.9-0.3-1.7-0.3h-0.7V15.8z"/>
	<path class="st8" d="M53,22V10.9h2.4V22H53z"/>
	<path class="st8" d="M62.8,22l-2.7-8.7h-0.1c0.1,1.8,0.1,3,0.1,3.5V22h-2.1V10.9h3.2l2.6,8.5h0l2.8-8.5H70V22h-2.2v-5.3
		c0-0.2,0-0.5,0-0.9c0-0.3,0-1.2,0.1-2.6h-0.1L65,22H62.8z"/>
	<path class="st8" d="M72.8,22V10.9h2.4V22H72.8z"/>
	<path class="st8" d="M80.3,17.7V22H78V10.9h3.2c1.5,0,2.6,0.3,3.3,0.8c0.7,0.5,1.1,1.4,1.1,2.5c0,0.7-0.2,1.2-0.5,1.7
		c-0.4,0.5-0.9,0.9-1.5,1.2c1.7,2.5,2.8,4.1,3.3,4.8h-2.6l-2.6-4.3H80.3z M80.3,15.8h0.8c0.7,0,1.3-0.1,1.6-0.4
		c0.4-0.2,0.5-0.6,0.5-1.2c0-0.5-0.2-0.9-0.5-1.1c-0.4-0.2-0.9-0.3-1.7-0.3h-0.7V15.8z"/>
</g>
<g>
	<path class="st11" d="M96.5,33.1h-93c-1.9,0-3.5-1.6-3.5-3.5v-26C0,1.6,1.6,0,3.5,0h93c1.9,0,3.5,1.6,3.5,3.5v26
		C100,31.5,98.5,33.1,96.5,33.1z M3.5,2C2.7,2,2,2.7,2,3.5v26c0,0.8,0.7,1.5,1.5,1.5h93c0.8,0,1.5-0.7,1.5-1.5v-26
		C98,2.7,97.4,2,96.5,2H3.5z"/>
</g>
</svg>
