<?xml version="1.0" encoding="utf-8"?>
<!-- Generator: Adobe Illustrator 22.1.0, SVG Export Plug-In . SVG Version: 6.00 Build 0)  -->
<svg version="1.1" id="Capa_1" xmlns="http://www.w3.org/2000/svg" xmlns:xlink="http://www.w3.org/1999/xlink" x="0px" y="0px"
	 viewBox="0 0 81 33.1" style="enable-background:new 0 0 81 33.1;" xml:space="preserve">
<style type="text/css">
	.st0{fill:#B52728;}
	.st1{fill:#3A3B38;}
	.st2{fill:#929292;}
	.st3{fill:#6B6B6B;}
	.st4{fill:#9D9D9D;}
	.st5{fill:#FFFFFF;}
	.st6{fill:#C0C0C0;}
	.st7{opacity:0.5;}
	.st8{fill:#3A3C39;}
	.st9{fill:#C22026;}
	.st10{fill:#F2F2F2;}
	.st11{fill:#9E9E9E;}
	.st12{fill:#C1C1C1;}
	.st13{fill:#D3D3D3;}
	.st14{fill:#969696;}
	.st15{opacity:0.85;}
	.st16{fill:#4D4D4D;}
	.st17{fill:none;stroke:#4D4D4D;stroke-width:1.5;stroke-miterlimit:10;}
	.st18{fill:#22BF7C;}
	.st19{fill:#FF8400;}
	.st20{fill:#B0B0B0;}
	.st21{fill:none;stroke:#FFFFFF;stroke-width:1.5;stroke-miterlimit:10;}
	.st22{fill:#CCCCCC;}
	.st23{fill:#444444;}
</style>
<g>
	<path class="st8" d="M19.6,22h-6.4V10.9h6.4v1.9h-4v2.4h3.8v1.9h-3.8V20h4V22z"/>
	<path class="st8" d="M31.7,22h-3l-4.8-8.4h-0.1c0.1,1.5,0.1,2.5,0.1,3.2V22h-2.1V10.9h3l4.8,8.3h0.1c-0.1-1.4-0.1-2.5-0.1-3.1v-5.3
		h2.1V22z"/>
	<path class="st8" d="M40.9,10.9h2.4L39.5,22h-2.6l-3.8-11.1h2.4l2.1,6.6c0.1,0.4,0.2,0.8,0.4,1.4s0.2,0.9,0.2,1.1
		c0.1-0.5,0.2-1.3,0.6-2.4L40.9,10.9z"/>
	<path class="st8" d="M44.6,22V10.9H47V22H44.6z"/>
	<path class="st8" d="M56.6,22l-0.8-2.6h-4L50.9,22h-2.5l3.9-11.1h2.9L59.1,22H56.6z M55.2,17.4c-0.7-2.4-1.2-3.7-1.3-4.1
		c-0.1-0.3-0.2-0.6-0.2-0.7c-0.2,0.6-0.6,2.2-1.4,4.8H55.2z"/>
	<path class="st8" d="M62.8,17.7V22h-2.4V10.9h3.2c1.5,0,2.6,0.3,3.3,0.8c0.7,0.5,1.1,1.4,1.1,2.5c0,0.7-0.2,1.2-0.5,1.7
		c-0.4,0.5-0.9,0.9-1.5,1.2c1.7,2.5,2.8,4.1,3.3,4.8h-2.6l-2.6-4.3H62.8z M62.8,15.8h0.8c0.7,0,1.3-0.1,1.6-0.4
		c0.4-0.2,0.5-0.6,0.5-1.2c0-0.5-0.2-0.9-0.5-1.1c-0.4-0.2-0.9-0.3-1.7-0.3h-0.7V15.8z"/>
</g>
<g>
	<path class="st11" d="M77.5,33.1h-74c-1.9,0-3.5-1.6-3.5-3.5v-26C0,1.6,1.6,0,3.5,0h74C79.5,0,81,1.6,81,3.5v26
		C81,31.5,79.5,33.1,77.5,33.1z M3.5,2C2.7,2,2,2.7,2,3.5v26c0,0.8,0.7,1.5,1.5,1.5h74c0.8,0,1.5-0.7,1.5-1.5v-26
		C79,2.7,78.4,2,77.5,2H3.5z"/>
</g>
</svg>
