<?xml version="1.0" encoding="utf-8"?>
<svg version="1.1" id="Capa_1" xmlns="http://www.w3.org/2000/svg" xmlns:xlink="http://www.w3.org/1999/xlink" x="0px" y="0px"
	 viewBox="0 0 339.6 92.9" style="enable-background:new 0 0 339.6 92.9;" xml:space="preserve">
<style type="text/css">
	.st0{fill:#B52728;}
	.st1{fill:#929292;}
	.st2{fill:#6B6B6B;}
</style>
<g>
	<g>
		<g>
			<g>
				<path class="st0" d="M6.6,76.9h4.2l6.6,15.7h-4.6l-1.1-2.8h-6l-1.1,2.8H0L6.6,76.9z M10.4,86.5l-1.7-4.4l-1.8,4.4H10.4z"/>
			</g>
			<g>
				<path class="st0" d="M34.4,77.1h7.4c2.4,0,4,0.6,5.1,1.7c0.9,0.9,1.4,2.1,1.4,3.6l0,0c0,2.4-1.3,4-3.2,4.8l3.7,5.4h-5l-3.1-4.7
					h-1.9v4.7h-4.3V77.1H34.4z M41.6,84.5c1.4,0,2.3-0.7,2.3-1.8l0,0c0-1.2-0.9-1.9-2.3-1.9h-2.8v3.8L41.6,84.5L41.6,84.5z"/>
			</g>
			<g>
				<path class="st0" d="M66,77.1h7.4c2.4,0,4,0.6,5.1,1.7c0.9,0.9,1.4,2.1,1.4,3.6l0,0c0,2.4-1.3,4-3.2,4.8l3.7,5.4h-5l-3.1-4.7
					h-1.9v4.7H66V77.1z M73.1,84.5c1.4,0,2.3-0.7,2.3-1.8l0,0c0-1.2-0.9-1.9-2.3-1.9h-2.8v3.8L73.1,84.5L73.1,84.5z"/>
			</g>
			<g>
				<path class="st0" d="M97.5,77.1H110v3.6h-8.2v2.4h7.5v3.4h-7.5V89h8.4v3.7H97.5V77.1z"/>
			</g>
			<g>
				<path class="st0" d="M127.9,77.1h4l6.4,8.2v-8.2h4.3v15.6h-3.8l-6.7-8.5v8.5h-4.3V77.1H127.9z"/>
			</g>
			<g>
				<path class="st0" d="M160.9,77.1h6c5.5,0,8.8,3.2,8.8,7.7l0,0c0,4.5-3.3,7.8-8.8,7.8H161V77.1H160.9z M165.2,80.9v7.9h1.8
					c2.6,0,4.3-1.4,4.3-3.9l0,0c0-2.5-1.7-4-4.3-4H165.2z"/>
			</g>
			<g>
				<path class="st0" d="M197.7,76.9h4.2l6.6,15.7h-4.6l-1.1-2.8h-6l-1.1,2.8h-4.5L197.7,76.9z M201.5,86.5l-1.7-4.4l-1.8,4.4H201.5
					z"/>
			</g>
			<g>
				<path class="st0" d="M225.6,77.1h6c5.5,0,8.8,3.2,8.8,7.7l0,0c0,4.5-3.3,7.8-8.8,7.8h-5.9V77.1H225.6z M229.9,80.9v7.9h1.8
					c2.6,0,4.3-1.4,4.3-3.9l0,0c0-2.5-1.7-4-4.3-4H229.9z"/>
			</g>
			<g>
				<path class="st0" d="M257.6,84.9L257.6,84.9c0-4.5,3.6-8.1,8.4-8.1s8.4,3.6,8.4,8l0,0c0,4.5-3.6,8.1-8.4,8.1
					S257.6,89.3,257.6,84.9z M270,84.9L270,84.9c0-2.3-1.6-4.2-4-4.2s-4,1.9-4,4.2l0,0c0,2.2,1.6,4.2,4,4.2
					C268.4,89,270,87.1,270,84.9z"/>
			</g>
			<g>
				<path class="st0" d="M292.2,77.1h7.4c2.4,0,4,0.6,5.1,1.7c0.9,0.9,1.4,2.1,1.4,3.6l0,0c0,2.4-1.3,4-3.2,4.8l3.7,5.4h-5l-3.1-4.7
					h-1.9v4.7h-4.3V77.1H292.2z M299.3,84.5c1.4,0,2.3-0.7,2.3-1.8l0,0c0-1.2-0.9-1.9-2.3-1.9h-2.8v3.8L299.3,84.5L299.3,84.5z"/>
			</g>
			<g>
				<path class="st0" d="M328.8,76.9h4.2l6.6,15.7H335l-1.1-2.8h-6l-1.1,2.8h-4.5L328.8,76.9z M332.6,86.5l-1.7-4.4l-1.8,4.4H332.6z
					"/>
			</g>
		</g>
		<g>
			<path class="st1" d="M49.2,27.4c0,0,4.8-1.8,4.8-12.7S42,0,36.7,0S3.4,0,2.6,0.3L2.9,58c0,0,26.3,0,36.4,0s17.8-7.4,17.8-17
				S49.2,27.4,49.2,27.4z M36.3,38.4c0,1.8-0.8,4-4.3,4c-3.2,0-7.6,0-7.6,0V14.7c0,0,4.8,0,6.6,0s4,1.2,4,3.9c0,3-2.7,3.9-4.3,3.9
				c-1,0-1,0-1,0v11.8h1.6C35.6,34.3,36.3,36.3,36.3,38.4z"/>
		</g>
		<g>
			<path class="st1" d="M120.8,0h13.6c4.4,0,7.9,3.5,7.9,7.9v29.6h21.3v20.7h-32.4L121,33.5L120.8,0z"/>
		</g>
		<g>
			<path class="st1" d="M156.5,0H202c4.4,0,7.9,3.5,7.9,7.9v12.6h-16v37.8h-21.4V21h-16V0z"/>
		</g>
		<g>
			<polygon class="st1" points="277.4,57.8 270.2,44.8 287.6,0.2 300.7,21.7 294.2,38.8 300.8,38.8 307.8,57.8 			"/>
		</g>
		<g>
			<polygon class="st0" points="313.4,0.2 287.6,0.2 300.7,21.7 313.7,58 336.8,58 			"/>
		</g>
		<g>
			<path class="st1" d="M260.2,37.3c0,0,9.4-3,9.4-16.7C269.6,3,253.7,0,245.8,0s-30.4,0-30.4,0v58l21.4-0.2V19.7c0,0,4.1,0,7.3,0
				c3.1,0,4.1,2.4,4.1,4.6c0,1.9-1.7,4.1-3.9,4.1c-0.7,0-1.5,0-2.3,0v15.3l7.1,14.1h22.4L260.2,37.3z"/>
		</g>
		<g>
			<polygon class="st2" points="294.2,38.8 287.2,57.8 307.8,57.8 300.8,38.8 			"/>
		</g>
		<g>
			<polygon class="st2" points="300.7,21.7 292.1,0.2 287.6,0.2 			"/>
		</g>
		<g>
			<polygon class="st1" points="66.2,57.8 58.9,44.8 76.3,0.2 89.4,21.7 82.9,38.8 89.5,38.8 96.5,57.8 			"/>
		</g>
		<g>
			<polygon class="st1" points="102.2,0.2 76.3,0.2 89.4,21.7 102.4,58 125.5,58 			"/>
		</g>
		<g>
			<polygon class="st1" points="82.9,38.8 76,57.8 96.5,57.8 89.5,38.8 			"/>
		</g>
		<g>
			<polygon class="st1" points="89.4,21.7 80.9,0.2 76.3,0.2 			"/>
		</g>
	</g>
</g>
</svg>
