<?xml version="1.0" encoding="utf-8"?>
<!-- Generator: Adobe Illustrator 22.1.0, SVG Export Plug-In . SVG Version: 6.00 Build 0)  -->
<svg version="1.1" id="Capa_1" xmlns="http://www.w3.org/2000/svg" xmlns:xlink="http://www.w3.org/1999/xlink" x="0px" y="0px"
	 viewBox="0 0 599.8 42.5" style="enable-background:new 0 0 599.8 42.5;" xml:space="preserve">
<style type="text/css">
	.st0{fill:#B52728;}
	.st1{fill:#3A3B38;}
	.st2{fill:#929292;}
	.st3{fill:#6B6B6B;}
	.st4{fill:#9D9D9D;}
	.st5{fill:#FFFFFF;}
	.st6{fill:#C0C0C0;}
	.st7{opacity:0.5;}
	.st8{fill:#3A3C39;}
	.st9{fill:#C22026;}
	.st10{fill:#F2F2F2;}
	.st11{fill:#9E9E9E;}
	.st12{fill:#C1C1C1;}
	.st13{fill:#D3D3D3;}
	.st14{fill:#969696;}
	.st15{opacity:0.85;}
	.st16{fill:#4D4D4D;}
	.st17{fill:none;stroke:#4D4D4D;stroke-width:1.5;stroke-miterlimit:10;}
	.st18{fill:#22BF7C;}
	.st19{fill:#FF8400;}
	.st20{fill:#B0B0B0;}
	.st21{fill:none;stroke:#FFFFFF;stroke-width:1.5;stroke-miterlimit:10;}
	.st22{fill:#CCCCCC;}
	.st23{fill:#444444;}
</style>
<g>
	<g>
		<path class="st10" d="M563.7,41.7H5.2c-2.3,0-4.2-1.9-4.2-4.2V5.2C1,2.9,2.9,1,5.2,1h558.5V41.7z"/>
	</g>
	<g>
		<path class="st13" d="M594.9,1h-31.1v40.7h31.1c2.3,0,4.2-1.9,4.2-4.2V5.2C599.1,2.9,597.2,1,594.9,1z"/>
	</g>
	<g class="st7">
		<path class="st5" d="M599.8,5.2h-1.5c0-1.9-1.6-3.5-3.5-3.5h-31.1V0.2h31.1C597.6,0.2,599.8,2.5,599.8,5.2z"/>
	</g>
	<g class="st7">
		<path class="st5" d="M563.7,42.5H5.2c-2.7,0-5-2.2-5-5h1.5c0,1.9,1.6,3.5,3.5,3.5H562V1h1.5v39.9c0.1,0,0.1,0,0.2,0l0,0
			c0.5,0.1,0.8,0.2,0.8,0.8l0,0.7L563.7,42.5z"/>
	</g>
	<g>
		<path class="st12" d="M1,38.5c-0.6,0-1-0.4-1-1V5.2C0,2.3,2.3,0,5.2,0h558.5c0.6,0,1,0.4,1,1s-0.4,1-1,1H5.2C3.4,2,2,3.4,2,5.2
			v32.3C2,38,1.6,38.5,1,38.5z"/>
	</g>
</g>
<g>
	<path class="st12" d="M595.7,42.7h-31.9v-2h31.9c1.3,0,2.4-1.1,2.4-2.4v-33h2v33C600.1,40.7,598.1,42.7,595.7,42.7z"/>
</g>
<g>
	<path class="st14" d="M581.4,26c-0.3,0-0.6-0.1-0.7-0.3l-5.8-6.4c-0.4-0.4-0.3-1,0.1-1.4c0.4-0.4,1-0.3,1.4,0.1l5,5.6l5-5.6
		c0.4-0.4,1-0.4,1.4-0.1c0.4,0.4,0.4,1,0.1,1.4l-5.8,6.4C582,25.9,581.7,26,581.4,26z"/>
</g>
<g class="st15">
	<path class="st5" d="M579.9,25.7l-6.3-7.1c-0.3-0.3-0.2-0.8,0.1-1.1c0.3-0.3,0.8-0.2,1.1,0.1l5.2,5.8l5.2-5.8
		c0.3-0.3,0.8-0.3,1.1-0.1c0.3,0.3,0.3,0.8,0.1,1.1L579.9,25.7z"/>
</g>
</svg>
