<?xml version="1.0" encoding="utf-8"?>
<!-- Generator: Adobe Illustrator 22.1.0, SVG Export Plug-In . SVG Version: 6.00 Build 0)  -->
<svg version="1.1" id="Capa_1" xmlns="http://www.w3.org/2000/svg" xmlns:xlink="http://www.w3.org/1999/xlink" x="0px" y="0px"
	 viewBox="0 0 599.8 42.5" style="enable-background:new 0 0 599.8 42.5;" xml:space="preserve">
<style type="text/css">
	.st0{fill:#F2F2F2;}
	.st1{fill:#969696;}
	.st2{opacity:0.5;}
	.st3{fill:#C1C1C1;}
	.st4{fill:#FFFFFF;}
	.st5{fill:#D3D3D3;}
	.st6{opacity:0.85;}
</style>
<g>
	<g>
		<path class="st0" d="M563.7,41.7H5.2c-2.3,0-4.2-1.9-4.2-4.2V5.2C1,2.9,2.9,1,5.2,1h558.5V41.7z"/>
	</g>
	<g>
		<path class="st1" d="M594.9,1h-31.1v40.7h31.1c2.3,0,4.2-1.9,4.2-4.2V5.2C599.1,2.9,597.2,1,594.9,1z"/>
	</g>
	<g class="st2">
		<path class="st3" d="M599.8,5.3h-1.5c0-2-1.6-3.6-3.5-3.6h-31V0h31C597.6,0,599.8,2.5,599.8,5.3z"/>
	</g>
	<g>
		<path class="st3" d="M562,0H5.2C2.3,0,0,2.3,0,5.2v32.3c0,0.6,0.4,1,1,1s1-0.5,1-1V5.2C2,3.4,3.4,2,5.2,2H562V0z"/>
	</g>
</g>
<g class="st2">
	<path class="st4" d="M595.7,42.5h-31.9v-1.8h31.9c1.3,0,2.4-1.1,2.6-2.4v-33h1.5v33C600.1,40.7,598.1,42.7,595.7,42.5z"/>
</g>
<g>
	<path class="st5" d="M581.4,26c-0.3,0-0.6-0.1-0.7-0.3l-5.8-6.4c-0.4-0.4-0.3-1,0.1-1.4c0.4-0.4,1-0.3,1.4,0.1l5,5.6l5-5.6
		c0.4-0.4,1-0.4,1.4-0.1c0.4,0.4,0.4,1,0.1,1.4l-5.8,6.4C582,25.9,581.7,26,581.4,26z"/>
</g>
<g class="st6">
	<path class="st4" d="M579.9,25.7l-6.3-7.1c-0.3-0.3-0.2-0.8,0.1-1.1c0.3-0.3,0.8-0.2,1.1,0.1l5.2,5.8l5.2-5.8
		c0.3-0.3,0.8-0.3,1.1-0.1c0.3,0.3,0.3,0.8,0.1,1.1L579.9,25.7z"/>
</g>
</svg>
