<?xml version="1.0" encoding="UTF-8"?>
<svg width="340px" height="93px" viewBox="0 0 340 93" version="1.1" xmlns="http://www.w3.org/2000/svg" xmlns:xlink="http://www.w3.org/1999/xlink">
    <!-- Generator: Sketch 54.1 (76490) - https://sketchapp.com -->
    <title>logobaltra</title>
    <desc>Created with Sketch.</desc>
    <g id="Page-1" stroke="none" stroke-width="1" fill="none" fill-rule="evenodd">
        <g id="logobaltra" fill-rule="nonzero">
            <g id="Group" transform="translate(0.000000, 76.000000)" fill="#B52728">
                <path d="M6.6,0.9 L10.8,0.9 L17.4,16.6 L12.8,16.6 L11.7,13.8 L5.7,13.8 L4.6,16.6 L0,16.6 L6.6,0.9 Z M10.4,10.5 L8.7,6.1 L6.9,10.5 L10.4,10.5 Z" id="Shape"></path>
                <path d="M34.4,1.1 L41.8,1.1 C44.2,1.1 45.8,1.7 46.9,2.8 C47.8,3.7 48.3,4.9 48.3,6.4 L48.3,6.4 C48.3,8.8 47,10.4 45.1,11.2 L48.8,16.6 L43.8,16.6 L40.7,11.9 L38.8,11.9 L38.8,16.6 L34.5,16.6 L34.5,1.1 L34.4,1.1 Z M41.6,8.5 C43,8.5 43.9,7.8 43.9,6.7 L43.9,6.7 C43.9,5.5 43,4.8 41.6,4.8 L38.8,4.8 L38.8,8.6 L41.6,8.5 L41.6,8.5 Z" id="Shape"></path>
                <path d="M66,1.1 L73.4,1.1 C75.8,1.1 77.4,1.7 78.5,2.8 C79.4,3.7 79.9,4.9 79.9,6.4 L79.9,6.4 C79.9,8.8 78.6,10.4 76.7,11.2 L80.4,16.6 L75.4,16.6 L72.3,11.9 L70.4,11.9 L70.4,16.6 L66,16.6 L66,1.1 Z M73.1,8.5 C74.5,8.5 75.4,7.8 75.4,6.7 L75.4,6.7 C75.4,5.5 74.5,4.8 73.1,4.8 L70.3,4.8 L70.3,8.6 L73.1,8.5 L73.1,8.5 Z" id="Shape"></path>
                <polygon id="Path" points="97.5 1.1 110 1.1 110 4.7 101.8 4.7 101.8 7.1 109.3 7.1 109.3 10.5 101.8 10.5 101.8 13 110.2 13 110.2 16.7 97.5 16.7"></polygon>
                <polygon id="Path" points="127.9 1.1 131.9 1.1 138.3 9.3 138.3 1.1 142.6 1.1 142.6 16.7 138.8 16.7 132.1 8.2 132.1 16.7 127.8 16.7 127.8 1.1"></polygon>
                <path d="M160.9,1.1 L166.9,1.1 C172.4,1.1 175.7,4.3 175.7,8.8 L175.7,8.8 C175.7,13.3 172.4,16.6 166.9,16.6 L161,16.6 L161,1.1 L160.9,1.1 Z M165.2,4.9 L165.2,12.8 L167,12.8 C169.6,12.8 171.3,11.4 171.3,8.9 L171.3,8.9 C171.3,6.4 169.6,4.9 167,4.9 L165.2,4.9 Z" id="Shape"></path>
                <path d="M197.7,0.9 L201.9,0.9 L208.5,16.6 L203.9,16.6 L202.8,13.8 L196.8,13.8 L195.7,16.6 L191.2,16.6 L197.7,0.9 Z M201.5,10.5 L199.8,6.1 L198,10.5 L201.5,10.5 Z" id="Shape"></path>
                <path d="M225.6,1.1 L231.6,1.1 C237.1,1.1 240.4,4.3 240.4,8.8 L240.4,8.8 C240.4,13.3 237.1,16.6 231.6,16.6 L225.7,16.6 L225.7,1.1 L225.6,1.1 Z M229.9,4.9 L229.9,12.8 L231.7,12.8 C234.3,12.8 236,11.4 236,8.9 L236,8.9 C236,6.4 234.3,4.9 231.7,4.9 L229.9,4.9 Z" id="Shape"></path>
                <path d="M257.6,8.9 L257.6,8.9 C257.6,4.4 261.2,0.8 266,0.8 C270.8,0.8 274.4,4.4 274.4,8.8 L274.4,8.8 C274.4,13.3 270.8,16.9 266,16.9 C261.2,16.9 257.6,13.3 257.6,8.9 Z M270,8.9 L270,8.9 C270,6.6 268.4,4.7 266,4.7 C263.6,4.7 262,6.6 262,8.9 L262,8.9 C262,11.1 263.6,13.1 266,13.1 C268.4,13 270,11.1 270,8.9 Z" id="Shape"></path>
                <path d="M292.2,1.1 L299.6,1.1 C302,1.1 303.6,1.7 304.7,2.8 C305.6,3.7 306.1,4.9 306.1,6.4 L306.1,6.4 C306.1,8.8 304.8,10.4 302.9,11.2 L306.6,16.6 L301.6,16.6 L298.5,11.9 L296.6,11.9 L296.6,16.6 L292.3,16.6 L292.3,1.1 L292.2,1.1 Z M299.3,8.5 C300.7,8.5 301.6,7.8 301.6,6.7 L301.6,6.7 C301.6,5.5 300.7,4.8 299.3,4.8 L296.5,4.8 L296.5,8.6 L299.3,8.5 L299.3,8.5 Z" id="Shape"></path>
                <path d="M328.8,0.9 L333,0.9 L339.6,16.6 L335,16.6 L333.9,13.8 L327.9,13.8 L326.8,16.6 L322.3,16.6 L328.8,0.9 Z M332.6,10.5 L330.9,6.1 L329.1,10.5 L332.6,10.5 Z" id="Shape"></path>
            </g>
            <path d="M49.2,27.4 C49.2,27.4 54,25.6 54,14.7 C54,3.8 42,0 36.7,0 C31.4,0 3.4,0 2.6,0.3 L2.9,58 C2.9,58 29.2,58 39.3,58 C49.4,58 57.1,50.6 57.1,41 C57.1,31.4 49.2,27.4 49.2,27.4 Z M36.3,38.4 C36.3,40.2 35.5,42.4 32,42.4 C28.8,42.4 24.4,42.4 24.4,42.4 L24.4,14.7 C24.4,14.7 29.2,14.7 31,14.7 C32.8,14.7 35,15.9 35,18.6 C35,21.6 32.3,22.5 30.7,22.5 C29.7,22.5 29.7,22.5 29.7,22.5 L29.7,34.3 L31.3,34.3 C35.6,34.3 36.3,36.3 36.3,38.4 Z" id="Shape" fill="#929292"></path>
            <path d="M120.8,0 L134.4,0 C138.8,0 142.3,3.5 142.3,7.9 L142.3,37.5 L163.6,37.5 L163.6,58.2 L131.2,58.2 L121,33.5 L120.8,0 Z" id="Path" fill="#929292"></path>
            <path d="M156.5,0 L202,0 C206.4,0 209.9,3.5 209.9,7.9 L209.9,20.5 L193.9,20.5 L193.9,58.3 L172.5,58.3 L172.5,21 L156.5,21 L156.5,0 Z" id="Path" fill="#929292"></path>
            <polygon id="Path" fill="#929292" points="277.4 57.8 270.2 44.8 287.6 0.2 300.7 21.7 294.2 38.8 300.8 38.8 307.8 57.8"></polygon>
            <polygon id="Path" fill="#B52728" points="313.4 0.2 287.6 0.2 300.7 21.7 313.7 58 336.8 58"></polygon>
            <path d="M260.2,37.3 C260.2,37.3 269.6,34.3 269.6,20.6 C269.6,3 253.7,0 245.8,0 C237.9,0 215.4,0 215.4,0 L215.4,58 L236.8,57.8 L236.8,19.7 C236.8,19.7 240.9,19.7 244.1,19.7 C247.2,19.7 248.2,22.1 248.2,24.3 C248.2,26.2 246.5,28.4 244.3,28.4 C243.6,28.4 242.8,28.4 242,28.4 L242,43.7 L249.1,57.8 L271.5,57.8 L260.2,37.3 Z" id="Path" fill="#929292"></path>
            <polygon id="Path" fill="#6B6B6B" points="294.2 38.8 287.2 57.8 307.8 57.8 300.8 38.8"></polygon>
            <polygon id="Path" fill="#6B6B6B" points="300.7 21.7 292.1 0.2 287.6 0.2"></polygon>
            <polygon id="Path" fill="#929292" points="66.2 57.8 58.9 44.8 76.3 0.2 89.4 21.7 82.9 38.8 89.5 38.8 96.5 57.8"></polygon>
            <polygon id="Path" fill="#929292" points="102.2 0.2 76.3 0.2 89.4 21.7 102.4 58 125.5 58"></polygon>
            <polygon id="Path" fill="#929292" points="82.9 38.8 76 57.8 96.5 57.8 89.5 38.8"></polygon>
            <polygon id="Path" fill="#929292" points="89.4 21.7 80.9 0.2 76.3 0.2"></polygon>
        </g>
    </g>
</svg>