<?xml version="1.0" encoding="UTF-8"?>
<svg width="233px" height="41px" viewBox="0 0 233 41" version="1.1" xmlns="http://www.w3.org/2000/svg" xmlns:xlink="http://www.w3.org/1999/xlink">
    <!-- Generator: Sketch 54.1 (76490) - https://sketchapp.com -->
    <title>logobaltra--gris</title>
    <desc>Created with Sketch.</desc>
    <g id="Page-1" stroke="none" stroke-width="1" fill="none" fill-rule="evenodd">
        <g id="logobaltra--gris" fill-rule="nonzero">
            <path d="M32.8016048,19.0416096 C32.8016048,19.0416096 36.1373612,17.7907009 36.1373612,10.215754 C36.1373612,2.64080716 27.7979701,0 24.1147391,0 C20.4315081,0 0.972928955,0 0.416969552,0.208484776 L0.625454328,40.3070567 C0.625454328,40.3070567 18.9026197,40.3070567 25.9216072,40.3070567 C32.9405946,40.3070567 38.2917039,35.1644322 38.2917039,28.4929194 C38.2917039,21.8214066 32.8016048,19.0416096 32.8016048,19.0416096 Z M23.8367594,26.6860513 C23.8367594,27.93696 23.2808,29.4658484 20.8484776,29.4658484 C18.62464,29.4658484 15.5668633,29.4658484 15.5668633,29.4658484 L15.5668633,10.215754 C15.5668633,10.215754 18.9026197,10.215754 20.1535284,10.215754 C21.404437,10.215754 22.9333254,11.0496931 22.9333254,12.9260561 C22.9333254,15.0109039 21.0569624,15.6363582 19.9450436,15.6363582 C19.2500943,15.6363582 19.2500943,15.6363582 19.2500943,15.6363582 L19.2500943,23.8367594 L20.3620131,23.8367594 C23.3502949,23.8367594 23.8367594,25.2266579 23.8367594,26.6860513 Z" id="Shape" fill="#929292"></path>
            <path d="M82.5599713,0 L92.0112812,0 C95.0690579,0 97.5013803,2.43232239 97.5013803,5.4900991 L97.5013803,26.060597 L112.303799,26.060597 L112.303799,40.4460466 L89.7874436,40.4460466 L82.6989612,23.2808 L82.5599713,0 Z" id="Path" fill="#929292"></path>
            <path d="M107.36966,0 L138.989851,0 C142.047627,0 144.47995,2.43232239 144.47995,5.4900991 L144.47995,14.2464597 L133.360762,14.2464597 L133.360762,40.5155415 L118.488848,40.5155415 L118.488848,14.5939343 L107.36966,14.5939343 L107.36966,0 Z" id="Path" fill="#929292"></path>
            <polygon id="Path" fill="#929292" points="191.389024 40.1680669 186.38539 31.1337266 198.477507 0.138989851 207.581342 15.0803988 203.064172 26.964031 207.650837 26.964031 212.515482 40.1680669"></polygon>
            <polygon id="Path" fill="#B52728" points="216.407198 0.138989851 198.477507 0.138989851 207.581342 15.0803988 216.615682 40.3070567 232.66901 40.3070567"></polygon>
            <path d="M179.435897,25.9216072 C179.435897,25.9216072 185.96842,23.8367594 185.96842,14.3159546 C185.96842,2.08484776 174.918727,0 169.428628,0 C163.938529,0 148.302171,0 148.302171,0 L148.302171,40.3070567 L163.174085,40.1680669 L163.174085,13.6905003 C163.174085,13.6905003 166.023377,13.6905003 168.247214,13.6905003 C170.401557,13.6905003 171.096506,15.3583785 171.096506,16.8872669 C171.096506,18.2076704 169.915093,19.7365588 168.386204,19.7365588 C167.89974,19.7365588 167.34378,19.7365588 166.787821,19.7365588 L166.787821,30.3692824 L171.721961,40.1680669 L187.288824,40.1680669 L179.435897,25.9216072 Z" id="Path" fill="#929292"></path>
            <polygon id="Path" fill="#6B6B6B" points="203.064172 26.964031 198.199527 40.1680669 212.515482 40.1680669 207.650837 26.964031"></polygon>
            <polygon id="Path" fill="#6B6B6B" points="207.581342 15.0803988 201.604779 0.138989851 198.477507 0.138989851"></polygon>
            <polygon id="Path" fill="#929292" points="44.6157421 40.1680669 39.5426125 31.1337266 51.6347296 0.138989851 60.7385648 15.0803988 56.2213946 26.964031 60.8080597 26.964031 65.6727045 40.1680669"></polygon>
            <polygon id="Path" fill="#929292" points="69.6339152 0.138989851 51.6347296 0.138989851 60.7385648 15.0803988 69.7729051 40.3070567 85.8262328 40.3070567"></polygon>
            <polygon id="Path" fill="#929292" points="56.2213946 26.964031 51.4262448 40.1680669 65.6727045 40.1680669 60.8080597 26.964031"></polygon>
            <polygon id="Path" fill="#929292" points="60.7385648 15.0803988 54.8314961 0.138989851 51.6347296 0.138989851"></polygon>
        </g>
    </g>
</svg>