<?xml version="1.0" encoding="utf-8"?>
<!-- Generator: Adobe Illustrator 22.1.0, SVG Export Plug-In . SVG Version: 6.00 Build 0)  -->
<svg version="1.1" id="Capa_1" xmlns="http://www.w3.org/2000/svg" xmlns:xlink="http://www.w3.org/1999/xlink" x="0px" y="0px"
	 viewBox="0 0 600 42.5" style="enable-background:new 0 0 600 42.5;" xml:space="preserve">
<style type="text/css">
	.st0{fill:#B52728;}
	.st1{fill:#3A3B38;}
	.st2{fill:#929292;}
	.st3{fill:#6B6B6B;}
	.st4{fill:#9D9D9D;}
	.st5{fill:#FFFFFF;}
	.st6{fill:#C0C0C0;}
	.st7{opacity:0.5;}
	.st8{fill:#3A3C39;}
	.st9{fill:#C22026;}
	.st10{fill:#F2F2F2;}
	.st11{fill:#9E9E9E;}
	.st12{fill:#C1C1C1;}
	.st13{fill:#D3D3D3;}
	.st14{fill:#969696;}
	.st15{opacity:0.85;}
	.st16{fill:#4D4D4D;}
	.st17{fill:none;stroke:#4D4D4D;stroke-width:1.5;stroke-miterlimit:10;}
	.st18{fill:#22BF7C;}
	.st19{fill:#FF8400;}
	.st20{fill:#B0B0B0;}
	.st21{fill:none;stroke:#FFFFFF;stroke-width:1.5;stroke-miterlimit:10;}
	.st22{fill:#CCCCCC;}
	.st23{fill:#444444;}
</style>
<g>
	<g class="st7">
		<path class="st5" d="M595.1,42.5H5.2c-2.7,0-5-2.2-5-5h1.5c0,1.9,1.6,3.5,3.5,3.5h589.8c1.9,0,3.5-1.6,3.5-3.5V5.2
			c0-1.9-1.6-3.5-3.5-3.5V0.2c2.7,0,5,2.2,5,5v32.3C600,40.2,597.8,42.5,595.1,42.5z"/>
	</g>
	<g>
		<path class="st12" d="M1,38.5c-0.6,0-1-0.4-1-1V5.2C0,2.3,2.3,0,5.2,0h589.8c0.6,0,1,0.4,1,1s-0.4,1-1,1H5.2C3.4,2,2,3.4,2,5.2
			v32.3C2,38,1.6,38.5,1,38.5z"/>
	</g>
</g>
</svg>
