<?xml version="1.0" encoding="utf-8"?>
<!-- Generator: Adobe Illustrator 22.1.0, SVG Export Plug-In . SVG Version: 6.00 Build 0)  -->
<svg version="1.1" id="Capa_1" xmlns="http://www.w3.org/2000/svg" xmlns:xlink="http://www.w3.org/1999/xlink" x="0px" y="0px"
	 viewBox="0 0 104 32.8" style="enable-background:new 0 0 104 32.8;" xml:space="preserve">
<style type="text/css">
	.st0{fill:#B52728;}
	.st1{fill:#3A3B38;}
	.st2{fill:#929292;}
	.st3{fill:#6B6B6B;}
	.st4{fill:#9D9D9D;}
	.st5{fill:#FFFFFF;}
	.st6{fill:#C0C0C0;}
	.st7{opacity:0.5;}
	.st8{fill:#3A3C39;}
	.st9{fill:#C22026;}
	.st10{fill:#F2F2F2;}
	.st11{fill:#9E9E9E;}
	.st12{fill:#C1C1C1;}
	.st13{fill:#D3D3D3;}
	.st14{fill:#969696;}
	.st15{opacity:0.85;}
	.st16{fill:#4D4D4D;}
	.st17{fill:none;stroke:#4D4D4D;stroke-width:1.5;stroke-miterlimit:10;}
	.st18{fill:#22BF7C;}
	.st19{fill:#FF8400;}
	.st20{fill:#B0B0B0;}
	.st21{fill:none;stroke:#FFFFFF;stroke-width:1.5;stroke-miterlimit:10;}
	.st22{fill:#CCCCCC;}
	.st23{fill:#444444;}
</style>
<g>
	<g>
		<path class="st1" d="M100.5,1h-97C2.1,1,1,2.1,1,3.5v26c0,1.4,1.1,2.5,2.5,2.5h97c1.4,0,2.5-1.1,2.5-2.5v-26
			C103,2.1,101.9,1,100.5,1z"/>
	</g>
	<g class="st7">
		<path class="st5" d="M102.3,3.5h1.5v26c0,1.8-1.5,3.3-3.3,3.3h-97c-1.8,0-3.3-1.5-3.3-3.3h1.5c0,1,0.8,1.8,1.8,1.8h97
			c1,0,1.8-0.8,1.8-1.8V3.5z"/>
	</g>
	<g>
		<path class="st12" d="M3.5,0h97c1.9,0,3.5,1.6,3.5,3.5h-2c0-0.8-0.7-1.5-1.5-1.5h-97C2.7,2,2,2.7,2,3.5v26H0v-26
			C0,1.6,1.6,0,3.5,0z"/>
	</g>
	<g>
		<path class="st5" d="M21.6,11.1h3.5c1.6,0,2.7,0.2,3.4,0.7c0.7,0.4,1.1,1.2,1.1,2.1c0,0.7-0.2,1.2-0.5,1.6
			c-0.3,0.4-0.7,0.7-1.2,0.8v0.1c0.7,0.2,1.2,0.5,1.5,0.9s0.5,1,0.5,1.7c0,1-0.4,1.8-1.1,2.4c-0.7,0.6-1.7,0.9-3,0.9h-4.2V11.1z
			 M24,15.5h1.4c0.6,0,1.1-0.1,1.4-0.3c0.3-0.2,0.4-0.5,0.4-1c0-0.4-0.2-0.7-0.5-0.9c-0.3-0.2-0.8-0.3-1.5-0.3H24V15.5z M24,17.4
			v2.9h1.5c0.6,0,1.1-0.1,1.4-0.4c0.3-0.2,0.5-0.6,0.5-1.1c0-0.9-0.7-1.4-2-1.4H24z"/>
		<path class="st5" d="M41.1,11.1v7.2c0,0.8-0.2,1.5-0.6,2.2c-0.4,0.6-0.9,1.1-1.6,1.4c-0.7,0.3-1.5,0.5-2.5,0.5
			c-1.4,0-2.5-0.4-3.3-1.1c-0.8-0.7-1.2-1.7-1.2-3v-7.2h2.3v6.8c0,0.9,0.2,1.5,0.5,1.9c0.3,0.4,0.9,0.6,1.7,0.6
			c0.8,0,1.3-0.2,1.7-0.6c0.3-0.4,0.5-1,0.5-1.9v-6.8H41.1z"/>
		<path class="st5" d="M50.4,19.1c0,1-0.4,1.8-1.1,2.4c-0.7,0.6-1.7,0.9-3,0.9c-1.2,0-2.2-0.2-3.1-0.7v-2.2c0.7,0.3,1.4,0.6,1.9,0.7
			c0.5,0.1,1,0.2,1.4,0.2c0.5,0,0.9-0.1,1.2-0.3c0.3-0.2,0.4-0.5,0.4-0.9c0-0.2-0.1-0.4-0.2-0.6c-0.1-0.2-0.3-0.3-0.5-0.5
			c-0.2-0.2-0.7-0.4-1.4-0.8c-0.7-0.3-1.2-0.6-1.5-0.9c-0.3-0.3-0.6-0.6-0.8-1s-0.3-0.8-0.3-1.4c0-1,0.3-1.8,1-2.3
			c0.7-0.6,1.6-0.8,2.8-0.8c0.6,0,1.1,0.1,1.7,0.2c0.5,0.1,1.1,0.3,1.6,0.6l-0.8,1.8c-0.6-0.2-1.1-0.4-1.5-0.5
			c-0.4-0.1-0.8-0.1-1.1-0.1c-0.4,0-0.8,0.1-1,0.3s-0.4,0.5-0.4,0.8c0,0.2,0,0.4,0.1,0.5c0.1,0.2,0.2,0.3,0.5,0.4
			c0.2,0.1,0.7,0.4,1.5,0.8c1,0.5,1.7,1,2.1,1.5C50.2,17.8,50.4,18.4,50.4,19.1z"/>
		<path class="st5" d="M57.1,12.9c-0.9,0-1.6,0.3-2.1,1c-0.5,0.7-0.7,1.6-0.7,2.8c0,2.5,0.9,3.7,2.8,3.7c0.8,0,1.7-0.2,2.8-0.6v2
			c-0.9,0.4-1.9,0.6-3.1,0.6c-1.6,0-2.8-0.5-3.7-1.5c-0.9-1-1.3-2.4-1.3-4.2c0-1.2,0.2-2.2,0.6-3c0.4-0.9,1-1.5,1.8-2S56,11,57.1,11
			c1.1,0,2.2,0.3,3.2,0.8l-0.8,1.9c-0.4-0.2-0.8-0.4-1.3-0.5C57.9,13,57.5,12.9,57.1,12.9z"/>
		<path class="st5" d="M69.1,22.2l-0.8-2.6h-4l-0.8,2.6h-2.5l3.9-11.1h2.9l3.9,11.1H69.1z M67.7,17.6c-0.7-2.4-1.2-3.7-1.3-4.1
			s-0.2-0.6-0.2-0.7c-0.2,0.6-0.6,2.2-1.4,4.8H67.7z"/>
		<path class="st5" d="M75.4,18v4.3H73V11.1h3.2c1.5,0,2.6,0.3,3.3,0.8c0.7,0.5,1.1,1.4,1.1,2.5c0,0.7-0.2,1.2-0.5,1.7
			c-0.4,0.5-0.9,0.9-1.5,1.2c1.7,2.5,2.8,4.1,3.3,4.8h-2.6L76.6,18H75.4z M75.4,16h0.8c0.7,0,1.3-0.1,1.6-0.4
			c0.4-0.2,0.5-0.6,0.5-1.2c0-0.5-0.2-0.9-0.5-1.1c-0.4-0.2-0.9-0.3-1.7-0.3h-0.7V16z"/>
	</g>
</g>
</svg>
