<?xml version="1.0" encoding="utf-8"?>
<!-- Generator: Adobe Illustrator 22.1.0, SVG Export Plug-In . SVG Version: 6.00 Build 0)  -->
<svg version="1.1" id="Capa_1" xmlns="http://www.w3.org/2000/svg" xmlns:xlink="http://www.w3.org/1999/xlink" x="0px" y="0px"
	 viewBox="0 0 104 32.8" style="enable-background:new 0 0 104 32.8;" xml:space="preserve">
<style type="text/css">
	.st0{fill:#B52728;}
	.st1{fill:#3A3B38;}
	.st2{fill:#929292;}
	.st3{fill:#6B6B6B;}
	.st4{fill:#9D9D9D;}
	.st5{fill:#FFFFFF;}
	.st6{fill:#C0C0C0;}
	.st7{opacity:0.5;}
	.st8{fill:#3A3C39;}
	.st9{fill:#C22026;}
	.st10{fill:#F2F2F2;}
	.st11{fill:#9E9E9E;}
	.st12{fill:#C1C1C1;}
	.st13{fill:#D3D3D3;}
	.st14{fill:#969696;}
	.st15{opacity:0.85;}
	.st16{fill:#4D4D4D;}
	.st17{fill:none;stroke:#4D4D4D;stroke-width:1.5;stroke-miterlimit:10;}
	.st18{fill:#22BF7C;}
	.st19{fill:#FF8400;}
	.st20{fill:#B0B0B0;}
	.st21{fill:none;stroke:#FFFFFF;stroke-width:1.5;stroke-miterlimit:10;}
	.st22{fill:#CCCCCC;}
	.st23{fill:#444444;}
</style>
<g>
	<g>
		<path class="st5" d="M3.5,31.8h97c1.4,0,2.5-1.1,2.5-2.5v-26c0-1.4-1.1-2.5-2.5-2.5h-97C2.1,0.8,1,1.9,1,3.3v26
			C1,30.7,2.1,31.8,3.5,31.8z"/>
	</g>
	<g class="st7">
		<path class="st5" d="M1.8,29.3H0.2v-26C0.2,1.5,1.7,0,3.5,0h97c1.8,0,3.3,1.5,3.3,3.3h-1.5c0-1-0.8-1.8-1.8-1.8h-97
			c-1,0-1.8,0.8-1.8,1.8V29.3z"/>
	</g>
	<g>
		<path class="st12" d="M100.5,32.8h-97c-1.9,0-3.5-1.6-3.5-3.5h2c0,0.8,0.7,1.5,1.5,1.5h97c0.8,0,1.5-0.7,1.5-1.5v-26h2v26
			C104,31.3,102.5,32.8,100.5,32.8z"/>
	</g>
	<g>
		<path class="st8" d="M22.2,10.6h3.5c1.6,0,2.7,0.2,3.4,0.7s1.1,1.2,1.1,2.1c0,0.7-0.2,1.2-0.5,1.6c-0.3,0.4-0.7,0.7-1.2,0.8v0.1
			c0.7,0.2,1.2,0.5,1.5,0.9s0.5,1,0.5,1.7c0,1-0.4,1.8-1.1,2.4c-0.7,0.6-1.7,0.9-3,0.9h-4.2V10.6z M24.5,15h1.4
			c0.6,0,1.1-0.1,1.4-0.3s0.4-0.5,0.4-1c0-0.4-0.2-0.7-0.5-0.9c-0.3-0.2-0.8-0.3-1.5-0.3h-1.2V15z M24.5,16.9v2.9h1.5
			c0.6,0,1.1-0.1,1.4-0.4c0.3-0.2,0.5-0.6,0.5-1.1c0-0.9-0.7-1.4-2-1.4H24.5z"/>
		<path class="st8" d="M41.7,10.6v7.2c0,0.8-0.2,1.5-0.6,2.2c-0.4,0.6-0.9,1.1-1.6,1.4c-0.7,0.3-1.5,0.5-2.5,0.5
			c-1.4,0-2.5-0.4-3.3-1.1c-0.8-0.7-1.2-1.7-1.2-3v-7.2h2.3v6.8c0,0.9,0.2,1.5,0.5,1.9c0.3,0.4,0.9,0.6,1.7,0.6
			c0.8,0,1.3-0.2,1.7-0.6c0.3-0.4,0.5-1,0.5-1.9v-6.8H41.7z"/>
		<path class="st8" d="M50.9,18.6c0,1-0.4,1.8-1.1,2.4c-0.7,0.6-1.7,0.9-3,0.9c-1.2,0-2.2-0.2-3.1-0.7V19c0.7,0.3,1.4,0.6,1.9,0.7
			s1,0.2,1.4,0.2c0.5,0,0.9-0.1,1.2-0.3c0.3-0.2,0.4-0.5,0.4-0.9c0-0.2-0.1-0.4-0.2-0.6c-0.1-0.2-0.3-0.3-0.5-0.5
			c-0.2-0.2-0.7-0.4-1.4-0.8c-0.7-0.3-1.2-0.6-1.5-0.9c-0.3-0.3-0.6-0.6-0.8-1s-0.3-0.8-0.3-1.4c0-1,0.3-1.8,1-2.3
			c0.7-0.6,1.6-0.8,2.8-0.8c0.6,0,1.1,0.1,1.7,0.2c0.5,0.1,1.1,0.3,1.6,0.6l-0.8,1.8c-0.6-0.2-1.1-0.4-1.5-0.5
			c-0.4-0.1-0.8-0.1-1.1-0.1c-0.4,0-0.8,0.1-1,0.3s-0.4,0.5-0.4,0.8c0,0.2,0,0.4,0.1,0.5c0.1,0.2,0.2,0.3,0.5,0.4s0.7,0.4,1.5,0.8
			c1,0.5,1.7,1,2.1,1.5C50.7,17.3,50.9,17.9,50.9,18.6z"/>
		<path class="st8" d="M57.6,12.4c-0.9,0-1.6,0.3-2.1,1c-0.5,0.7-0.7,1.6-0.7,2.8c0,2.5,0.9,3.7,2.8,3.7c0.8,0,1.7-0.2,2.8-0.6v2
			c-0.9,0.4-1.9,0.6-3.1,0.6c-1.6,0-2.8-0.5-3.7-1.5c-0.9-1-1.3-2.4-1.3-4.2c0-1.2,0.2-2.2,0.6-3c0.4-0.9,1-1.5,1.8-2
			s1.7-0.7,2.8-0.7c1.1,0,2.2,0.3,3.2,0.8l-0.8,1.9c-0.4-0.2-0.8-0.4-1.3-0.5C58.5,12.5,58.1,12.4,57.6,12.4z"/>
		<path class="st8" d="M69.6,21.7l-0.8-2.6h-4L64,21.7h-2.5l3.9-11.1h2.9l3.9,11.1H69.6z M68.3,17.1c-0.7-2.4-1.2-3.7-1.3-4.1
			c-0.1-0.3-0.2-0.6-0.2-0.7c-0.2,0.6-0.6,2.2-1.4,4.8H68.3z"/>
		<path class="st8" d="M75.9,17.5v4.3h-2.4V10.6h3.2c1.5,0,2.6,0.3,3.3,0.8c0.7,0.5,1.1,1.4,1.1,2.5c0,0.7-0.2,1.2-0.5,1.7
			c-0.4,0.5-0.9,0.9-1.5,1.2c1.7,2.5,2.8,4.1,3.3,4.8h-2.6l-2.6-4.3H75.9z M75.9,15.6h0.8c0.7,0,1.3-0.1,1.6-0.4
			c0.4-0.2,0.5-0.6,0.5-1.2c0-0.5-0.2-0.9-0.5-1.1s-0.9-0.3-1.7-0.3h-0.7V15.6z"/>
	</g>
</g>
</svg>
