<?xml version="1.0" encoding="utf-8"?>
<!-- Generator: Adobe Illustrator 22.1.0, SVG Export Plug-In . SVG Version: 6.00 Build 0)  -->
<svg version="1.1" id="Capa_1" xmlns="http://www.w3.org/2000/svg" xmlns:xlink="http://www.w3.org/1999/xlink" x="0px" y="0px"
	 viewBox="0 0 111.1 39.7" style="enable-background:new 0 0 111.1 39.7;" xml:space="preserve">
<style type="text/css">
	.st0{fill:#B52728;}
	.st1{fill:#3A3B38;}
	.st2{fill:#929292;}
	.st3{fill:#6B6B6B;}
	.st4{fill:#9D9D9D;}
	.st5{fill:#FFFFFF;}
	.st6{fill:#C0C0C0;}
	.st7{opacity:0.5;}
	.st8{fill:#3A3C39;}
	.st9{fill:#C22026;}
	.st10{fill:#F2F2F2;}
	.st11{fill:#9E9E9E;}
	.st12{fill:#C1C1C1;}
	.st13{fill:#D3D3D3;}
	.st14{fill:#969696;}
	.st15{opacity:0.85;}
	.st16{fill:#4D4D4D;}
	.st17{fill:none;stroke:#4D4D4D;stroke-width:1.5;stroke-miterlimit:10;}
	.st18{fill:#22BF7C;}
	.st19{fill:#FF8400;}
	.st20{fill:#B0B0B0;}
	.st21{fill:none;stroke:#FFFFFF;stroke-width:1.5;stroke-miterlimit:10;}
	.st22{fill:#CCCCCC;}
	.st23{fill:#444444;}
</style>
<g>
	<path class="st1" d="M2.5,39.7h106c1.4,0,2.5-1.1,2.5-2.5V2.5c0-1.4-1.1-2.5-2.5-2.5H2.5C1.1,0,0,1.1,0,2.5v34.7
		C0,38.6,1.1,39.7,2.5,39.7z"/>
</g>
<g>
	<path class="st5" d="M26.1,26.8h-8.2V12.6h8.2v2.5h-5.2v3.1h4.8v2.5h-4.8v3.7h5.2V26.8z"/>
	<path class="st5" d="M41.7,26.8h-3.8l-6.2-10.7h-0.1c0.1,1.9,0.2,3.2,0.2,4.1v6.7h-2.7V12.6h3.8L39,23.3h0.1
		c-0.1-1.8-0.1-3.1-0.1-3.9v-6.7h2.7V26.8z"/>
	<path class="st5" d="M50.7,26.8h-3V15.1h-3.9v-2.5h10.7v2.5h-3.9V26.8z"/>
	<path class="st5" d="M59.7,21.4v5.4h-3V12.6h4.1c1.9,0,3.4,0.4,4.3,1.1c0.9,0.7,1.4,1.8,1.4,3.2c0,0.8-0.2,1.6-0.7,2.2
		c-0.5,0.7-1.1,1.2-2,1.5c2.1,3.2,3.5,5.2,4.2,6.2h-3.3l-3.4-5.4H59.7z M59.7,18.9h1c1,0,1.7-0.2,2.1-0.5s0.7-0.8,0.7-1.5
		c0-0.7-0.2-1.2-0.7-1.4s-1.2-0.4-2.1-0.4h-0.9V18.9z"/>
	<path class="st5" d="M78.5,26.8l-1-3.4h-5.2l-1,3.4h-3.2l5-14.2h3.7l5,14.2H78.5z M76.8,20.9c-1-3.1-1.5-4.8-1.6-5.2
		c-0.1-0.4-0.2-0.7-0.3-1c-0.2,0.8-0.8,2.9-1.8,6.1H76.8z"/>
	<path class="st5" d="M86.6,21.4v5.4h-3V12.6h4.1c1.9,0,3.4,0.4,4.3,1.1c0.9,0.7,1.4,1.8,1.4,3.2c0,0.8-0.2,1.6-0.7,2.2
		c-0.5,0.7-1.1,1.2-2,1.5c2.1,3.2,3.5,5.2,4.2,6.2h-3.3l-3.4-5.4H86.6z M86.6,18.9h1c1,0,1.7-0.2,2.1-0.5s0.7-0.8,0.7-1.5
		c0-0.7-0.2-1.2-0.7-1.4s-1.2-0.4-2.1-0.4h-0.9V18.9z"/>
</g>
</svg>
