<?xml version="1.0" encoding="utf-8"?>
<!-- Generator: Adobe Illustrator 22.1.0, SVG Export Plug-In . SVG Version: 6.00 Build 0)  -->
<svg version="1.1" id="Capa_1" xmlns="http://www.w3.org/2000/svg" xmlns:xlink="http://www.w3.org/1999/xlink" x="0px" y="0px"
	 viewBox="0 0 22.4 22.4" style="enable-background:new 0 0 22.4 22.4;" xml:space="preserve">
<style type="text/css">
	.st0{fill:#B52728;}
	.st1{fill:#3A3B38;}
	.st2{fill:#929292;}
	.st3{fill:#6B6B6B;}
	.st4{fill:#9D9D9D;}
	.st5{fill:#FFFFFF;}
	.st6{fill:#C0C0C0;}
	.st7{opacity:0.5;}
	.st8{fill:#3A3C39;}
	.st9{fill:#C22026;}
	.st10{fill:#F2F2F2;}
	.st11{fill:#9E9E9E;}
	.st12{fill:#C1C1C1;}
	.st13{fill:#D3D3D3;}
	.st14{fill:#969696;}
	.st15{opacity:0.85;}
	.st16{fill:#4D4D4D;}
	.st17{fill:none;stroke:#4D4D4D;stroke-width:1.5;stroke-miterlimit:10;}
	.st18{fill:#22BF7C;}
	.st19{fill:#FF8400;}
	.st20{fill:#B0B0B0;}
	.st21{fill:none;stroke:#FFFFFF;stroke-width:1.5;stroke-miterlimit:10;}
	.st22{fill:#CCCCCC;}
	.st23{fill:#444444;}
</style>
<g>
	<g>
		<path class="st10" d="M11.3,21.6L11.3,21.6C5.6,21.6,1,17,1,11.3v0C1,5.6,5.6,1,11.3,1h0C17,1,21.6,5.6,21.6,11.3v0
			C21.6,17,17,21.6,11.3,21.6z"/>
	</g>
	<g>
		<path class="st12" d="M1,12.3c-0.6,0-1-0.4-1-1C0,5.1,5.1,0,11.3,0c0.6,0,1,0.4,1,1s-0.4,1-1,1C6.2,2,2,6.2,2,11.3
			C2,11.9,1.6,12.3,1,12.3z"/>
	</g>
	<g class="st7">
		<path class="st5" d="M11.3,22.4v-1.5c5.3,0,9.6-4.3,9.6-9.6h1.5C22.4,17.4,17.4,22.4,11.3,22.4z"/>
	</g>
</g>
</svg>
