<?xml version="1.0" encoding="utf-8"?>
<!-- Generator: Adobe Illustrator 22.1.0, SVG Export Plug-In . SVG Version: 6.00 Build 0)  -->
<svg version="1.1" id="Capa_1" xmlns="http://www.w3.org/2000/svg" xmlns:xlink="http://www.w3.org/1999/xlink" x="0px" y="0px"
	 viewBox="0 0 169.3 169.3" style="enable-background:new 0 0 169.3 169.3;" xml:space="preserve">
<style type="text/css">
	.st0{fill:#B52728;}
	.st1{fill:#3A3B38;}
	.st2{fill:#929292;}
	.st3{fill:#6B6B6B;}
	.st4{fill:#9D9D9D;}
	.st5{fill:#FFFFFF;}
	.st6{fill:#C0C0C0;}
	.st7{opacity:0.5;}
	.st8{fill:#3A3C39;}
	.st9{fill:#C22026;}
	.st10{fill:#F2F2F2;}
	.st11{fill:#9E9E9E;}
	.st12{fill:#C1C1C1;}
	.st13{fill:#D3D3D3;}
	.st14{fill:#969696;}
	.st15{opacity:0.85;}
	.st16{fill:#4D4D4D;}
	.st17{fill:none;stroke:#4D4D4D;stroke-width:1.5;stroke-miterlimit:10;}
	.st18{fill:#22BF7C;}
	.st19{fill:#FF8400;}
	.st20{fill:#B0B0B0;}
	.st21{fill:none;stroke:#FFFFFF;stroke-width:1.5;stroke-miterlimit:10;}
	.st22{fill:#CCCCCC;}
	.st23{fill:#444444;}
</style>
<g>
	<g>
		<g>
			<path class="st8" d="M83.7,167.4C37.5,167.4,0,129.8,0,83.7S37.5,0,83.7,0c46.1,0,83.7,37.5,83.7,83.7S129.8,167.4,83.7,167.4z
				 M83.7,2C38.6,2,2,38.6,2,83.7s36.6,81.7,81.7,81.7c45,0,81.7-36.6,81.7-81.7S128.7,2,83.7,2z"/>
		</g>
		<g>
			<path class="st5" d="M86.2,169.3C40.3,169.3,3,132,3,86.2S40.3,3,86.2,3c45.9,0,83.2,37.3,83.2,83.2S132,169.3,86.2,169.3z
				 M86.2,4C40.8,4,4,40.8,4,86.2s36.9,82.2,82.2,82.2c45.3,0,82.2-36.9,82.2-82.2S131.5,4,86.2,4z"/>
		</g>
		<g>
			<g>
				<path class="st22" d="M131.7,113.4l-16.5-6.4l-8.4-8.4c-0.5-0.5-1.2-0.8-1.9-0.9v-6.7c4-4.2,6.8-9.6,7.9-15.6
					c0.7,0,1.4,0,2.1-0.2c4-0.8,7-4.6,7-8.9v-2.2c0-2.5-1-4.8-2.7-6.5c2.7-14.6,0.5-26.4-6.4-34.4c-6.7-7.7-17.4-11.4-31-10.6
					c-12.6,0.7-20.7,6.5-23.3,8.6c-1.4,0.2-3.8,0.7-6.2,2.1c-3.4,2-7.4,6.3-7.4,15c0,7.6,1.2,14,2.1,17.6c-3,1.4-4.9,4.6-4.9,8.1
					v2.2c0,4.3,2.9,8.1,7,8.9c0.7,0.1,1.4,0.2,2.1,0.2c1.1,6,4,11.4,7.9,15.6v6.7c-0.7,0-1.4,0.3-1.9,0.9l-8.4,8.4l-16.5,6.4
					c-1.4,0.6-2.8,1.3-4.1,2.1c-1.4,0.9-1.7,2.8-0.8,4.2c0.6,0.9,1.5,1.3,2.5,1.3c0.6,0,1.2-0.2,1.7-0.5c0.9-0.6,1.8-1.1,2.8-1.5
					l15.3-5.9l11.7,17.6c1.5,2.2,3.8,3.6,6.4,3.8c0.3,0,0.6,0,0.9,0c1.5,0,3-0.4,4.3-1.1l-2.5,23c-0.1,1.7,1.2,3.1,2.9,3.2
					c0,0,0.1,0,0.1,0c1.6,0,3-1.3,3-2.9l2.3-18.9h6.3l2.3,18.9c0.1,1.6,1.4,2.9,3,2.9c0,0,0.1,0,0.1,0c1.7-0.1,3-1.5,2.9-3.2
					l-2.5-23c1.3,0.7,2.8,1.1,4.3,1.1c0.3,0,0.6,0,0.9,0c2.6-0.3,4.9-1.7,6.4-3.8l11.7-17.6l15.3,5.9
					C131.7,119.9,135.2,115.2,131.7,113.4z M57,74c-0.6-2.8-3.3-4.9-6.1-4.6c-0.2,0-0.5,0-0.7,0c-1.2-0.2-2.1-1.5-2.1-3v-2.2
					c0-1.4,0.9-2.7,2.1-2.9c1-0.2,2,0.2,2.6,1c0.6,0.7,1.3,1.2,2.1,1.5c1.2,0.4,2.6,0.2,3.7-0.6c1.9-1.3,3.6-3,5-4.9
					c1-1.3,0.7-3.2-0.6-4.2c-1.3-1-3.2-0.7-4.2,0.6c-0.7,0.9-1.5,1.8-2.4,2.6c-1-0.8-2.1-1.4-3.3-1.8c-0.8-3-2.2-9.4-2.2-17.1
					c0-4.6,1.4-7.9,4.3-9.7c2.2-1.4,4.5-1.5,4.5-1.5c0.8,0,1.5-0.3,2.1-0.8c0.1-0.1,7.5-7,20.3-7.7c11.7-0.6,20.7,2.3,26.1,8.5
					c5.4,6.3,7.2,15.9,5.3,27.9c-0.8,0-1.7,0-2.6,0.2l-2.8-6.8c-0.6-1.4-2.1-2.1-3.6-1.8c-0.3,0.1-28.3,7.2-40-7.4
					c-1-1.3-3-1.5-4.3-0.5c-1.3,1-1.5,3-0.5,4.3c12,14.9,35.8,11.7,43.7,10.1l2.2,5.3c0.9,2.3,3.4,3.5,5.8,3c1-0.2,1.9-0.2,2.3-0.2
					c1.2,0.2,2.2,1.5,2.2,2.8v2.2c0,1.4-0.9,2.7-2.1,3c-0.2,0-0.5,0.1-0.7,0c-2.9-0.2-5.6,1.9-6.1,4.8c-3,16.1-20.7,26.3-37.6,17.5
					C62.5,88.3,58.6,81.4,57,74z M70.5,127.8c-0.8,0.8-1.7,0.8-2.1,0.8c-0.5,0-1.3-0.3-1.9-1.2l-11.8-17.7l4.7-4.7l18.1,15.9
					L70.5,127.8z M79.1,131.8l0.2-4.2l2.7-2.7l2.7,2.7l0.2,4.2H79.1z M82,116.6l-16.8-14.7v-5.8C70,99.2,75.8,101,82,101
					c6.1,0,11.9-1.8,16.8-4.9v5.8L82,116.6z M97.5,127.4c-0.6,0.9-1.5,1.1-1.9,1.2c-0.5,0-1.4,0-2.1-0.8l-7-7l18.1-15.9l4.7,4.7
					L97.5,127.4z"/>
			</g>
		</g>
	</g>
	<g>
		<g>
			<path class="st9" d="M63.1,90.1v-8c0-1.2,0.9-2.1,2.1-2.1h35.9c1.2,0,2.1,0.9,2.1,2.1v8c0,1.2-0.9,2.1-2.1,2.1H65.2
				C64.1,92.3,63.1,91.3,63.1,90.1z"/>
		</g>
		<g>
			<path class="st9" d="M79.2,66.1h8c1.2,0,2.1,0.9,2.1,2.1v35.9c0,1.2-0.9,2.1-2.1,2.1h-8c-1.2,0-2.1-0.9-2.1-2.1V68.2
				C77.1,67.1,78,66.1,79.2,66.1z"/>
		</g>
	</g>
</g>
</svg>
