<?xml version="1.0" encoding="utf-8"?>
<!-- Generator: Adobe Illustrator 22.1.0, SVG Export Plug-In . SVG Version: 6.00 Build 0)  -->
<svg version="1.1" id="Capa_1" xmlns="http://www.w3.org/2000/svg" xmlns:xlink="http://www.w3.org/1999/xlink" x="0px" y="0px"
	 viewBox="0 0 69.1 69.1" style="enable-background:new 0 0 69.1 69.1;" xml:space="preserve">
<style type="text/css">
	.st0{fill:#B52728;}
	.st1{fill:#3A3B38;}
	.st2{fill:#929292;}
	.st3{fill:#6B6B6B;}
	.st4{fill:#9D9D9D;}
	.st5{fill:#FFFFFF;}
	.st6{fill:#C0C0C0;}
	.st7{opacity:0.5;}
	.st8{fill:#3A3C39;}
	.st9{fill:#C22026;}
	.st10{fill:#F2F2F2;}
	.st11{fill:#9E9E9E;}
	.st12{fill:#C1C1C1;}
	.st13{fill:#D3D3D3;}
	.st14{fill:#969696;}
	.st15{opacity:0.85;}
	.st16{fill:#4D4D4D;}
	.st17{fill:none;stroke:#4D4D4D;stroke-width:1.5;stroke-miterlimit:10;}
	.st18{fill:#22BF7C;}
	.st19{fill:#FF8400;}
	.st20{fill:#B0B0B0;}
	.st21{fill:none;stroke:#FFFFFF;stroke-width:1.5;stroke-miterlimit:10;}
	.st22{fill:#CCCCCC;}
	.st23{fill:#444444;}
</style>
<g>
	<g>
		<path class="st8" d="M34.3,68.6C15.4,68.6,0,53.2,0,34.3S15.4,0,34.3,0s34.3,15.4,34.3,34.3S53.2,68.6,34.3,68.6z M34.3,2
			C16.5,2,2,16.5,2,34.3s14.5,32.3,32.3,32.3s32.3-14.5,32.3-32.3S52.1,2,34.3,2z"/>
	</g>
	<g>
		<path class="st5" d="M35.3,69.1C16.7,69.1,1.5,54,1.5,35.3S16.7,1.5,35.3,1.5s33.8,15.2,33.8,33.8S54,69.1,35.3,69.1z M35.3,2.5
			C17.2,2.5,2.5,17.2,2.5,35.3s14.7,32.8,32.8,32.8s32.8-14.7,32.8-32.8S53.4,2.5,35.3,2.5z"/>
	</g>
	<g>
		<g>
			<g>
				<path class="st8" d="M53.7,46.3L47,43.7l-3.4-3.4c-0.2-0.2-0.5-0.3-0.8-0.4v-2.7c1.6-1.7,2.7-3.9,3.2-6.3c0.3,0,0.6,0,0.9-0.1
					c1.6-0.3,2.8-1.8,2.8-3.6v-0.9c0-1-0.4-1.9-1.1-2.6C49.7,18,48.8,13.2,46,10c-2.7-3.1-7-4.6-12.5-4.3c-5.1,0.3-8.3,2.6-9.4,3.5
					c-0.6,0.1-1.5,0.3-2.5,0.9c-1.4,0.8-3,2.5-3,6.1c0,3.1,0.5,5.6,0.8,7.1c-1.2,0.6-2,1.8-2,3.3v0.9c0,1.7,1.2,3.3,2.8,3.6
					c0.3,0.1,0.6,0.1,0.9,0.1c0.5,2.4,1.6,4.6,3.2,6.3V40c-0.3,0-0.6,0.1-0.8,0.4l-3.4,3.4l-6.7,2.6c-0.6,0.2-1.1,0.5-1.6,0.9
					c-0.6,0.4-0.7,1.1-0.3,1.7c0.2,0.3,0.6,0.5,1,0.5c0.2,0,0.5-0.1,0.7-0.2c0.4-0.2,0.7-0.4,1.1-0.6l6.2-2.4l4.7,7.1
					c0.6,0.9,1.5,1.4,2.6,1.5c0.1,0,0.2,0,0.3,0c0.6,0,1.2-0.2,1.7-0.5l-1,9.3c0,0.7,0.5,1.2,1.2,1.3c0,0,0,0,0.1,0
					c0.7,0,1.2-0.5,1.2-1.2l0.9-7.6h2.5l0.9,7.6c0,0.7,0.6,1.2,1.2,1.2c0,0,0,0,0.1,0c0.7,0,1.2-0.6,1.2-1.3l-1-9.3
					c0.5,0.3,1.1,0.5,1.7,0.5c0.1,0,0.2,0,0.3,0c1.1-0.1,2-0.7,2.6-1.5l4.7-7.1l6.2,2.4C53.7,48.9,55.1,47,53.7,46.3z M23.6,30.4
					c-0.2-1.1-1.3-2-2.5-1.9c-0.1,0-0.2,0-0.3,0c-0.5-0.1-0.9-0.6-0.9-1.2v-0.9c0-0.6,0.4-1.1,0.9-1.2c0.4-0.1,0.8,0.1,1,0.4
					c0.2,0.3,0.5,0.5,0.9,0.6c0.5,0.2,1.1,0.1,1.5-0.2c0.8-0.5,1.4-1.2,2-2c0.4-0.5,0.3-1.3-0.3-1.7c-0.5-0.4-1.3-0.3-1.7,0.3
					c-0.3,0.4-0.6,0.7-1,1c-0.4-0.3-0.8-0.6-1.3-0.7c-0.3-1.2-0.9-3.8-0.9-6.9c0-1.9,0.6-3.2,1.7-3.9c0.9-0.6,1.8-0.6,1.8-0.6
					c0.3,0,0.6-0.1,0.8-0.3c0,0,3-2.8,8.2-3.1c4.7-0.3,8.3,0.9,10.5,3.4c2.2,2.5,2.9,6.4,2.1,11.2c-0.3,0-0.7,0-1,0.1l-1.1-2.8
					c-0.2-0.6-0.8-0.9-1.4-0.7c-0.1,0-11.4,2.9-16.1-3c-0.4-0.5-1.2-0.6-1.7-0.2c-0.5,0.4-0.6,1.2-0.2,1.7c4.8,6,14.4,4.7,17.6,4.1
					l0.9,2.1c0.4,0.9,1.4,1.4,2.3,1.2c0.4-0.1,0.8-0.1,0.9-0.1c0.5,0.1,0.9,0.6,0.9,1.1v0.9c0,0.6-0.4,1.1-0.9,1.2
					c-0.1,0-0.2,0-0.3,0c-1.2-0.1-2.3,0.8-2.5,1.9c-1.2,6.5-8.3,10.6-15.2,7.1C25.8,36.2,24.2,33.4,23.6,30.4z M29,52.1
					c-0.3,0.3-0.7,0.3-0.9,0.3c-0.2,0-0.5-0.1-0.8-0.5l-4.8-7.1l1.9-1.9l7.3,6.4L29,52.1z M32.5,53.7l0.1-1.7l1.1-1.1l1.1,1.1
					l0.1,1.7H32.5z M33.6,47.6l-6.8-5.9v-2.3c2,1.3,4.3,2,6.8,2s4.8-0.7,6.8-2v2.3L33.6,47.6z M39.9,51.9c-0.2,0.4-0.6,0.5-0.8,0.5
					c-0.2,0-0.5,0-0.9-0.3l-2.8-2.8l7.3-6.4l1.9,1.9L39.9,51.9z"/>
			</g>
		</g>
	</g>
</g>
</svg>
