<?xml version="1.0" encoding="utf-8"?>
<!-- Generator: Adobe Illustrator 22.1.0, SVG Export Plug-In . SVG Version: 6.00 Build 0)  -->
<svg version="1.1" id="Capa_1" xmlns="http://www.w3.org/2000/svg" xmlns:xlink="http://www.w3.org/1999/xlink" x="0px" y="0px"
	 viewBox="0 0 23.1 23.1" style="enable-background:new 0 0 23.1 23.1;" xml:space="preserve">
<style type="text/css">
	.st0{fill:#B52728;}
	.st1{fill:#3A3B38;}
	.st2{fill:#929292;}
	.st3{fill:#6B6B6B;}
	.st4{fill:#9D9D9D;}
	.st5{fill:#FFFFFF;}
	.st6{fill:#C0C0C0;}
	.st7{opacity:0.5;}
	.st8{fill:#3A3C39;}
	.st9{fill:#C22026;}
	.st10{fill:#F2F2F2;}
	.st11{fill:#9E9E9E;}
	.st12{fill:#C1C1C1;}
	.st13{fill:#D3D3D3;}
	.st14{fill:#969696;}
	.st15{opacity:0.85;}
	.st16{fill:#4D4D4D;}
	.st17{fill:none;stroke:#4D4D4D;stroke-width:1.5;stroke-miterlimit:10;}
	.st18{fill:#22BF7C;}
	.st19{fill:#FF8400;}
	.st20{fill:#B0B0B0;}
	.st21{fill:none;stroke:#FFFFFF;stroke-width:1.5;stroke-miterlimit:10;}
	.st22{fill:#CCCCCC;}
	.st23{fill:#444444;}
</style>
<g>
	<g>
		<circle class="st20" cx="11.5" cy="11.5" r="11"/>
		<path class="st10" d="M11.5,23.1C5.2,23.1,0,17.9,0,11.5S5.2,0,11.5,0s11.5,5.2,11.5,11.5S17.9,23.1,11.5,23.1z M11.5,1
			C5.7,1,1,5.7,1,11.5s4.7,10.5,10.5,10.5c5.8,0,10.5-4.7,10.5-10.5S17.3,1,11.5,1z"/>
	</g>
	<g>
		<g>
			<path class="st20" d="M9.8,11.7c0-0.5,0.1-1,0.4-1.2S11,10,11.5,10c0.5,0,1,0.1,1.3,0.4s0.4,0.7,0.4,1.2c0,0.5-0.2,0.9-0.5,1.2
				s-0.7,0.4-1.2,0.4c-0.5,0-1-0.1-1.3-0.4S9.8,12.2,9.8,11.7z"/>
			<path class="st10" d="M11.5,13.9c-0.7,0-1.2-0.2-1.6-0.6c-0.4-0.4-0.6-0.9-0.6-1.6c0-0.7,0.2-1.2,0.6-1.6
				c0.4-0.4,0.9-0.6,1.6-0.6c0.7,0,1.2,0.2,1.6,0.6c0.4,0.4,0.6,0.9,0.6,1.6c0,0.7-0.2,1.2-0.6,1.6C12.7,13.7,12.2,13.9,11.5,13.9z
				 M11.5,10.5c-0.4,0-0.7,0.1-0.9,0.3c-0.2,0.2-0.3,0.5-0.3,0.9c0,0.4,0.1,0.7,0.3,0.9c0.2,0.2,0.5,0.3,0.9,0.3
				c0.4,0,0.7-0.1,0.9-0.3c0.2-0.2,0.3-0.5,0.3-0.9c0-0.4-0.1-0.7-0.3-0.9C12.2,10.6,11.9,10.5,11.5,10.5z"/>
		</g>
	</g>
</g>
</svg>
