<?xml version="1.0" encoding="utf-8"?>
<!-- Generator: Adobe Illustrator 22.1.0, SVG Export Plug-In . SVG Version: 6.00 Build 0)  -->
<svg version="1.1" id="Capa_1" xmlns="http://www.w3.org/2000/svg" xmlns:xlink="http://www.w3.org/1999/xlink" x="0px" y="0px"
	 viewBox="0 0 23.1 23.1" style="enable-background:new 0 0 23.1 23.1;" xml:space="preserve">
<style type="text/css">
	.st0{fill:#B52728;}
	.st1{fill:#3A3B38;}
	.st2{fill:#929292;}
	.st3{fill:#6B6B6B;}
	.st4{fill:#9D9D9D;}
	.st5{fill:#FFFFFF;}
	.st6{fill:#C0C0C0;}
	.st7{opacity:0.5;}
	.st8{fill:#3A3C39;}
	.st9{fill:#C22026;}
	.st10{fill:#F2F2F2;}
	.st11{fill:#9E9E9E;}
	.st12{fill:#C1C1C1;}
	.st13{fill:#D3D3D3;}
	.st14{fill:#969696;}
	.st15{opacity:0.85;}
	.st16{fill:#4D4D4D;}
	.st17{fill:none;stroke:#4D4D4D;stroke-width:1.5;stroke-miterlimit:10;}
	.st18{fill:#22BF7C;}
	.st19{fill:#FF8400;}
	.st20{fill:#B0B0B0;}
	.st21{fill:none;stroke:#FFFFFF;stroke-width:1.5;stroke-miterlimit:10;}
	.st22{fill:#CCCCCC;}
	.st23{fill:#444444;}
</style>
<g>
	<g>
		<circle class="st20" cx="11.5" cy="11.5" r="11"/>
		<path class="st10" d="M11.5,23.1C5.2,23.1,0,17.9,0,11.5S5.2,0,11.5,0s11.5,5.2,11.5,11.5S17.9,23.1,11.5,23.1z M11.5,1
			C5.7,1,1,5.7,1,11.5s4.7,10.5,10.5,10.5c5.8,0,10.5-4.7,10.5-10.5S17.3,1,11.5,1z"/>
	</g>
	<g>
		<g>
			<path class="st10" d="M9.8,17.4c0-0.5,0.1-1,0.4-1.2s0.7-0.4,1.3-0.4c0.5,0,1,0.1,1.3,0.4s0.4,0.7,0.4,1.2c0,0.5-0.1,0.9-0.4,1.2
				S12.1,19,11.5,19c-0.5,0-1-0.1-1.3-0.4S9.8,17.9,9.8,17.4z M12.7,14h-2.4L9.9,4.5h3.4L12.7,14z"/>
		</g>
	</g>
</g>
</svg>
