<?xml version="1.0" encoding="UTF-8"?>
<svg width="170px" height="170px" viewBox="0 0 170 170" version="1.1" xmlns="http://www.w3.org/2000/svg" xmlns:xlink="http://www.w3.org/1999/xlink">
    <!-- Generator: Sketch 54.1 (76490) - https://sketchapp.com -->
    <title>changeprofileicon</title>
    <desc>Created with Sketch.</desc>
    <g id="Page-1" stroke="none" stroke-width="1" fill="none" fill-rule="evenodd">
        <g id="changeprofileicon" fill-rule="nonzero">
            <g id="Group">
                <path d="M83.7,167.4 C37.5,167.4 0,129.8 0,83.7 C0,37.6 37.5,0 83.7,0 C129.8,0 167.4,37.5 167.4,83.7 C167.4,129.9 129.8,167.4 83.7,167.4 Z M83.7,2 C38.6,2 2,38.6 2,83.7 C2,128.8 38.6,165.4 83.7,165.4 C128.7,165.4 165.4,128.8 165.4,83.7 C165.4,38.6 128.7,2 83.7,2 Z" id="Shape" fill="#3A3C39"></path>
                <path d="M86.2,169.3 C40.3,169.3 3,132 3,86.2 C3,40.4 40.3,3 86.2,3 C132.1,3 169.4,40.3 169.4,86.2 C169.4,132.1 132,169.3 86.2,169.3 Z M86.2,4 C40.8,4 4,40.8 4,86.2 C4,131.6 40.9,168.4 86.2,168.4 C131.5,168.4 168.4,131.5 168.4,86.2 C168.4,40.9 131.5,4 86.2,4 Z" id="Shape" fill="#FFFFFF"></path>
                <path d="M131.7,113.4 L115.2,107 L106.8,98.6 C106.3,98.1 105.6,97.8 104.9,97.7 L104.9,91 C108.9,86.8 111.7,81.4 112.8,75.4 C113.5,75.4 114.2,75.4 114.9,75.2 C118.9,74.4 121.9,70.6 121.9,66.3 L121.9,64.1 C121.9,61.6 120.9,59.3 119.2,57.6 C121.9,43 119.7,31.2 112.8,23.2 C106.1,15.5 95.4,11.8 81.8,12.6 C69.2,13.3 61.1,19.1 58.5,21.2 C57.1,21.4 54.7,21.9 52.3,23.3 C48.9,25.3 44.9,29.6 44.9,38.3 C44.9,45.9 46.1,52.3 47,55.9 C44,57.3 42.1,60.5 42.1,64 L42.1,66.2 C42.1,70.5 45,74.3 49.1,75.1 C49.8,75.2 50.5,75.3 51.2,75.3 C52.3,81.3 55.2,86.7 59.1,90.9 L59.1,97.6 C58.4,97.6 57.7,97.9 57.2,98.5 L48.8,106.9 L32.3,113.3 C30.9,113.9 29.5,114.6 28.2,115.4 C26.8,116.3 26.5,118.2 27.4,119.6 C28,120.5 28.9,120.9 29.9,120.9 C30.5,120.9 31.1,120.7 31.6,120.4 C32.5,119.8 33.4,119.3 34.4,118.9 L49.7,113 L61.4,130.6 C62.9,132.8 65.2,134.2 67.8,134.4 C68.1,134.4 68.4,134.4 68.7,134.4 C70.2,134.4 71.7,134 73,133.3 L70.5,156.3 C70.4,158 71.7,159.4 73.4,159.5 C73.4,159.5 73.5,159.5 73.5,159.5 C75.1,159.5 76.5,158.2 76.5,156.6 L78.8,137.7 L85.1,137.7 L87.4,156.6 C87.5,158.2 88.8,159.5 90.4,159.5 C90.4,159.5 90.5,159.5 90.5,159.5 C92.2,159.4 93.5,158 93.4,156.3 L90.9,133.3 C92.2,134 93.7,134.4 95.2,134.4 C95.5,134.4 95.8,134.4 96.1,134.4 C98.7,134.1 101,132.7 102.5,130.6 L114.2,113 L129.5,118.9 C131.7,119.9 135.2,115.2 131.7,113.4 Z M57,74 C56.4,71.2 53.7,69.1 50.9,69.4 C50.7,69.4 50.4,69.4 50.2,69.4 C49,69.2 48.1,67.9 48.1,66.4 L48.1,64.2 C48.1,62.8 49,61.5 50.2,61.3 C51.2,61.1 52.2,61.5 52.8,62.3 C53.4,63 54.1,63.5 54.9,63.8 C56.1,64.2 57.5,64 58.6,63.2 C60.5,61.9 62.2,60.2 63.6,58.3 C64.6,57 64.3,55.1 63,54.1 C61.7,53.1 59.8,53.4 58.8,54.7 C58.1,55.6 57.3,56.5 56.4,57.3 C55.4,56.5 54.3,55.9 53.1,55.5 C52.3,52.5 50.9,46.1 50.9,38.4 C50.9,33.8 52.3,30.5 55.2,28.7 C57.4,27.3 59.7,27.2 59.7,27.2 C60.5,27.2 61.2,26.9 61.8,26.4 C61.9,26.3 69.3,19.4 82.1,18.7 C93.8,18.1 102.8,21 108.2,27.2 C113.6,33.5 115.4,43.1 113.5,55.1 C112.7,55.1 111.8,55.1 110.9,55.3 L108.1,48.5 C107.5,47.1 106,46.4 104.5,46.7 C104.2,46.8 76.2,53.9 64.5,39.3 C63.5,38 61.5,37.8 60.2,38.8 C58.9,39.8 58.7,41.8 59.7,43.1 C71.7,58 95.5,54.8 103.4,53.2 L105.6,58.5 C106.5,60.8 109,62 111.4,61.5 C112.4,61.3 113.3,61.3 113.7,61.3 C114.9,61.5 115.9,62.8 115.9,64.1 L115.9,66.3 C115.9,67.7 115,69 113.8,69.3 C113.6,69.3 113.3,69.4 113.1,69.3 C110.2,69.1 107.5,71.2 107,74.1 C104,90.2 86.3,100.4 69.4,91.6 C62.5,88.3 58.6,81.4 57,74 Z M70.5,127.8 C69.7,128.6 68.8,128.6 68.4,128.6 C67.9,128.6 67.1,128.3 66.5,127.4 L54.7,109.7 L59.4,105 L77.5,120.9 L70.5,127.8 Z M79.1,131.8 L79.3,127.6 L82,124.9 L84.7,127.6 L84.9,131.8 L79.1,131.8 Z M82,116.6 L65.2,101.9 L65.2,96.1 C70,99.2 75.8,101 82,101 C88.1,101 93.9,99.2 98.8,96.1 L98.8,101.9 L82,116.6 Z M97.5,127.4 C96.9,128.3 96,128.5 95.6,128.6 C95.1,128.6 94.2,128.6 93.5,127.8 L86.5,120.8 L104.6,104.9 L109.3,109.6 L97.5,127.4 Z" id="Shape" fill="#CCCCCC"></path>
            </g>
            <g id="Group" transform="translate(63.000000, 66.000000)" fill="#C22026">
                <path d="M0.1,24.1 L0.1,16.1 C0.1,14.9 1,14 2.2,14 L38.1,14 C39.3,14 40.2,14.9 40.2,16.1 L40.2,24.1 C40.2,25.3 39.3,26.2 38.1,26.2 L2.2,26.2 C1.1,26.3 0.1,25.3 0.1,24.1 Z" id="Path"></path>
                <path d="M16.2,0.1 L24.2,0.1 C25.4,0.1 26.3,1 26.3,2.2 L26.3,38.1 C26.3,39.3 25.4,40.2 24.2,40.2 L16.2,40.2 C15,40.2 14.1,39.3 14.1,38.1 L14.1,2.2 C14.1,1.1 15,0.1 16.2,0.1 Z" id="Path"></path>
            </g>
        </g>
    </g>
</svg>