<?xml version="1.0" encoding="UTF-8"?>
<svg width="70px" height="70px" viewBox="0 0 70 70" version="1.1" xmlns="http://www.w3.org/2000/svg" xmlns:xlink="http://www.w3.org/1999/xlink">
    <!-- Generator: Sketch 54.1 (76490) - https://sketchapp.com -->
    <title>profileicon01</title>
    <desc>Created with Sketch.</desc>
    <g id="Page-1" stroke="none" stroke-width="1" fill="none" fill-rule="evenodd">
        <g id="profileicon01" fill-rule="nonzero">
            <path d="M34.3,68.6 C15.4,68.6 0,53.2 0,34.3 C0,15.4 15.4,0 34.3,0 C53.2,0 68.6,15.4 68.6,34.3 C68.6,53.2 53.2,68.6 34.3,68.6 Z M34.3,2 C16.5,2 2,16.5 2,34.3 C2,52.1 16.5,66.6 34.3,66.6 C52.1,66.6 66.6,52.1 66.6,34.3 C66.6,16.5 52.1,2 34.3,2 Z" id="Shape" fill="#3A3C39"></path>
            <path d="M35.3,69.1 C16.7,69.1 1.5,54 1.5,35.3 C1.5,16.6 16.7,1.5 35.3,1.5 C53.9,1.5 69.1,16.7 69.1,35.3 C69.1,53.9 54,69.1 35.3,69.1 Z M35.3,2.5 C17.2,2.5 2.5,17.2 2.5,35.3 C2.5,53.4 17.2,68.1 35.3,68.1 C53.4,68.1 68.1,53.4 68.1,35.3 C68.1,17.2 53.4,2.5 35.3,2.5 Z" id="Shape" fill="#FFFFFF"></path>
            <path d="M53.7,46.3 L47,43.7 L43.6,40.3 C43.4,40.1 43.1,40 42.8,39.9 L42.8,37.2 C44.4,35.5 45.5,33.3 46,30.9 C46.3,30.9 46.6,30.9 46.9,30.8 C48.5,30.5 49.7,29 49.7,27.2 L49.7,26.3 C49.7,25.3 49.3,24.4 48.6,23.7 C49.7,18 48.8,13.2 46,10 C43.3,6.9 39,5.4 33.5,5.7 C28.4,6 25.2,8.3 24.1,9.2 C23.5,9.3 22.6,9.5 21.6,10.1 C20.2,10.9 18.6,12.6 18.6,16.2 C18.6,19.3 19.1,21.8 19.4,23.3 C18.2,23.9 17.4,25.1 17.4,26.6 L17.4,27.5 C17.4,29.2 18.6,30.8 20.2,31.1 C20.5,31.2 20.8,31.2 21.1,31.2 C21.6,33.6 22.7,35.8 24.3,37.5 L24.3,40 C24,40 23.7,40.1 23.5,40.4 L20.1,43.8 L13.4,46.4 C12.8,46.6 12.3,46.9 11.8,47.3 C11.2,47.7 11.1,48.4 11.5,49 C11.7,49.3 12.1,49.5 12.5,49.5 C12.7,49.5 13,49.4 13.2,49.3 C13.6,49.1 13.9,48.9 14.3,48.7 L20.5,46.3 L25.2,53.4 C25.8,54.3 26.7,54.8 27.8,54.9 C27.9,54.9 28,54.9 28.1,54.9 C28.7,54.9 29.3,54.7 29.8,54.4 L28.8,63.7 C28.8,64.4 29.3,64.9 30,65 C30,65 30,65 30.1,65 C30.8,65 31.3,64.5 31.3,63.8 L32.2,56.2 L34.7,56.2 L35.6,63.8 C35.6,64.5 36.2,65 36.8,65 C36.8,65 36.8,65 36.9,65 C37.6,65 38.1,64.4 38.1,63.7 L37.1,54.4 C37.6,54.7 38.2,54.9 38.8,54.9 C38.9,54.9 39,54.9 39.1,54.9 C40.2,54.8 41.1,54.2 41.7,53.4 L46.4,46.3 L52.6,48.7 C53.7,48.9 55.1,47 53.7,46.3 Z M23.6,30.4 C23.4,29.3 22.3,28.4 21.1,28.5 C21,28.5 20.9,28.5 20.8,28.5 C20.3,28.4 19.9,27.9 19.9,27.3 L19.9,26.4 C19.9,25.8 20.3,25.3 20.8,25.2 C21.2,25.1 21.6,25.3 21.8,25.6 C22,25.9 22.3,26.1 22.7,26.2 C23.2,26.4 23.8,26.3 24.2,26 C25,25.5 25.6,24.8 26.2,24 C26.6,23.5 26.5,22.7 25.9,22.3 C25.4,21.9 24.6,22 24.2,22.6 C23.9,23 23.6,23.3 23.2,23.6 C22.8,23.3 22.4,23 21.9,22.9 C21.6,21.7 21,19.1 21,16 C21,14.1 21.6,12.8 22.7,12.1 C23.6,11.5 24.5,11.5 24.5,11.5 C24.8,11.5 25.1,11.4 25.3,11.2 C25.3,11.2 28.3,8.4 33.5,8.1 C38.2,7.8 41.8,9 44,11.5 C46.2,14 46.9,17.9 46.1,22.7 C45.8,22.7 45.4,22.7 45.1,22.8 L44,20 C43.8,19.4 43.2,19.1 42.6,19.3 C42.5,19.3 31.2,22.2 26.5,16.3 C26.1,15.8 25.3,15.7 24.8,16.1 C24.3,16.5 24.2,17.3 24.6,17.8 C29.4,23.8 39,22.5 42.2,21.9 L43.1,24 C43.5,24.9 44.5,25.4 45.4,25.2 C45.8,25.1 46.2,25.1 46.3,25.1 C46.8,25.2 47.2,25.7 47.2,26.2 L47.2,27.1 C47.2,27.7 46.8,28.2 46.3,28.3 C46.2,28.3 46.1,28.3 46,28.3 C44.8,28.2 43.7,29.1 43.5,30.2 C42.3,36.7 35.2,40.8 28.3,37.3 C25.8,36.2 24.2,33.4 23.6,30.4 Z M29,52.1 C28.7,52.4 28.3,52.4 28.1,52.4 C27.9,52.4 27.6,52.3 27.3,51.9 L22.5,44.8 L24.4,42.9 L31.7,49.3 L29,52.1 Z M32.5,53.7 L32.6,52 L33.7,50.9 L34.8,52 L34.9,53.7 L32.5,53.7 Z M33.6,47.6 L26.8,41.7 L26.8,39.4 C28.8,40.7 31.1,41.4 33.6,41.4 C36.1,41.4 38.4,40.7 40.4,39.4 L40.4,41.7 L33.6,47.6 Z M39.9,51.9 C39.7,52.3 39.3,52.4 39.1,52.4 C38.9,52.4 38.6,52.4 38.2,52.1 L35.4,49.3 L42.7,42.9 L44.6,44.8 L39.9,51.9 Z" id="Shape" fill="#3A3C39"></path>
        </g>
    </g>
</svg>