<?xml version="1.0" encoding="utf-8"?>
<!-- Generator: Adobe Illustrator 22.1.0, SVG Export Plug-In . SVG Version: 6.00 Build 0)  -->
<svg version="1.1" id="Capa_1" xmlns="http://www.w3.org/2000/svg" xmlns:xlink="http://www.w3.org/1999/xlink" x="0px" y="0px"
	 viewBox="0 0 97 97" style="enable-background:new 0 0 97 97;" xml:space="preserve">
<style type="text/css">
	.st0{fill:#B52728;}
	.st1{fill:#3A3B38;}
	.st2{fill:#929292;}
	.st3{fill:#6B6B6B;}
	.st4{fill:#9D9D9D;}
	.st5{fill:#FFFFFF;}
	.st6{fill:#C0C0C0;}
	.st7{opacity:0.5;}
	.st8{fill:#3A3C39;}
	.st9{fill:#C22026;}
	.st10{fill:#F2F2F2;}
	.st11{fill:#9E9E9E;}
	.st12{fill:#C1C1C1;}
	.st13{fill:#D3D3D3;}
	.st14{fill:#969696;}
	.st15{opacity:0.85;}
	.st16{fill:#4D4D4D;}
	.st17{fill:none;stroke:#4D4D4D;stroke-width:1.5;stroke-miterlimit:10;}
	.st18{fill:#22BF7C;}
	.st19{fill:#FF8400;}
	.st20{fill:#B0B0B0;}
	.st21{fill:none;stroke:#FFFFFF;stroke-width:1.5;stroke-miterlimit:10;}
	.st22{fill:#CCCCCC;}
	.st23{fill:#444444;}
</style>
<g>
	<g>
		<path class="st8" d="M48,96.1c-26.5,0-48-21.5-48-48C0,21.5,21.5,0,48,0c26.5,0,48,21.5,48,48C96.1,74.5,74.5,96.1,48,96.1z M48,2
			C22.7,2,2,22.7,2,48c0,25.4,20.7,46,46,46c25.4,0,46-20.7,46-46C94.1,22.7,73.4,2,48,2z"/>
	</g>
	<g>
		<path class="st5" d="M49.4,97C23.2,97,1.9,75.7,1.9,49.4S23.2,1.9,49.4,1.9C75.7,1.9,97,23.2,97,49.4S75.7,97,49.4,97z M49.4,2.9
			C23.8,2.9,2.9,23.8,2.9,49.4S23.8,96,49.4,96C75.1,96,96,75.1,96,49.4S75.1,2.9,49.4,2.9z"/>
	</g>
	<g>
		<g>
			<g>
				<path class="st8" d="M75.4,65L66,61.3l-4.8-4.8c-0.3-0.3-0.7-0.5-1.1-0.5v-3.8c2.3-2.4,3.9-5.5,4.5-8.9c0.4,0,0.8,0,1.2-0.1
					c2.3-0.5,4-2.6,4-5.1v-1.3c0-1.4-0.6-2.7-1.5-3.7c1.5-8.3,0.3-15-3.6-19.6c-3.8-4.4-9.9-6.5-17.6-6c-7.2,0.4-11.8,3.7-13.3,4.9
					c-0.8,0.1-2.2,0.4-3.6,1.2c-1.9,1.1-4.2,3.6-4.2,8.5c0,4.3,0.7,8,1.2,10c-1.7,0.8-2.8,2.6-2.8,4.6v1.2c0,2.5,1.7,4.6,4,5.1
					c0.4,0.1,0.8,0.1,1.2,0.1c0.6,3.4,2.3,6.5,4.5,8.9v3.8c-0.4,0-0.8,0.2-1.1,0.5l-4.8,4.8L18.7,65c-0.8,0.3-1.6,0.7-2.3,1.2
					c-0.8,0.5-1,1.6-0.5,2.4c0.3,0.5,0.9,0.8,1.4,0.8c0.3,0,0.7-0.1,1-0.3c0.5-0.3,1-0.6,1.6-0.8l8.7-3.4l6.7,10
					c0.8,1.2,2.2,2,3.6,2.2c0.2,0,0.3,0,0.5,0c0.9,0,1.7-0.2,2.4-0.6l-1.4,13.1c0,1,0.7,1.8,1.6,1.8c0,0,0.1,0,0.1,0
					c0.9,0,1.7-0.7,1.7-1.6l1.3-10.8h3.6l1.3,10.8c0,0.9,0.8,1.6,1.7,1.6c0,0,0.1,0,0.1,0c1,0,1.7-0.8,1.6-1.8l-1.4-13.1
					c0.7,0.4,1.6,0.6,2.4,0.6c0.2,0,0.3,0,0.5,0c1.5-0.1,2.8-0.9,3.6-2.2l6.7-10l8.7,3.4C75.4,68.7,77.4,65.9,75.4,65z M32.9,42.5
					c-0.3-1.6-1.9-2.8-3.5-2.6c-0.1,0-0.3,0-0.4,0c-0.7-0.1-1.2-0.9-1.2-1.7V37c0-0.8,0.5-1.5,1.2-1.6c0.6-0.1,1.1,0.1,1.5,0.6
					c0.3,0.4,0.7,0.7,1.2,0.9c0.7,0.2,1.5,0.1,2.1-0.3c1.1-0.8,2-1.7,2.8-2.8c0.6-0.8,0.4-1.8-0.4-2.4c-0.8-0.6-1.8-0.4-2.4,0.4
					c-0.4,0.5-0.8,1-1.3,1.5c-0.5-0.5-1.2-0.8-1.9-1c-0.4-1.7-1.2-5.3-1.2-9.7c0-2.6,0.8-4.5,2.4-5.5c1.3-0.8,2.6-0.8,2.6-0.8
					c0.4,0,0.9-0.2,1.2-0.5c0,0,4.3-4,11.5-4.4c6.6-0.4,11.8,1.3,14.8,4.9c3.1,3.6,4.1,9,3,15.9c-0.5,0-1,0-1.5,0.1l-1.6-3.9
					c-0.3-0.8-1.2-1.2-2-1c-0.2,0-16.1,4.1-22.8-4.2c-0.6-0.7-1.7-0.9-2.4-0.3c-0.7,0.6-0.9,1.7-0.3,2.4c6.8,8.5,20.4,6.6,24.9,5.7
					l1.3,3c0.5,1.3,1.9,2,3.3,1.7c0.6-0.1,1.1-0.1,1.3-0.1c0.7,0.1,1.2,0.8,1.2,1.6v1.3c0,0.8-0.5,1.5-1.2,1.7c-0.1,0-0.3,0-0.4,0
					c-1.7-0.1-3.2,1.1-3.5,2.7c-1.7,9.1-11.8,14.9-21.4,10C36,50.6,33.8,46.8,32.9,42.5z M40.5,73.1c-0.4,0.4-0.9,0.5-1.2,0.4
					c-0.3,0-0.8-0.1-1.1-0.7l-6.7-10.1l2.7-2.7l10.3,9L40.5,73.1z M45.4,75.4l0.1-2.4l1.5-1.5l1.5,1.5l0.1,2.4H45.4z M47.1,66.8
					l-9.6-8.4v-3.3c2.8,1.8,6.1,2.8,9.6,2.8s6.8-1,9.6-2.8v3.3L47.1,66.8z M55.9,72.9c-0.3,0.5-0.8,0.6-1.1,0.7
					c-0.3,0-0.8,0-1.2-0.4l-4-4l10.3-9l2.7,2.7L55.9,72.9z"/>
			</g>
		</g>
	</g>
</g>
</svg>
