<?xml version="1.0" encoding="UTF-8"?>
<svg width="23px" height="24px" viewBox="0 0 23 24" version="1.1" xmlns="http://www.w3.org/2000/svg" xmlns:xlink="http://www.w3.org/1999/xlink">
    <!-- Generator: Sketch 54.1 (76490) - https://sketchapp.com -->
    <title>statusicon_gray01</title>
    <desc>Created with Sketch.</desc>
    <g id="Page-1" stroke="none" stroke-width="1" fill="none" fill-rule="evenodd">
        <g id="statusicon_gray01" fill-rule="nonzero">
            <g id="Group">
                <circle id="Oval" fill="#B0B0B0" cx="11.5" cy="11.5" r="11"></circle>
                <path d="M11.5,23.1 C5.2,23.1 0,17.9 0,11.5 C0,5.1 5.2,0 11.5,0 C17.8,0 23,5.2 23,11.5 C23,17.8 17.9,23.1 11.5,23.1 Z M11.5,1 C5.7,1 1,5.7 1,11.5 C1,17.3 5.7,22 11.5,22 C17.3,22 22,17.3 22,11.5 C22,5.7 17.3,1 11.5,1 Z" id="Shape" fill="#F2F2F2"></path>
            </g>
            <g id="Group" transform="translate(9.000000, 9.000000)">
                <path d="M0.8,2.7 C0.8,2.2 0.9,1.7 1.2,1.5 C1.5,1.3 2,1 2.5,1 C3,1 3.5,1.1 3.8,1.4 C4.1,1.7 4.2,2.1 4.2,2.6 C4.2,3.1 4,3.5 3.7,3.8 C3.4,4.1 3,4.2 2.5,4.2 C2,4.2 1.5,4.1 1.2,3.8 C0.9,3.5 0.8,3.2 0.8,2.7 Z" id="Path" fill="#B0B0B0"></path>
                <path d="M2.5,4.9 C1.8,4.9 1.3,4.7 0.9,4.3 C0.5,3.9 0.3,3.4 0.3,2.7 C0.3,2 0.5,1.5 0.9,1.1 C1.3,0.7 1.8,0.5 2.5,0.5 C3.2,0.5 3.7,0.7 4.1,1.1 C4.5,1.5 4.7,2 4.7,2.7 C4.7,3.4 4.5,3.9 4.1,4.3 C3.7,4.7 3.2,4.9 2.5,4.9 Z M2.5,1.5 C2.1,1.5 1.8,1.6 1.6,1.8 C1.4,2 1.3,2.3 1.3,2.7 C1.3,3.1 1.4,3.4 1.6,3.6 C1.8,3.8 2.1,3.9 2.5,3.9 C2.9,3.9 3.2,3.8 3.4,3.6 C3.6,3.4 3.7,3.1 3.7,2.7 C3.7,2.3 3.6,2 3.4,1.8 C3.2,1.6 2.9,1.5 2.5,1.5 Z" id="Shape" fill="#F2F2F2"></path>
            </g>
        </g>
    </g>
</svg>