<?xml version="1.0" encoding="UTF-8"?>
<svg width="23px" height="24px" viewBox="0 0 23 24" version="1.1" xmlns="http://www.w3.org/2000/svg" xmlns:xlink="http://www.w3.org/1999/xlink">
    <!-- Generator: Sketch 54.1 (76490) - https://sketchapp.com -->
    <title>statusicon_red</title>
    <desc>Created with Sketch.</desc>
    <g id="Page-1" stroke="none" stroke-width="1" fill="none" fill-rule="evenodd">
        <g id="statusicon_red" fill-rule="nonzero">
            <g id="Group">
                <circle id="Oval" fill="#C22026" cx="11.5" cy="11.5" r="11"></circle>
                <path d="M11.5,23.1 C5.2,23.1 0,17.9 0,11.5 C0,5.1 5.2,0 11.5,0 C17.8,0 23,5.2 23,11.5 C23,17.8 17.9,23.1 11.5,23.1 Z M11.5,1 C5.7,1 1,5.7 1,11.5 C1,17.3 5.7,22 11.5,22 C17.3,22 22,17.3 22,11.5 C22.1,5.7 17.3,1 11.5,1 Z" id="Shape" fill="#F2F2F2"></path>
            </g>
            <path d="M9.8,17.4 C9.8,16.9 9.9,16.4 10.2,16.2 C10.5,16 10.9,15.8 11.5,15.8 C12,15.8 12.5,15.9 12.8,16.2 C13.1,16.5 13.2,16.9 13.2,17.4 C13.2,17.9 13.1,18.3 12.8,18.6 C12.5,18.9 12.1,19 11.5,19 C11,19 10.5,18.9 10.2,18.6 C9.9,18.3 9.8,17.9 9.8,17.4 Z M12.7,14 L10.3,14 L9.9,4.5 L13.3,4.5 L12.7,14 Z" id="Shape" fill="#F2F2F2"></path>
        </g>
    </g>
</svg>