<?xml version="1.0" encoding="UTF-8"?>
<svg width="23px" height="24px" viewBox="0 0 23 24" version="1.1" xmlns="http://www.w3.org/2000/svg" xmlns:xlink="http://www.w3.org/1999/xlink">
    <!-- Generator: Sketch 54.1 (76490) - https://sketchapp.com -->
    <title>statusicon_green</title>
    <desc>Created with Sketch.</desc>
    <g id="Page-1" stroke="none" stroke-width="1" fill="none" fill-rule="evenodd">
        <g id="statusicon_green" fill-rule="nonzero">
            <g id="Group">
                <circle id="Oval" fill="#22BF7C" cx="11.5" cy="11.5" r="11"></circle>
                <path d="M11.5,23.1 C5.2,23.1 0,17.9 0,11.5 C0,5.1 5.2,0 11.5,0 C17.8,0 23,5.2 23,11.5 C23,17.8 17.9,23.1 11.5,23.1 Z M11.5,1 C5.7,1 1,5.7 1,11.5 C1,17.3 5.7,22 11.5,22 C17.3,22 22,17.3 22,11.5 C22.1,5.7 17.3,1 11.5,1 Z" id="Shape" fill="#F2F2F2"></path>
            </g>
            <path d="M9.8,11.7 C9.8,11.2 9.9,10.7 10.2,10.5 C10.5,10.3 11,10 11.5,10 C12,10 12.5,10.1 12.8,10.4 C13.1,10.7 13.2,11.1 13.2,11.6 C13.2,12.1 13,12.5 12.7,12.8 C12.4,13.1 12,13.2 11.5,13.2 C11,13.2 10.5,13.1 10.2,12.8 C9.9,12.5 9.8,12.2 9.8,11.7 Z" id="Path" fill="#F2F2F2"></path>
        </g>
    </g>
</svg>